  <svg width="653" height="430" viewBox="0 0 653 430" fill="none" xmlns="http://www.w3.org/2000/svg">
    <g filter="url(#filter0_dd_1_1875)">
      <path d="M35.0011 350.374C35.0011 330.586 35.0011 310.798 35.0389 291.01C35.0389 289.118 35.0767 287.188 35.493 285.372C36.6282 280.454 41.0934 277.238 46.9587 277.124C53.2403 277.011 59.5597 277.049 65.8412 277.049C78.6693 277.049 91.4595 277.011 104.287 277.086C110.758 277.124 115.148 280.113 116.434 285.297C116.851 286.961 116.926 288.74 116.926 290.48C116.964 311.782 116.964 333.083 116.926 354.385C116.926 357.941 116.056 358.811 112.461 358.811C106.558 358.811 100.617 358.811 94.7138 358.811C91.4973 358.811 90.5135 357.865 90.5135 354.574C90.5135 337.737 90.5135 303.609 90.5135 303.382C90.5513 297.366 89.681 296.496 83.74 296.496C78.2152 296.496 72.6526 296.496 67.1278 296.496C62.6248 296.496 61.376 297.631 61.376 302.096C61.3382 319.084 61.3382 336.072 61.3382 353.06C61.3382 353.968 61.376 354.876 61.3004 355.784C61.1868 357.676 60.0516 358.736 58.2353 358.774C51.5753 358.811 44.8775 358.811 38.2175 358.774C36.7039 358.774 35.8714 358.055 35.3416 356.995C34.9632 356.201 35.0011 351.206 35.0011 350.374Z" fill="white"/>
      <path d="M128.125 378.713C127.293 378.713 126.46 378.524 125.741 378.07C124.492 377.313 124.038 376.103 124.038 374.249C124.114 352.569 124.076 330.889 124.076 309.209C124.076 301.188 127.785 297.14 135.769 297.026C146.289 296.837 156.846 296.95 167.404 296.988C171.718 297.026 175.842 297.972 179.588 300.129C185.265 303.42 188.14 308.642 189.314 314.809C191.13 324.533 190.865 334.294 188.216 343.867C185.984 352.001 180.497 356.92 172.247 358.017C166.496 358.774 149.808 358.812 146.932 358.812C146.932 360.022 146.932 361.044 146.932 362.066C146.932 366.152 146.932 369.406 146.932 373.492C146.932 376.935 145.343 378.638 141.937 378.675C138.758 378.751 130.925 378.751 128.125 378.713ZM147.045 339.629C147.083 341.105 148.256 342.24 149.732 342.278C152.343 342.353 155.862 342.315 158.322 342.278C163.43 342.164 166.041 339.402 166.533 334.408C166.988 329.867 166.912 325.176 166.382 320.636C165.89 316.095 162.674 313.674 158.057 313.523C155.711 313.447 153.365 313.485 151.019 313.485C147.802 313.485 146.932 314.317 146.932 317.495C146.894 323.36 146.97 334.483 147.045 339.629Z" fill="white"/>
      <path d="M265.149 316.246C262.878 304.933 257.165 299.106 245.926 297.29C235.179 295.55 224.319 295.55 213.572 297.555C204.49 299.258 198.701 304.744 196.392 313.673C193.971 323.018 193.971 332.439 196.317 341.785C198.587 350.828 204.301 356.503 213.534 358.092C219.097 359.038 239.152 359.303 243.428 358.849C255.575 357.524 262.424 351.736 264.922 340.65C266.738 332.553 266.776 324.38 265.149 316.246ZM243.315 332.78C243.315 338.682 238.547 343.45 232.644 343.45H228.254C222.351 343.45 217.583 338.682 217.583 332.78V322.337C217.583 316.435 222.351 311.668 228.254 311.668H232.417C238.433 311.668 243.315 316.548 243.315 322.564V332.78Z" fill="white"/>
      <path d="M291.334 358.547C279.3 357.563 272.603 350.942 271.165 338.948C270.219 331.154 270.219 323.359 271.581 315.603C273.435 304.744 280.852 297.669 291.826 297.215C303.253 296.761 314.719 296.95 326.185 296.95C328.455 296.95 329.439 298.047 329.477 300.393C329.553 303.193 329.515 305.993 329.477 308.831C329.439 311.479 328.38 312.501 325.693 312.501C319.487 312.538 313.243 312.501 307.038 312.539C298.788 312.576 294.853 316.019 294.21 324.305C293.945 327.975 294.02 331.759 294.588 335.391C295.383 340.537 298.486 342.996 303.745 343.148C310.784 343.299 317.86 343.261 324.898 343.261C330.461 343.261 330.764 343.564 330.764 349.201C330.764 351.169 330.764 353.136 330.764 355.104C330.726 357.828 329.78 358.849 327.055 358.849C321.341 358.887 297.502 359.076 291.334 358.547Z" fill="white"/>
      <path d="M336.514 331.116C336.514 323.7 336.476 316.246 336.514 308.831C336.552 301.301 340.374 297.139 347.904 297.064C362.473 296.875 377.042 296.875 391.572 297.064C399.254 297.139 403.038 301.264 403.038 308.982C403.076 324.23 403.076 339.478 403.038 354.725C403.038 357.979 402.13 358.849 398.8 358.849C394.108 358.849 389.378 358.849 384.685 358.849C381.091 358.849 380.22 357.979 380.22 354.46C380.22 342.164 380.22 329.905 380.22 317.609C380.22 313.484 379.274 312.539 375.112 312.501C371.328 312.501 367.544 312.463 363.722 312.501C360.316 312.539 359.219 313.636 359.219 317.041C359.219 329.413 359.219 341.748 359.219 354.12C359.219 358.093 358.462 358.849 354.413 358.849C349.796 358.849 345.142 358.849 340.525 358.849C337.384 358.849 336.438 357.903 336.438 354.801C336.514 346.893 336.514 339.023 336.514 331.116Z" fill="white"/>
      <path d="M465.402 334.256C471.078 334.218 474.446 331.721 474.976 326.084C475.43 321.468 475.316 316.662 474.597 312.084C473.046 302.285 468.921 298.161 459.234 296.988C447.92 295.664 436.492 295.55 425.215 297.328C414.733 298.993 410.118 303.458 409.437 313.9C408.794 323.624 408.945 333.461 409.815 343.185C410.723 353.136 416.323 358.168 426.351 358.509C440.881 359.001 455.45 358.811 470.019 358.849C472.1 358.849 473.197 357.601 473.197 355.52C473.197 352.871 473.197 350.223 473.197 347.574C473.197 342.92 472.63 342.353 467.975 342.353C458.326 342.353 448.714 342.391 439.065 342.277C433.994 342.202 431.61 339.591 431.875 334.37C432.897 334.294 455.147 334.294 465.402 334.256ZM437.589 312.047C440.73 311.857 443.946 311.971 447.087 312.084C448.185 312.122 449.32 312.501 450.342 312.992C452.082 313.863 452.877 315.338 452.423 317.306C451.969 319.197 450.228 319.727 448.487 319.727C442.887 319.765 437.627 319.727 431.913 319.727C431.156 314.657 432.859 312.349 437.589 312.047Z" fill="white"/>
      <path d="M503.998 301.188C503.998 297.896 503.09 296.95 499.873 296.913C494.954 296.875 490.035 296.875 485.078 296.913C482.088 296.913 481.104 297.859 481.104 300.885C481.067 318.933 481.067 336.981 481.104 354.99C481.104 357.79 482.164 358.812 485.002 358.812C489.846 358.85 494.689 358.812 499.571 358.812C503.09 358.812 503.998 357.866 503.998 354.385C503.998 345.531 503.998 336.64 503.998 327.787C503.998 318.933 503.998 310.079 503.998 301.188Z" fill="white"/>
      <path d="M549.898 356.881C546.303 352.19 536.275 339.174 531.167 332.931C527.042 327.861 527.004 326.386 530.826 321.202C531.242 320.673 544.6 303.155 547.817 298.879C548.346 298.16 547.854 297.177 546.984 297.139C542.519 297.063 532.151 296.874 527.156 297.025C525.793 297.063 523.977 298.009 523.182 299.106C517.96 306.371 512.965 313.787 507.857 321.127C504.981 325.289 505.094 329.148 508.122 333.234C513.836 340.877 519.36 348.671 524.999 356.389C526.247 358.13 527.875 358.887 530.069 358.849C534.837 358.773 544.676 358.66 549.065 358.584C549.936 358.622 550.428 357.6 549.898 356.881Z" fill="white"/>
      <path d="M617.407 300.961C617.369 297.858 616.423 296.912 612.98 296.912C607.076 296.912 601.211 296.912 595.308 296.912C593.605 296.912 567.117 296.912 555.575 296.912C552.397 296.912 551.488 297.858 551.488 300.961C551.488 303.912 551.451 306.863 551.488 309.814C551.526 311.895 552.548 313.068 554.705 313.106C557.505 313.144 569.576 313.106 573.058 313.106C573.058 314.241 573.058 315.035 573.058 315.868C573.058 328.694 573.058 341.482 573.058 354.309C573.058 358.054 573.852 358.811 577.636 358.811C582.102 358.811 586.567 358.811 591.07 358.811C595.157 358.811 595.876 358.092 595.876 354.082C595.876 341.407 595.876 328.77 595.876 316.095C595.876 315.187 595.876 314.316 595.876 313.106C600.871 313.106 611.277 313.106 613.926 313.106C616.234 313.068 617.369 311.895 617.369 309.814C617.445 306.901 617.445 303.95 617.407 300.961Z" fill="white"/>
      <path fill-rule="evenodd" clip-rule="evenodd" d="M281.458 19L218.983 43.5553V64.757L232.15 59.4844V74.6565L218.983 79.7654V94.2688L232.15 88.9961V104.168L218.983 109.277V123.63C218.983 125.711 239.976 129.298 239.976 129.298C242.057 129.298 239.976 156.04 239.976 156.04C239.976 156.04 281.458 170.967 281.458 168.886V29.4048L327.623 44.1985V272.385C327.623 274.126 329.023 275.526 330.764 275.526H334.548C336.289 275.526 337.689 274.126 337.689 272.385V37.3125L281.458 19Z" fill="white"/>
      <path fill-rule="evenodd" clip-rule="evenodd" d="M128.467 120.021L172.779 101.708L247.438 127.134V272.953C247.438 274.436 246.238 274.417 244.798 274.396C244.622 274.393 244.442 274.39 244.26 274.39H240.097C239.917 274.39 239.736 274.393 239.558 274.396C238.091 274.417 236.767 274.437 236.767 272.953V133.944L172.817 112.454L173.46 272.536C173.46 274.466 171.908 276.017 170.016 276.017H131.911C130.019 276.017 128.467 274.466 128.467 272.536V154.22L144.17 148.398V132.848L128.467 139.198V120.021Z" fill="white"/>
      <path fill-rule="evenodd" clip-rule="evenodd" d="M196.734 168.527L256.409 151.236L294.098 168.148V273.104C294.098 274.694 292.811 276.018 291.184 276.018H287.097C285.508 276.018 284.184 274.731 284.184 273.104V174.732L256.409 163.797V273.407C256.409 274.845 255.236 276.018 253.798 276.018H199.345C197.907 276.018 196.734 274.845 196.734 273.407V220.052L211.454 214.951V200.612L196.734 205.678V168.527Z" fill="white"/>
      <path d="M416.377 69L362 87.426V272.934C362 274.599 363.551 275.583 365.519 275.583H412.896C414.826 275.583 416.415 274.599 416.415 272.934V79.9345L461.824 94.6147L462.543 273.464C462.543 274.826 463.829 274.826 465.457 274.826H468.938C470.527 274.826 471.852 274.864 471.852 273.464V87.3503L416.377 69Z" fill="white"/>
      <path d="M448.224 110.411V122.859L462.754 127.513V114.951L448.224 110.411Z" fill="white"/>
      <path d="M448.224 133.113V145.561L462.754 150.214V137.653L448.224 133.113Z" fill="white"/>
      <path d="M480.728 158.538L438.384 175.602V273.634C438.384 274.958 439.519 276.056 440.919 276.056H478.23C479.63 276.056 480.766 274.996 480.766 273.634V169.7L523.299 183.547V273.331C523.299 274.807 524.547 276.018 526.742 276.018H530.223C531.17 276.018 533.062 274.807 533.062 273.331L533.175 176.359L480.728 158.538Z" fill="white"/>
      <path d="M509.675 198.227V214.496L524.546 218.658V202.578L509.675 198.227Z" fill="white"/>
    </g>

    <defs>
      <filter id="filter0_dd_1_1875" x="0" y="0" width="652.432" height="429.738" filterUnits="userSpaceOnUse" color-interpolation-filters="sRGB">
      <feFlood flood-opacity="0" result="BackgroundImageFix"/>
      <feColorMatrix in="SourceAlpha" type="matrix" values="0 0 0 0 0 0 0 0 0 0 0 0 0 0 0 0 0 0 127 0" result="hardAlpha"/>
      <feOffset/>
      <feColorMatrix type="matrix" values="0 0 0 0 0.0509804 0 0 0 0 0.145098 0 0 0 0 0.14902 0 0 0 0.2 0"/>
      <feBlend mode="normal" in2="BackgroundImageFix" result="effect1_dropShadow_1_1875"/>
      <feColorMatrix in="SourceAlpha" type="matrix" values="0 0 0 0 0 0 0 0 0 0 0 0 0 0 0 0 0 0 127 0" result="hardAlpha"/>
      <feOffset dy="16"/>
      <feGaussianBlur stdDeviation="17.5"/>
      <feColorMatrix type="matrix" values="0 0 0 0 0.0509804 0 0 0 0 0.145098 0 0 0 0 0.14902 0 0 0 0.2 0"/>
      <feBlend mode="normal" in2="effect1_dropShadow_1_1875" result="effect2_dropShadow_1_1875"/>
      <feBlend mode="normal" in="SourceGraphic" in2="effect2_dropShadow_1_1875" result="shape"/>
      </filter>
    </defs>
  </svg>
