<svg width="2418" height="1598" viewBox="0 0 2418 1598" fill="none" xmlns="http://www.w3.org/2000/svg">
<g clip-path="url(#clip0_271_2)">
<path d="M0 1142.93V1378.16L2.45549 1232.37L0 1142.93Z" fill="#FEFEFE"/>
<path d="M7.28461 46.0316L0 0L9.65825 191.744L7.28461 46.0316Z" fill="white"/>
<path d="M7.28418 46.0317L9.65782 191.744L14.4869 86.9032L7.28418 46.0317Z" fill="white"/>
<path d="M4.82872 452.535L2.45508 667.376L14.487 534.359L4.82872 452.535Z" fill="#FEFFFF"/>
<path d="M0 1378.16V1598L14.4874 1490.62L0 1378.16Z" fill="#FEFEFE"/>
<path d="M2.45508 667.376V790.072L16.9425 713.326L2.45508 667.376Z" fill="white"/>
<path d="M2.45508 790.072L7.2842 784.912L16.9425 713.326L2.45508 790.072Z" fill="white"/>
<path d="M14.487 534.359L2.45508 667.376L21.7716 641.739L14.487 534.359Z" fill="white"/>
<path d="M2.45508 667.376L16.9425 713.326L21.7716 641.739L2.45508 667.376Z" fill="#E1F6F9"/>
<path d="M2.45549 1035.55L0 1132.69L24.1456 1122.45L2.45549 1035.55Z" fill="white"/>
<path d="M0 1132.69V1142.93L24.1456 1122.45L0 1132.69Z" fill="white"/>
<path d="M0 1378.16L14.4874 1490.62L26.6011 1452.29L0 1378.16Z" fill="white"/>
<path d="M0 0L7.28461 46.0316L29.0566 25.5549L0 0Z" fill="white"/>
<path d="M7.28418 46.0314L14.4869 86.9028L29.0562 25.5547L7.28418 46.0314Z" fill="white"/>
<path d="M9.65823 314.522L4.8291 452.535L31.4302 368.171L9.65823 314.522Z" fill="#FBFCFE"/>
<path d="M2.45549 1232.37L0 1378.16L33.8857 1247.77L2.45549 1232.37Z" fill="white"/>
<path d="M0 1378.16L26.6011 1452.29L36.2594 1375.54L0 1378.16Z" fill="white"/>
<path d="M2.45508 790.072V925.546L38.7144 828.405L2.45508 790.072Z" fill="white"/>
<path d="M7.2842 784.912L2.45508 790.072L38.7144 828.405L7.2842 784.912Z" fill="#FEFFFF"/>
<path d="M24.1456 1122.45L0 1142.93L50.7467 1181.26L24.1456 1122.45Z" fill="white"/>
<path d="M0 1142.93L2.45549 1232.37L50.7467 1181.26L0 1142.93Z" fill="white"/>
<path d="M2.45508 1232.37L33.8853 1247.77L50.7463 1181.26L2.45508 1232.37Z" fill="white"/>
<path d="M16.9424 713.326L7.28418 784.912L58.0309 777.295L16.9424 713.326Z" fill="white"/>
<path d="M7.28418 784.912L38.7144 828.405L58.0309 777.295L7.28418 784.912Z" fill="white"/>
<path d="M33.8857 1247.77L0 1378.16L60.4868 1311.65L33.8857 1247.77Z" fill="white"/>
<path d="M0 1378.16L36.2594 1375.54L60.4868 1311.65L0 1378.16Z" fill="white"/>
<path d="M26.601 1452.29L14.4873 1490.62L62.8604 1485.54L26.601 1452.29Z" fill="white"/>
<path d="M9.6582 191.744V314.522L65.3159 250.553L9.6582 191.744Z" fill="white"/>
<path d="M2.45508 925.546V1035.55L65.3155 935.784L2.45508 925.546Z" fill="white"/>
<path d="M38.7144 828.404L2.45508 925.546L65.3155 935.784L38.7144 828.404Z" fill="#FEFEFE"/>
<path d="M9.6582 191.743L65.3159 250.552L74.9742 163.649L9.6582 191.743Z" fill="#FEFEFE"/>
<path d="M14.4873 86.9028L9.6582 191.743L74.9742 163.649L14.4873 86.9028Z" fill="#FEFEFE"/>
<path d="M67.6895 97.1412L14.4873 86.9028L74.9741 163.649L67.6895 97.1412Z" fill="white"/>
<path d="M14.4874 1490.62L0 1598L77.3478 1564.83L14.4874 1490.62Z" fill="white"/>
<path d="M62.8604 1485.54L14.4873 1490.62L77.3478 1564.83L62.8604 1485.54Z" fill="white"/>
<path d="M29.0565 25.5547L14.4873 86.9028L82.1769 48.5705L29.0565 25.5547Z" fill="white"/>
<path d="M14.4873 86.9031L67.6895 97.1415L82.1769 48.5708L14.4873 86.9031Z" fill="white"/>
<path d="M9.6582 314.522L31.4302 368.171L84.6324 327.299L9.6582 314.522Z" fill="white"/>
<path d="M65.3159 250.553L9.6582 314.522L84.6324 327.299L65.3159 250.553Z" fill="#FCFEFD"/>
<path d="M31.4302 368.171L4.8291 452.535L84.6324 475.551L31.4302 368.171Z" fill="#FBFDFC"/>
<path d="M84.6329 327.299L31.4307 368.171L84.6329 475.55V327.299Z" fill="#FEFEFE"/>
<path d="M4.8291 452.535L14.4874 534.359L84.6324 475.55L4.8291 452.535Z" fill="#FEFEFE"/>
<path d="M60.4872 1311.65L36.2598 1375.54L84.6329 1373L60.4872 1311.65Z" fill="white"/>
<path d="M26.6016 1452.29L62.8609 1485.54L94.2912 1411.42L26.6016 1452.29Z" fill="white"/>
<path d="M36.2598 1375.54L26.6016 1452.29L94.2912 1411.42L36.2598 1375.54Z" fill="white"/>
<path d="M84.6329 1373L36.2598 1375.54L94.2911 1411.42L84.6329 1373Z" fill="white"/>
<path d="M21.7715 641.739L16.9424 713.326L108.778 728.724L21.7715 641.739Z" fill="white"/>
<path d="M16.9424 713.326L58.0309 777.295L108.778 728.724L16.9424 713.326Z" fill="#FDFFFE"/>
<path d="M2.45508 1035.55L24.1452 1122.45H108.778L2.45508 1035.55Z" fill="white"/>
<path d="M24.1455 1122.45L50.7466 1181.26L108.778 1122.45H24.1455Z" fill="white"/>
<path d="M21.7725 641.739L108.779 728.724L116.063 595.708L21.7725 641.739Z" fill="#F3FBFD"/>
<path d="M84.6324 475.55L14.4873 534.359L116.063 595.707L84.6324 475.55Z" fill="#FEFEFE"/>
<path d="M108.778 478.089L84.6328 475.55L116.063 595.707L108.778 478.089Z" fill="#E9FBFB"/>
<path d="M14.4873 534.359L21.7719 641.739L116.063 595.707L14.4873 534.359Z" fill="#B8F4F2"/>
<path d="M108.778 1122.45L50.7471 1181.26L120.892 1227.29L108.778 1122.45Z" fill="white"/>
<path d="M50.7468 1181.26L33.8857 1247.77L120.892 1227.29L50.7468 1181.26Z" fill="white"/>
<path d="M33.8857 1247.77L60.4869 1311.65L120.892 1227.29L33.8857 1247.77Z" fill="#FEFEFE"/>
<path d="M65.3156 935.784L2.45508 1035.55L135.379 992.054L65.3156 935.784Z" fill="white"/>
<path d="M2.45508 1035.55L108.778 1122.45L135.379 992.054L2.45508 1035.55Z" fill="white"/>
<path d="M67.6895 97.1416L74.9741 163.65L149.948 104.841L67.6895 97.1416Z" fill="#FEFEFE"/>
<path d="M82.1768 48.5708L67.6895 97.1415L149.948 104.841L82.1768 48.5708Z" fill="white"/>
<path d="M84.6328 327.299V475.55L164.436 416.741L84.6328 327.299Z" fill="white"/>
<path d="M84.6328 475.55L108.778 478.089L164.436 416.741L84.6328 475.55Z" fill="#FAFEFF"/>
<path d="M164.436 416.741L108.778 478.089L169.265 424.44L164.436 416.741Z" fill="#DAF6F9"/>
<path d="M65.3164 250.553L84.6329 327.299L171.639 191.744L65.3164 250.553Z" fill="#FAFEFF"/>
<path d="M74.9747 163.649L65.3164 250.552L171.639 191.743L74.9747 163.649Z" fill="white"/>
<path d="M149.949 104.841L74.9746 163.65L171.639 191.744L149.949 104.841Z" fill="white"/>
<path d="M62.8604 1485.54L77.3477 1564.83L176.549 1526.41L62.8604 1485.54Z" fill="white"/>
<path d="M94.2906 1411.42L62.8604 1485.54L176.549 1526.41L94.2906 1411.42Z" fill="white"/>
<path d="M149.948 104.841L171.638 191.744L178.923 120.157L149.948 104.841Z" fill="white"/>
<path d="M84.6328 1373L94.2911 1411.42L186.208 1337.21L84.6328 1373Z" fill="white"/>
<path d="M60.4873 1311.65L84.6329 1373L186.208 1337.21L60.4873 1311.65Z" fill="#FEFEFE"/>
<path d="M120.892 1227.29L60.4873 1311.65L186.208 1337.21L120.892 1227.29Z" fill="#FEFEFE"/>
<path d="M116.063 595.708L108.778 728.724L186.208 736.341L116.063 595.708Z" fill="#FFFEFF"/>
<path d="M135.379 992.054L108.778 1122.45L188.582 1061.1L135.379 992.054Z" fill="white"/>
<path d="M38.7148 828.404L65.316 935.784L191.037 833.564L38.7148 828.404Z" fill="#FEFEFE"/>
<path d="M58.0313 777.295L38.7148 828.405L191.037 833.565L58.0313 777.295Z" fill="white"/>
<path d="M108.778 728.724L58.0312 777.295L191.037 833.565L108.778 728.724Z" fill="white"/>
<path d="M186.208 736.341L108.778 728.724L191.037 833.565L186.208 736.341Z" fill="white"/>
<path d="M65.3164 935.784L135.38 992.054L191.037 833.564L65.3164 935.784Z" fill="white"/>
<path d="M120.892 1227.29L186.208 1337.21L198.239 1280.94L120.892 1227.29Z" fill="white"/>
<path d="M94.291 1411.42L176.55 1526.41L198.24 1449.75L94.291 1411.42Z" fill="white"/>
<path d="M186.208 1337.21L94.291 1411.42L198.24 1449.75L186.208 1337.21Z" fill="white"/>
<path d="M176.549 1526.41L77.3477 1564.83L200.695 1567.37L176.549 1526.41Z" fill="white"/>
<path d="M77.3478 1564.83L0 1598L200.695 1567.37L77.3478 1564.83Z" fill="white"/>
<path d="M82.1768 48.5706L149.948 104.84L203.069 12.7773L82.1768 48.5706Z" fill="white"/>
<path d="M0 0L29.0566 25.5549L203.069 12.7774L0 0Z" fill="white"/>
<path d="M29.0566 25.5548L82.177 48.5706L203.069 12.7773L29.0566 25.5548Z" fill="#FEFEFE"/>
<path d="M116.062 595.708L186.208 736.342L210.353 575.313L116.062 595.708Z" fill="#FEFFFF"/>
<path d="M108.778 478.089L116.063 595.707L210.354 575.313L108.778 478.089Z" fill="#FAFEFF"/>
<path d="M149.948 104.841L178.923 120.157L217.638 58.8091L149.948 104.841Z" fill="white"/>
<path d="M203.069 12.7773L149.948 104.84L217.638 58.8089L203.069 12.7773Z" fill="white"/>
<path d="M178.923 120.157L171.639 191.744L220.012 230.076L178.923 120.157Z" fill="white"/>
<path d="M84.6328 327.299L164.436 416.742L220.012 230.076L84.6328 327.299Z" fill="white"/>
<path d="M171.639 191.744L84.6328 327.299L220.012 230.076L171.639 191.744Z" fill="#FCFEFD"/>
<path d="M120.892 1227.29L198.239 1280.94L236.954 1127.53L120.892 1227.29Z" fill="white"/>
<path d="M108.778 1122.45L120.892 1227.29L236.955 1127.53L108.778 1122.45Z" fill="white"/>
<path d="M188.582 1061.1L108.778 1122.45L236.955 1127.53L188.582 1061.1Z" fill="white"/>
<path d="M169.265 424.44L108.778 478.089L239.41 511.343L169.265 424.44Z" fill="#F9FDFE"/>
<path d="M108.778 478.089L210.354 575.313L239.41 511.343L108.778 478.089Z" fill="#D4F7F9"/>
<path d="M186.208 736.341L191.037 833.565L251.442 813.088L186.208 736.341Z" fill="#FFFDFE"/>
<path d="M251.442 813.088L191.037 833.565L251.442 884.674V813.088Z" fill="#FAFEFD"/>
<path d="M191.037 833.564L135.379 992.054L251.442 884.674L191.037 833.564Z" fill="white"/>
<path d="M198.24 1449.75L176.55 1526.41L263.556 1475.3L198.24 1449.75Z" fill="white"/>
<path d="M176.55 1526.41L200.695 1567.37L263.556 1475.3L176.55 1526.41Z" fill="white"/>
<path d="M186.208 1337.21L198.24 1449.75L270.84 1375.54L186.208 1337.21Z" fill="white"/>
<path d="M198.239 1449.75L263.555 1475.3L270.84 1375.54L198.239 1449.75Z" fill="white"/>
<path d="M164.436 416.742L169.265 424.441L275.669 306.823L164.436 416.742Z" fill="#FEFFFF"/>
<path d="M220.011 230.076L164.436 416.742L275.669 306.823L220.011 230.076Z" fill="#FDFDFD"/>
<path d="M217.638 58.8091L178.923 120.157L280.498 97.1414L217.638 58.8091Z" fill="white"/>
<path d="M178.923 120.157L220.011 230.076L280.498 97.1416L178.923 120.157Z" fill="white"/>
<path d="M239.41 511.344L210.354 575.313L280.499 603.407L239.41 511.344Z" fill="#FAFEFD"/>
<path d="M210.354 575.313L186.208 736.342L280.499 603.407L210.354 575.313Z" fill="#FDFDFD"/>
<path d="M186.208 736.341L251.442 813.088L280.499 603.407L186.208 736.341Z" fill="#FDFFFE"/>
<path d="M236.954 1127.53L198.239 1280.94L282.872 1219.59L236.954 1127.53Z" fill="white"/>
<path d="M263.556 1475.3L200.695 1567.37L294.986 1564.83L263.556 1475.3Z" fill="white"/>
<path d="M200.695 1567.37L0 1598L294.986 1564.83L200.695 1567.37Z" fill="#FEFEFE"/>
<path d="M282.872 1219.59L198.239 1280.94L299.815 1309.11L282.872 1219.59Z" fill="white"/>
<path d="M198.24 1280.94L186.208 1337.21L299.815 1309.12L198.24 1280.94Z" fill="white"/>
<path d="M186.208 1337.21L270.84 1375.54L299.815 1309.12L186.208 1337.21Z" fill="white"/>
<path d="M135.379 992.054L188.581 1061.1L302.27 989.515L135.379 992.054Z" fill="white"/>
<path d="M251.442 884.674L135.379 992.054L302.27 989.515L251.442 884.674Z" fill="#FEFEFE"/>
<path d="M188.581 1061.1L236.954 1127.53L302.27 989.515L188.581 1061.1Z" fill="white"/>
<path d="M220.012 230.076L275.669 306.823L309.473 176.427L220.012 230.076Z" fill="#FDFDFD"/>
<path d="M280.499 97.1416L220.012 230.076L309.473 176.427L280.499 97.1416Z" fill="white"/>
<path d="M280.498 603.407L251.441 813.088L316.757 833.565L280.498 603.407Z" fill="#E1F5F4"/>
<path d="M251.441 813.088V884.674L316.757 833.565L251.441 813.088Z" fill="white"/>
<path d="M251.441 884.674L302.27 989.515L316.757 833.564L251.441 884.674Z" fill="#FEFEFE"/>
<path d="M203.068 12.7773L217.638 58.8089L319.131 12.7773H203.068Z" fill="#FEFEFE"/>
<path d="M217.638 58.8089L280.498 97.1413L319.131 12.7773L217.638 58.8089Z" fill="#FEFEFE"/>
<path d="M275.669 306.823L169.265 424.441L357.846 426.98L275.669 306.823Z" fill="#FEFEFE"/>
<path d="M326.416 327.299L275.669 306.823L357.846 426.98L326.416 327.299Z" fill="#F9FAFC"/>
<path d="M169.265 424.44L239.41 511.343L357.846 426.98L169.265 424.44Z" fill="#F9FAFE"/>
<path d="M239.41 511.343L280.499 603.407L357.846 426.979L239.41 511.343Z" fill="#9DE8EB"/>
<path d="M280.498 97.1412L309.473 176.427L357.846 92.063L280.498 97.1412Z" fill="white"/>
<path d="M319.131 12.7773L280.498 97.1413L357.846 92.063L319.131 12.7773Z" fill="#FEFEFE"/>
<path d="M302.27 989.515L236.954 1127.53L360.301 1045.79L302.27 989.515Z" fill="white"/>
<path d="M309.473 176.427L275.669 306.823L362.675 235.236L309.473 176.427Z" fill="white"/>
<path d="M275.669 306.823L326.416 327.299L362.675 235.236L275.669 306.823Z" fill="white"/>
<path d="M263.556 1475.3L294.986 1564.83L365.131 1528.95L263.556 1475.3Z" fill="white"/>
<path d="M270.84 1375.54L263.556 1475.3L369.96 1431.81L270.84 1375.54Z" fill="white"/>
<path d="M263.556 1475.3L365.131 1528.95L369.96 1431.81L263.556 1475.3Z" fill="white"/>
<path d="M299.815 1309.12L270.84 1375.54L369.96 1431.81L299.815 1309.12Z" fill="white"/>
<path d="M236.954 1127.53L282.872 1219.59L372.333 1160.78L236.954 1127.53Z" fill="white"/>
<path d="M360.301 1045.79L236.954 1127.53L372.333 1160.78L360.301 1045.79Z" fill="white"/>
<path d="M369.96 1431.81L365.131 1528.95L386.903 1459.99L369.96 1431.81Z" fill="white"/>
<path d="M316.758 833.564L302.271 989.515L413.504 923.007L316.758 833.564Z" fill="white"/>
<path d="M302.271 989.515L360.302 1045.79L413.504 923.007L302.271 989.515Z" fill="white"/>
<path d="M326.416 327.299L357.846 426.98L425.536 373.331L326.416 327.299Z" fill="white"/>
<path d="M362.675 235.236L326.416 327.299L425.536 373.331L362.675 235.236Z" fill="#FEFEFE"/>
<path d="M299.815 1309.12L369.961 1431.81L425.536 1319.35L299.815 1309.12Z" fill="white"/>
<path d="M369.96 1431.81L386.903 1459.99L427.991 1416.49L369.96 1431.81Z" fill="white"/>
<path d="M425.536 1319.35L369.96 1431.81L427.991 1416.49L425.536 1319.35Z" fill="#FEFEFE"/>
<path d="M357.847 92.063L309.474 176.427L427.992 148.333L357.847 92.063Z" fill="white"/>
<path d="M309.474 176.427L362.676 235.236L427.992 148.333L309.474 176.427Z" fill="white"/>
<path d="M280.498 603.407L316.757 833.565L430.365 662.216L280.498 603.407Z" fill="#FBFFFF"/>
<path d="M299.815 1309.11L425.536 1319.35L440.106 1217.05L299.815 1309.11Z" fill="white"/>
<path d="M282.872 1219.59L299.815 1309.11L440.105 1217.05L282.872 1219.59Z" fill="white"/>
<path d="M372.334 1160.78L282.872 1219.59L440.105 1217.05L372.334 1160.78Z" fill="white"/>
<path d="M372.334 1160.78L440.105 1217.05V1211.97L372.334 1160.78Z" fill="white"/>
<path d="M316.758 833.565L413.504 923.007L444.934 761.978L316.758 833.565Z" fill="white"/>
<path d="M430.365 662.216L316.758 833.565L444.934 761.978L430.365 662.216Z" fill="#FEFEFE"/>
<path d="M357.847 92.063L427.992 148.333L471.536 81.8247L357.847 92.063Z" fill="white"/>
<path d="M444.934 761.978L413.504 923.007L481.194 876.975L444.934 761.978Z" fill="#FEFEFE"/>
<path d="M319.132 12.7774L357.847 92.0631L486.023 2.53906L319.132 12.7774Z" fill="white"/>
<path d="M357.847 92.0631L471.536 81.8248L486.023 2.53906L357.847 92.0631Z" fill="#FEFEFE"/>
<path d="M0 0L203.069 12.7774L486.023 2.53911L0 0Z" fill="white"/>
<path d="M203.068 12.7774H319.131L486.022 2.53906L203.068 12.7774Z" fill="#FEFEFE"/>
<path d="M357.846 426.979L280.498 603.407L486.022 562.535L357.846 426.979Z" fill="#FDFFFE"/>
<path d="M280.498 603.407L430.365 662.216L486.022 562.535L280.498 603.407Z" fill="#EAFAFA"/>
<path d="M425.536 373.331L357.847 426.979L486.023 485.788L425.536 373.331Z" fill="#E1F9F9"/>
<path d="M357.847 426.979L486.023 562.535V485.789L357.847 426.979Z" fill="#BCF3F0"/>
<path d="M440.105 1211.97V1217.05L488.397 1191.5L440.105 1211.97Z" fill="white"/>
<path d="M372.334 1160.78L440.105 1211.97L488.397 1191.5L372.334 1160.78Z" fill="white"/>
<path d="M440.105 1217.05L425.536 1319.35L488.397 1191.5L440.105 1217.05Z" fill="white"/>
<path d="M386.903 1459.99L365.131 1528.95L488.396 1459.99H386.903Z" fill="white"/>
<path d="M427.992 1416.49L386.903 1459.99H488.397L427.992 1416.49Z" fill="white"/>
<path d="M362.676 235.236L425.536 373.331L495.681 322.139L362.676 235.236Z" fill="white"/>
<path d="M427.992 148.333L362.676 235.236L500.51 214.759L427.992 148.333Z" fill="white"/>
<path d="M362.676 235.236L495.681 322.139L500.51 214.759L362.676 235.236Z" fill="#DCF4F4"/>
<path d="M471.535 81.8247L427.991 148.333L500.51 214.759L471.535 81.8247Z" fill="white"/>
<path d="M488.396 1459.99L365.131 1528.95L514.997 1518.8L488.396 1459.99Z" fill="white"/>
<path d="M488.397 1191.5L425.536 1319.35L522.282 1373L488.397 1191.5Z" fill="white"/>
<path d="M425.536 1319.35L427.992 1416.49L522.282 1373L425.536 1319.35Z" fill="white"/>
<path d="M427.991 1416.49L488.396 1459.99L522.282 1373L427.991 1416.49Z" fill="#FEFEFE"/>
<path d="M495.681 322.139L425.536 373.331L527.111 432.14L495.681 322.139Z" fill="#FFFEFF"/>
<path d="M425.536 373.331L486.023 485.788L527.111 432.14L425.536 373.331Z" fill="#A5EFF0"/>
<path d="M486.022 485.789L527.111 457.695V432.14L486.022 485.789Z" fill="#FDFFFE"/>
<path d="M372.334 1160.78L488.397 1191.5L531.941 1066.18L372.334 1160.78Z" fill="white"/>
<path d="M488.396 1191.5L529.567 1153.16L531.94 1066.18L488.396 1191.5Z" fill="white"/>
<path d="M360.302 1045.79L372.334 1160.78L531.94 1066.18L360.302 1045.79Z" fill="white"/>
<path d="M413.504 923.007L360.302 1045.79L531.94 1066.18L413.504 923.007Z" fill="white"/>
<path d="M486.022 485.789V562.535L544.054 577.852L486.022 485.789Z" fill="white"/>
<path d="M527.111 457.695L486.022 485.789L544.054 577.852L527.111 457.695Z" fill="#DBFAFC"/>
<path d="M481.194 876.975L413.504 923.007L544.054 920.468L481.194 876.975Z" fill="white"/>
<path d="M413.504 923.007L531.94 1066.18L544.054 920.468L413.504 923.007Z" fill="white"/>
<path d="M486.023 562.535L430.365 662.216L553.713 680.153L486.023 562.535Z" fill="#F8FCFD"/>
<path d="M544.054 577.852L486.022 562.535L553.712 680.153L544.054 577.852Z" fill="#EAFAFA"/>
<path d="M430.365 662.216L444.934 761.978L553.713 680.153L430.365 662.216Z" fill="white"/>
<path d="M495.681 322.139L527.111 432.14L558.541 342.616L495.681 322.139Z" fill="#F3FEFF"/>
<path d="M531.94 1066.18L529.566 1153.16L580.313 1127.53L531.94 1066.18Z" fill="white"/>
<path d="M580.313 1127.53L529.566 1153.16L587.598 1245.15L580.313 1127.53Z" fill="white"/>
<path d="M488.396 1191.5L522.282 1373L587.598 1245.15L488.396 1191.5Z" fill="white"/>
<path d="M529.567 1153.16L488.396 1191.5L587.598 1245.15L529.567 1153.16Z" fill="white"/>
<path d="M481.193 876.975L544.054 920.468L589.971 800.311L481.193 876.975Z" fill="white"/>
<path d="M444.935 761.978L481.194 876.975L589.972 800.31L444.935 761.978Z" fill="#F8FCFD"/>
<path d="M553.713 680.153L444.935 761.978L589.972 800.31L553.713 680.153Z" fill="#FAFCFB"/>
<path d="M500.51 214.759L495.681 322.139L592.427 235.236L500.51 214.759Z" fill="#FEFEFE"/>
<path d="M495.681 322.139L558.541 342.616L592.427 235.236L495.681 322.139Z" fill="white"/>
<path d="M488.396 1459.99L514.998 1518.8L592.427 1495.78L488.396 1459.99Z" fill="white"/>
<path d="M522.282 1373L488.396 1459.99L592.427 1495.78L522.282 1373Z" fill="white"/>
<path d="M587.598 1245.15L522.282 1373L604.459 1360.22L587.598 1245.15Z" fill="white"/>
<path d="M522.282 1373L592.427 1495.78L604.459 1360.22L522.282 1373Z" fill="white"/>
<path d="M531.94 1066.18L580.314 1127.53L606.915 1109.67L531.94 1066.18Z" fill="white"/>
<path d="M486.023 2.53906L471.535 81.8248L614.199 17.9375L486.023 2.53906Z" fill="white"/>
<path d="M614.199 17.9375L471.535 81.8247L616.573 132.935L614.199 17.9375Z" fill="#FEFEFE"/>
<path d="M471.535 81.8247L500.51 214.759L616.573 132.935L471.535 81.8247Z" fill="white"/>
<path d="M500.51 214.759L592.427 235.236L616.572 132.935L500.51 214.759Z" fill="#FDFFFE"/>
<path d="M544.054 920.468L531.94 1066.18L626.231 966.499L544.054 920.468Z" fill="white"/>
<path d="M531.94 1066.18L606.915 1109.67L626.231 966.499L531.94 1066.18Z" fill="white"/>
<path d="M580.313 1127.53L587.598 1245.15L633.516 1194.04L580.313 1127.53Z" fill="white"/>
<path d="M606.915 1109.67L580.313 1127.53L633.516 1194.04L606.915 1109.67Z" fill="white"/>
<path d="M589.971 800.311L544.054 920.468L635.889 851.42L589.971 800.311Z" fill="white"/>
<path d="M544.054 920.468L626.231 966.499L635.889 851.42L544.054 920.468Z" fill="white"/>
<path d="M527.111 457.695L544.054 577.852L638.345 513.965L527.111 457.695Z" fill="#EAF8FB"/>
<path d="M527.111 432.14V457.695L638.345 513.964L527.111 432.14Z" fill="white"/>
<path d="M587.598 1245.15L604.459 1360.22L640.8 1332.13L587.598 1245.15Z" fill="white"/>
<path d="M592.428 1495.78L514.998 1518.8L643.174 1587.76L592.428 1495.78Z" fill="white"/>
<path d="M365.131 1528.95L294.986 1564.83L643.174 1587.76L365.131 1528.95Z" fill="#FEFEFE"/>
<path d="M514.997 1518.8L365.131 1528.95L643.174 1587.76L514.997 1518.8Z" fill="white"/>
<path d="M294.986 1564.83L0 1598L643.174 1587.76L294.986 1564.83Z" fill="white"/>
<path d="M604.459 1360.22L592.427 1495.78L655.287 1396.02L604.459 1360.22Z" fill="white"/>
<path d="M640.8 1332.13L604.459 1360.22L655.288 1396.02L640.8 1332.13Z" fill="white"/>
<path d="M589.972 800.31L635.889 851.42L662.49 741.501L589.972 800.31Z" fill="white"/>
<path d="M553.712 680.153L589.971 800.31L662.49 741.501L553.712 680.153Z" fill="white"/>
<path d="M633.515 1194.04L587.598 1245.15L669.775 1237.53L633.515 1194.04Z" fill="white"/>
<path d="M587.598 1245.15L640.8 1332.13L669.775 1237.53L587.598 1245.15Z" fill="white"/>
<path d="M558.542 342.616L527.111 432.14L672.231 352.854L558.542 342.616Z" fill="#F2FCFB"/>
<path d="M527.111 432.14L638.345 513.965L672.231 352.854L527.111 432.14Z" fill="#F7FCFF"/>
<path d="M592.427 235.236L558.541 342.616L672.23 352.854L592.427 235.236Z" fill="white"/>
<path d="M635.89 851.42L626.231 966.499L684.263 882.135L635.89 851.42Z" fill="white"/>
<path d="M662.491 741.501L635.89 851.42L684.263 882.135L662.491 741.501Z" fill="white"/>
<path d="M592.427 1495.78L643.173 1587.76L689.091 1516.18L592.427 1495.78Z" fill="#FEFEFE"/>
<path d="M614.199 17.9375L616.573 132.935L693.921 17.9375H614.199Z" fill="white"/>
<path d="M486.022 2.53906L614.199 17.9375H693.92L486.022 2.53906Z" fill="white"/>
<path d="M553.712 680.153L662.49 741.501L693.92 565.074L553.712 680.153Z" fill="white"/>
<path d="M544.054 577.852L553.712 680.153L693.92 565.074L544.054 577.852Z" fill="#FFFEFF"/>
<path d="M638.344 513.965L544.054 577.852L693.92 565.075L638.344 513.965Z" fill="white"/>
<path d="M655.287 1396.02L592.427 1495.78L698.831 1421.57L655.287 1396.02Z" fill="white"/>
<path d="M592.427 1495.78L689.091 1516.18L698.831 1421.57L592.427 1495.78Z" fill="white"/>
<path d="M640.801 1332.13L655.288 1396.02L698.832 1421.57L640.801 1332.13Z" fill="white"/>
<path d="M606.914 1109.67L633.515 1194.04L701.205 1137.77L606.914 1109.67Z" fill="white"/>
<path d="M633.516 1194.04L669.775 1237.53L701.205 1137.77L633.516 1194.04Z" fill="white"/>
<path d="M626.231 966.499L606.914 1109.67L708.489 963.96L626.231 966.499Z" fill="white"/>
<path d="M684.263 882.135L626.231 966.499L708.49 963.96L684.263 882.135Z" fill="white"/>
<path d="M592.427 235.236L672.23 352.854L727.806 263.33L592.427 235.236Z" fill="#FEFEFE"/>
<path d="M672.23 352.854L638.345 513.965L735.091 437.218L672.23 352.854Z" fill="#F4FDFC"/>
<path d="M638.345 513.964L693.921 565.074L735.091 437.218L638.345 513.964Z" fill="#FCFEFD"/>
<path d="M727.806 263.33L672.23 352.854L744.749 314.522L727.806 263.33Z" fill="#D9F6F4"/>
<path d="M672.23 352.854L735.091 437.218L744.749 314.522L672.23 352.854Z" fill="#F8FCFD"/>
<path d="M693.921 17.9375L616.573 132.935L747.123 125.317L693.921 17.9375Z" fill="white"/>
<path d="M747.123 125.317L616.573 132.935L747.123 212.22V125.317Z" fill="white"/>
<path d="M727.807 263.33L744.75 314.522L747.123 212.22L727.807 263.33Z" fill="#FDFDFD"/>
<path d="M616.572 132.935L592.427 235.236L747.122 212.22L616.572 132.935Z" fill="white"/>
<path d="M592.427 235.236L727.806 263.33L747.122 212.22L592.427 235.236Z" fill="white"/>
<path d="M693.92 565.074L662.49 741.501L761.692 667.376L693.92 565.074Z" fill="#FCFEFD"/>
<path d="M606.914 1109.67L701.205 1137.77L761.692 1045.79L606.914 1109.67Z" fill="white"/>
<path d="M708.489 963.96L606.914 1109.67L761.692 1045.78L708.489 963.96Z" fill="white"/>
<path d="M735.091 437.218L693.921 565.074L764.066 536.898L735.091 437.218Z" fill="#E9F7F8"/>
<path d="M693.921 565.074L761.692 667.376L764.066 536.898L693.921 565.074Z" fill="#FCFEFD"/>
<path d="M698.832 1421.57L689.092 1516.18L768.895 1493.16L698.832 1421.57Z" fill="white"/>
<path d="M701.206 1137.77L669.775 1237.53L773.724 1265.62L701.206 1137.77Z" fill="white"/>
<path d="M669.776 1237.53L640.801 1332.13L773.724 1265.62L669.776 1237.53Z" fill="white"/>
<path d="M689.091 1516.18L643.174 1587.76L781.009 1569.91L689.091 1516.18Z" fill="white"/>
<path d="M768.895 1493.16L689.092 1516.17L781.009 1569.91L768.895 1493.16Z" fill="white"/>
<path d="M662.49 741.501L684.262 882.135L790.667 836.104L662.49 741.501Z" fill="#FDFDFD"/>
<path d="M684.263 882.135L708.49 963.96L790.667 836.104L684.263 882.135Z" fill="white"/>
<path d="M744.749 314.522L735.091 437.218L797.951 432.14L744.749 314.522Z" fill="white"/>
<path d="M735.091 437.218L764.066 536.898L797.951 432.14L735.091 437.218Z" fill="#DFF5F3"/>
<path d="M640.801 1332.13L698.832 1421.57L797.952 1337.21L640.801 1332.13Z" fill="white"/>
<path d="M773.724 1265.62L640.801 1332.13L797.952 1337.21L773.724 1265.62Z" fill="white"/>
<path d="M698.832 1421.57L768.895 1493.16L797.952 1337.21L698.832 1421.57Z" fill="white"/>
<path d="M761.692 667.376L662.49 741.502L805.154 761.978L761.692 667.376Z" fill="#FEFEFE"/>
<path d="M662.49 741.501L790.667 836.104L805.154 761.978L662.49 741.501Z" fill="#FCFCFC"/>
<path d="M761.692 1045.79L701.205 1137.77L829.381 1132.69L761.692 1045.79Z" fill="white"/>
<path d="M701.205 1137.77L773.724 1265.62L829.381 1132.69L701.205 1137.77Z" fill="white"/>
<path d="M693.921 17.9375L747.123 125.317L848.698 63.8872L693.921 17.9375Z" fill="white"/>
<path d="M797.951 1337.21L768.895 1493.16L855.982 1416.49L797.951 1337.21Z" fill="white"/>
<path d="M797.951 432.14L764.065 536.898L858.356 593.168L797.951 432.14Z" fill="#AFEDEA"/>
<path d="M764.066 536.898L761.692 667.376L858.357 593.168L764.066 536.898Z" fill="white"/>
<path d="M805.154 761.978L790.667 836.104L865.641 866.737L805.154 761.978Z" fill="white"/>
<path d="M790.667 836.104L708.49 963.96L865.641 866.737L790.667 836.104Z" fill="white"/>
<path d="M768.895 1493.16L781.008 1569.91L872.925 1587.76L768.895 1493.16Z" fill="white"/>
<path d="M855.982 1416.49L768.895 1493.16L872.925 1587.76L855.982 1416.49Z" fill="white"/>
<path d="M781.009 1569.91L643.174 1587.76H872.926L781.009 1569.91Z" fill="white"/>
<path d="M708.49 963.96L761.692 1045.78L875.3 1012.53L708.49 963.96Z" fill="white"/>
<path d="M865.641 866.737L708.49 963.96L875.3 1012.53L865.641 866.737Z" fill="white"/>
<path d="M761.692 1045.78L829.382 1132.69L875.3 1012.53L761.692 1045.78Z" fill="white"/>
<path d="M744.749 314.522L797.951 432.14L877.755 329.839L744.749 314.522Z" fill="#C5ECEB"/>
<path d="M747.123 212.22L744.749 314.522L877.755 329.838L747.123 212.22Z" fill="#FDFDFD"/>
<path d="M805.154 761.978L865.641 866.737L884.958 746.58L805.154 761.978Z" fill="#FEFEFE"/>
<path d="M761.692 667.376L805.155 761.978L884.958 746.58L761.692 667.376Z" fill="white"/>
<path d="M858.357 593.168L761.692 667.376L884.958 746.58L858.357 593.168Z" fill="white"/>
<path d="M797.951 432.14L858.356 593.168L887.413 432.14H797.951Z" fill="#CAECED"/>
<path d="M877.755 329.838L797.951 432.14H887.413L877.755 329.838Z" fill="white"/>
<path d="M747.123 212.22L877.755 329.839L889.787 176.427L747.123 212.22Z" fill="#FDFFFE"/>
<path d="M747.123 125.317V212.22L889.787 176.427L747.123 125.317Z" fill="#F9FDFE"/>
<path d="M848.698 63.8872L747.123 125.317L889.787 176.427L848.698 63.8872Z" fill="white"/>
<path d="M486.022 2.53911L693.92 17.9376L899.445 0L486.022 2.53911Z" fill="#FEFEFE"/>
<path d="M693.921 17.9376L848.698 63.8872L899.445 0L693.921 17.9376Z" fill="#FEFEFE"/>
<path d="M848.698 63.8872L899.445 5.07822V0L848.698 63.8872Z" fill="white"/>
<path d="M797.951 1337.21L855.983 1416.49L904.356 1252.85L797.951 1337.21Z" fill="white"/>
<path d="M773.724 1265.62L797.951 1337.21L904.356 1252.85L773.724 1265.62Z" fill="white"/>
<path d="M829.381 1132.69L773.724 1265.62L904.356 1252.85L829.381 1132.69Z" fill="white"/>
<path d="M884.957 746.58L865.641 866.737L918.843 874.436L884.957 746.58Z" fill="white"/>
<path d="M865.641 866.737L875.299 1012.53L921.217 897.452L865.641 866.737Z" fill="white"/>
<path d="M918.843 874.436L865.641 866.737L921.217 897.452L918.843 874.436Z" fill="#FEFEFE"/>
<path d="M858.356 593.168L884.958 746.58L923.672 674.993L858.356 593.168Z" fill="#FCFEFD"/>
<path d="M887.413 432.14L858.356 593.168L926.046 501.105L887.413 432.14Z" fill="#FDFFFE"/>
<path d="M858.356 593.169L923.672 674.993L926.046 501.105L858.356 593.169Z" fill="#F6F7F9"/>
<path d="M899.445 0V5.07822L933.331 23.0158L899.445 0Z" fill="white"/>
<path d="M899.445 5.07812L848.698 63.8872L933.331 23.0157L899.445 5.07812Z" fill="#FEFEFE"/>
<path d="M918.844 874.436L921.217 897.452L940.616 917.928L918.844 874.436Z" fill="white"/>
<path d="M921.217 897.452L875.3 1012.53L940.616 917.928L921.217 897.452Z" fill="white"/>
<path d="M855.982 1416.49L872.925 1587.76L940.615 1493.16L855.982 1416.49Z" fill="white"/>
<path d="M848.698 63.8874L889.787 176.427L950.274 38.3325L848.698 63.8874Z" fill="white"/>
<path d="M933.331 23.0156L848.698 63.8871L950.274 38.3322L933.331 23.0156Z" fill="white"/>
<path d="M875.299 1012.53L829.382 1132.69L964.761 1124.99L875.299 1012.53Z" fill="white"/>
<path d="M829.382 1132.69L904.356 1252.85L964.761 1124.99L829.382 1132.69Z" fill="white"/>
<path d="M940.615 1493.16L872.926 1587.76L974.419 1523.87L940.615 1493.16Z" fill="white"/>
<path d="M877.755 329.838L887.413 432.14L981.704 334.917L877.755 329.838Z" fill="#FBFDFC"/>
<path d="M904.355 1252.85L855.982 1416.49L984.077 1347.45L904.355 1252.85Z" fill="white"/>
<path d="M887.413 432.14L926.046 501.105L988.988 506.265L887.413 432.14Z" fill="#F4FAFA"/>
<path d="M981.704 334.917L887.413 432.14L988.988 506.265L981.704 334.917Z" fill="#E2F5F3"/>
<path d="M926.047 501.105L923.673 674.993L988.989 506.266L926.047 501.105Z" fill="#F6FCFC"/>
<path d="M889.787 176.427L877.755 329.839L991.362 230.076L889.787 176.427Z" fill="#F5FBFB"/>
<path d="M877.755 329.839L981.704 334.917L991.362 230.076L877.755 329.839Z" fill="white"/>
<path d="M875.3 1012.53L964.761 1124.99L996.192 1086.66L875.3 1012.53Z" fill="white"/>
<path d="M855.982 1416.49L940.615 1493.16L996.191 1454.83L855.982 1416.49Z" fill="white"/>
<path d="M984.077 1347.45L855.982 1416.49L996.191 1454.83L984.077 1347.45Z" fill="white"/>
<path d="M940.615 1493.16L974.419 1523.87L996.191 1454.83L940.615 1493.16Z" fill="white"/>
<path d="M950.274 38.3325L889.787 176.427L1008.31 76.6649L950.274 38.3325Z" fill="#FEFEFE"/>
<path d="M988.989 506.266L923.673 674.993L1013.13 664.755L988.989 506.266Z" fill="#F4FAF8"/>
<path d="M991.362 230.076L981.704 334.917L1013.13 304.284L991.362 230.076Z" fill="white"/>
<path d="M923.672 674.993L884.957 746.58L1022.79 759.357L923.672 674.993Z" fill="white"/>
<path d="M1013.13 664.755L923.673 674.993L1022.79 759.357L1013.13 664.755Z" fill="#F0F4F5"/>
<path d="M884.957 746.58L918.843 874.436L1022.79 759.357L884.957 746.58Z" fill="white"/>
<path d="M918.844 874.436L940.616 917.929L1022.79 759.357L918.844 874.436Z" fill="#FCFEFD"/>
<path d="M940.616 917.929L875.3 1012.53L1027.62 961.339L940.616 917.929Z" fill="white"/>
<path d="M875.3 1012.53L996.192 1086.66L1027.62 961.339L875.3 1012.53Z" fill="white"/>
<path d="M889.787 176.427L991.362 230.076L1030.08 122.696L889.787 176.427Z" fill="white"/>
<path d="M1008.31 76.6646L889.787 176.427L1030.08 122.696L1008.31 76.6646Z" fill="#FEFEFE"/>
<path d="M991.362 230.076L1013.13 304.284L1042.11 186.666L991.362 230.076Z" fill="#FEFEFE"/>
<path d="M1030.08 122.696L991.362 230.076L1042.11 186.665L1030.08 122.696Z" fill="#F9FDFE"/>
<path d="M996.191 1086.66L964.761 1124.99L1049.39 1142.93L996.191 1086.66Z" fill="white"/>
<path d="M964.76 1124.99L904.355 1252.85L1049.39 1142.93L964.76 1124.99Z" fill="white"/>
<path d="M904.355 1252.85L984.077 1347.45L1049.39 1142.93L904.355 1252.85Z" fill="white"/>
<path d="M974.419 1523.87L872.926 1587.76L1063.88 1572.45L974.419 1523.87Z" fill="white"/>
<path d="M1049.39 1142.93L984.077 1347.45L1066.34 1357.69L1049.39 1142.93Z" fill="white"/>
<path d="M984.077 1347.45L996.191 1454.83L1066.34 1357.69L984.077 1347.45Z" fill="white"/>
<path d="M1030.08 122.696L1042.11 186.665L1083.28 171.349L1030.08 122.696Z" fill="white"/>
<path d="M1027.62 961.339L996.191 1086.66H1088.11L1027.62 961.339Z" fill="white"/>
<path d="M996.191 1086.66L1049.39 1142.93L1088.11 1086.66H996.191Z" fill="white"/>
<path d="M1066.34 1357.69L996.191 1454.83L1088.11 1495.78L1066.34 1357.69Z" fill="white"/>
<path d="M996.191 1454.83L974.419 1523.87L1088.11 1495.78L996.191 1454.83Z" fill="white"/>
<path d="M974.419 1523.87L1063.88 1572.45L1088.11 1495.78L974.419 1523.87Z" fill="white"/>
<path d="M981.704 334.917L988.989 506.265L1090.48 434.679L981.704 334.917Z" fill="#F7FBFA"/>
<path d="M1013.13 304.283L981.704 334.916L1090.48 434.679L1013.13 304.283Z" fill="#FEFEFE"/>
<path d="M940.615 917.929L1027.62 961.339L1102.6 851.42L940.615 917.929Z" fill="white"/>
<path d="M1022.79 759.357L940.615 917.929L1102.6 851.421L1022.79 759.357Z" fill="#FEFEFE"/>
<path d="M1097.77 807.928L1022.79 759.357L1102.6 851.421L1097.77 807.928Z" fill="#FCFEFD"/>
<path d="M933.331 23.0157L950.274 38.3323L1102.6 2.53906L933.331 23.0157Z" fill="white"/>
<path d="M950.273 38.3323L1008.3 76.6646L1102.6 2.53906L950.273 38.3323Z" fill="white"/>
<path d="M899.445 0L933.331 23.0158L1102.6 2.53911L899.445 0Z" fill="#FEFEFE"/>
<path d="M1030.08 122.696L1083.28 171.349L1107.42 112.54L1030.08 122.696Z" fill="#FEFEFE"/>
<path d="M1008.3 76.6646L1030.08 122.696L1107.42 112.54L1008.3 76.6646Z" fill="white"/>
<path d="M1102.6 2.53906L1008.3 76.6646L1107.42 112.54L1102.6 2.53906Z" fill="white"/>
<path d="M1013.13 304.283L1090.48 434.679L1117.08 288.885L1013.13 304.283Z" fill="#FEFEFE"/>
<path d="M1042.11 186.666L1013.13 304.284L1117.08 288.885L1042.11 186.666Z" fill="white"/>
<path d="M1083.28 171.349L1042.11 186.665L1117.08 288.885L1083.28 171.349Z" fill="white"/>
<path d="M1088.11 1495.78L1063.88 1572.45L1119.54 1554.59L1088.11 1495.78Z" fill="white"/>
<path d="M1102.6 2.53906L1107.42 112.54L1136.48 46.0315L1102.6 2.53906Z" fill="white"/>
<path d="M1013.13 664.755L1022.79 759.357L1138.85 692.931L1013.13 664.755Z" fill="#FCFEFD"/>
<path d="M1022.79 759.357L1097.77 807.928L1138.85 692.931L1022.79 759.357Z" fill="#FBFDFC"/>
<path d="M1027.62 961.339L1088.11 1086.66L1143.68 953.722L1027.62 961.339Z" fill="white"/>
<path d="M1102.6 851.42L1027.62 961.339L1143.68 953.722L1102.6 851.42Z" fill="#FEFEFE"/>
<path d="M1090.48 434.679L988.988 506.265L1146.14 567.613L1090.48 434.679Z" fill="#F9FBFA"/>
<path d="M988.988 506.266L1013.13 664.755L1146.14 567.614L988.988 506.266Z" fill="#FDFFFE"/>
<path d="M1013.13 664.755L1138.85 692.931L1146.14 567.613L1013.13 664.755Z" fill="#F1FAF9"/>
<path d="M1090.48 434.679L1146.14 567.613L1153.34 457.694L1090.48 434.679Z" fill="#F2FBF8"/>
<path d="M1102.6 851.42L1143.68 953.722L1155.8 902.53L1102.6 851.42Z" fill="white"/>
<path d="M1066.34 1357.69L1088.11 1495.78L1158.17 1411.42L1066.34 1357.69Z" fill="white"/>
<path d="M1088.11 1495.78L1119.54 1554.59L1160.63 1442.05L1088.11 1495.78Z" fill="white"/>
<path d="M1158.17 1411.42L1088.11 1495.78L1160.63 1442.05L1158.17 1411.42Z" fill="white"/>
<path d="M1160.63 1442.05L1119.54 1554.59L1160.63 1562.21V1442.05Z" fill="white"/>
<path d="M1119.54 1554.59L1063.88 1572.45L1160.63 1562.21L1119.54 1554.59Z" fill="white"/>
<path d="M1143.68 953.722L1088.11 1086.66L1165.46 1043.16L1143.68 953.722Z" fill="white"/>
<path d="M1088.11 1086.66L1049.39 1142.93L1177.57 1232.37L1088.11 1086.66Z" fill="white"/>
<path d="M1049.39 1142.93L1066.34 1357.69L1177.57 1232.37L1049.39 1142.93Z" fill="white"/>
<path d="M1066.34 1357.69L1158.17 1411.42L1179.94 1332.13L1066.34 1357.69Z" fill="white"/>
<path d="M1177.57 1232.37L1066.34 1357.69L1179.94 1332.13L1177.57 1232.37Z" fill="white"/>
<path d="M1117.08 288.885L1090.48 434.679L1182.4 368.17L1117.08 288.885Z" fill="#FCFCFC"/>
<path d="M1090.48 434.679L1153.34 457.695L1182.4 368.171L1090.48 434.679Z" fill="#EDF6F5"/>
<path d="M1107.42 112.54L1083.28 171.349L1204.17 227.537L1107.42 112.54Z" fill="white"/>
<path d="M1083.28 171.349L1117.08 288.885L1204.17 227.537L1083.28 171.349Z" fill="white"/>
<path d="M1102.6 2.53906L1136.48 46.0315L1206.54 2.53906H1102.6Z" fill="#FEFEFE"/>
<path d="M1117.08 288.885L1182.4 368.17L1209 329.838L1117.08 288.885Z" fill="white"/>
<path d="M1204.17 227.537L1117.08 288.885L1209 329.838L1204.17 227.537Z" fill="#FEFEFE"/>
<path d="M1206.54 2.53906L1136.48 46.0315L1211.37 7.69919L1206.54 2.53906Z" fill="white"/>
<path d="M1165.46 1043.16L1088.11 1086.66L1225.94 1124.99L1165.46 1043.16Z" fill="white"/>
<path d="M1088.11 1086.66L1177.57 1232.37L1225.94 1124.99L1088.11 1086.66Z" fill="white"/>
<path d="M1097.77 807.928L1102.6 851.42L1230.77 853.959L1097.77 807.928Z" fill="white"/>
<path d="M1102.6 851.42L1155.8 902.53L1230.77 853.959L1102.6 851.42Z" fill="#FCFEFD"/>
<path d="M1160.63 1562.21L1063.88 1572.45L1250.09 1590.38L1160.63 1562.21Z" fill="white"/>
<path d="M1063.88 1572.45L872.926 1587.76L1250.09 1590.38L1063.88 1572.45Z" fill="white"/>
<path d="M1138.86 692.931L1097.77 807.928L1250.09 761.978L1138.86 692.931Z" fill="#F5F9F8"/>
<path d="M1097.77 807.928L1230.77 853.959L1250.09 761.978L1097.77 807.928Z" fill="#F5FBF9"/>
<path d="M1160.63 1562.21L1250.09 1590.38L1252.54 1574.98L1160.63 1562.21Z" fill="white"/>
<path d="M1211.37 7.69922L1136.48 46.0316L1257.37 89.524L1211.37 7.69922Z" fill="white"/>
<path d="M1136.48 46.0317L1107.42 112.54L1257.37 89.5242L1136.48 46.0317Z" fill="white"/>
<path d="M1107.42 112.54L1204.17 227.537L1257.37 89.5239L1107.42 112.54Z" fill="white"/>
<path d="M1160.63 1442.05V1562.21L1264.58 1493.16L1160.63 1442.05Z" fill="white"/>
<path d="M1160.63 1562.21L1252.54 1574.98L1264.58 1493.16L1160.63 1562.21Z" fill="white"/>
<path d="M1177.57 1232.37L1179.94 1332.13L1269.41 1339.75L1177.57 1232.37Z" fill="white"/>
<path d="M1153.34 457.695L1146.14 567.614L1271.86 470.472L1153.34 457.695Z" fill="#F9FBFA"/>
<path d="M1182.4 368.171L1153.34 457.695L1271.86 470.472L1182.4 368.171Z" fill="#FEFEFE"/>
<path d="M1209 329.838L1182.4 368.171L1271.86 470.472L1209 329.838Z" fill="white"/>
<path d="M1143.68 953.722L1165.46 1043.16L1279.14 1015.07L1143.68 953.722Z" fill="white"/>
<path d="M1155.8 902.53L1143.68 953.722L1279.14 1015.07L1155.8 902.53Z" fill="white"/>
<path d="M1165.46 1043.16L1225.94 1124.99L1279.15 1015.07L1165.46 1043.16Z" fill="white"/>
<path d="M1179.94 1332.13L1158.17 1411.42L1279.15 1375.54L1179.94 1332.13Z" fill="white"/>
<path d="M1269.4 1339.75L1179.94 1332.13L1279.15 1375.54L1269.4 1339.75Z" fill="white"/>
<path d="M1209 329.838L1271.86 470.472L1281.52 281.268L1209 329.838Z" fill="white"/>
<path d="M1204.17 227.537L1209 329.838L1281.52 281.267L1204.17 227.537Z" fill="white"/>
<path d="M1160.63 1442.05L1264.58 1493.16L1281.52 1434.35L1160.63 1442.05Z" fill="white"/>
<path d="M1158.17 1411.42L1160.63 1442.05L1281.52 1434.35L1158.17 1411.42Z" fill="white"/>
<path d="M1279.15 1375.54L1158.17 1411.42L1281.52 1434.35L1279.15 1375.54Z" fill="white"/>
<path d="M1146.14 567.613L1138.86 692.931L1291.18 598.328L1146.14 567.613Z" fill="#FEFFFF"/>
<path d="M1138.86 692.931L1250.09 761.978L1291.18 598.329L1138.86 692.931Z" fill="#FCFEFD"/>
<path d="M1257.37 89.5239L1204.17 227.537L1291.18 217.298L1257.37 89.5239Z" fill="white"/>
<path d="M1204.17 227.537L1281.52 281.267L1291.18 217.298L1204.17 227.537Z" fill="white"/>
<path d="M1271.86 470.472L1146.14 567.614L1296.01 521.582L1271.86 470.472Z" fill="white"/>
<path d="M1146.14 567.614L1291.18 598.329L1296.01 521.582L1146.14 567.614Z" fill="#F9FDFC"/>
<path d="M1177.57 1232.37L1269.41 1339.75L1305.66 1260.54L1177.57 1232.37Z" fill="white"/>
<path d="M1230.77 853.959L1155.8 902.53L1310.58 961.339L1230.77 853.959Z" fill="white"/>
<path d="M1155.8 902.53L1279.15 1015.07L1310.58 961.339L1155.8 902.53Z" fill="white"/>
<path d="M1264.58 1493.16L1252.54 1574.98L1317.78 1526.41L1264.58 1493.16Z" fill="white"/>
<path d="M1281.52 1434.35L1264.58 1493.16L1317.78 1526.41L1281.52 1434.35Z" fill="white"/>
<path d="M1225.94 1124.99L1177.57 1232.37L1320.23 1186.34L1225.94 1124.99Z" fill="white"/>
<path d="M1177.57 1232.37L1305.66 1260.54L1320.23 1186.34L1177.57 1232.37Z" fill="white"/>
<path d="M1310.58 961.339L1279.15 1015.07L1329.89 1004.83L1310.58 961.339Z" fill="white"/>
<path d="M1291.18 598.329L1250.09 761.978L1342.01 705.708L1291.18 598.329Z" fill="#FEFEFE"/>
<path d="M1279.15 1375.54L1281.52 1434.35L1342.01 1390.94L1279.15 1375.54Z" fill="#FEFEFE"/>
<path d="M1269.41 1339.75L1279.15 1375.54L1342.01 1390.94L1269.41 1339.75Z" fill="#FEFEFE"/>
<path d="M1329.89 1004.83L1279.15 1015.07L1346.83 1163.4L1329.89 1004.83Z" fill="white"/>
<path d="M1279.15 1015.07L1225.94 1124.99L1346.83 1163.4L1279.15 1015.07Z" fill="white"/>
<path d="M1225.94 1124.99L1320.23 1186.34L1346.83 1163.4L1225.94 1124.99Z" fill="white"/>
<path d="M1252.54 1574.98L1250.09 1590.38L1349.21 1554.59L1252.54 1574.98Z" fill="#FEFEFE"/>
<path d="M1317.78 1526.41L1252.54 1574.98L1349.21 1554.59L1317.78 1526.41Z" fill="white"/>
<path d="M1291.18 217.298L1281.52 281.268L1351.66 194.283L1291.18 217.298Z" fill="#FEFEFE"/>
<path d="M1257.37 89.5239L1291.18 217.298L1351.66 194.283L1257.37 89.5239Z" fill="white"/>
<path d="M1317.78 1526.41L1349.21 1554.59L1356.49 1506.02L1317.78 1526.41Z" fill="#FEFEFE"/>
<path d="M1281.52 1434.35L1317.78 1526.41L1356.49 1506.02L1281.52 1434.35Z" fill="white"/>
<path d="M1342.01 1390.94L1281.52 1434.35L1356.49 1506.02L1342.01 1390.94Z" fill="#FBFBFB"/>
<path d="M1230.77 853.959L1310.57 961.339L1363.7 866.737L1230.77 853.959Z" fill="white"/>
<path d="M1346.83 1163.4L1320.23 1186.34L1366.15 1171.02L1346.83 1163.4Z" fill="white"/>
<path d="M1291.18 598.329L1342.01 705.708L1373.44 690.31L1291.18 598.329Z" fill="#F3FCF9"/>
<path d="M1373.44 690.31L1342.01 705.708L1373.44 818.166V690.31Z" fill="#FEFEFE"/>
<path d="M1342.01 705.708L1250.09 761.978L1373.44 818.166L1342.01 705.708Z" fill="#FEFEFE"/>
<path d="M1250.09 761.978L1230.77 853.959L1373.44 818.166L1250.09 761.978Z" fill="white"/>
<path d="M1230.77 853.959L1363.7 866.737L1373.44 818.166L1230.77 853.959Z" fill="white"/>
<path d="M1320.23 1186.34L1305.66 1260.54L1375.81 1252.85L1320.23 1186.34Z" fill="white"/>
<path d="M1366.15 1171.02L1320.23 1186.34L1375.81 1252.85L1366.15 1171.02Z" fill="white"/>
<path d="M1211.37 7.69914L1257.37 89.524L1380.64 5.07812L1211.37 7.69914Z" fill="white"/>
<path d="M1206.54 2.53906L1211.37 7.69918L1380.64 5.07817L1206.54 2.53906Z" fill="white"/>
<path d="M1375.81 1252.85L1305.66 1260.54L1383.09 1344.91L1375.81 1252.85Z" fill="white"/>
<path d="M1305.66 1260.54L1269.41 1339.75L1383.09 1344.91L1305.66 1260.54Z" fill="white"/>
<path d="M1269.41 1339.75L1342.01 1390.94L1383.09 1344.91L1269.41 1339.75Z" fill="white"/>
<path d="M1281.52 281.268L1271.86 470.472L1400.04 357.932L1281.52 281.268Z" fill="white"/>
<path d="M1351.66 194.283L1281.52 281.268L1400.04 357.932L1351.66 194.283Z" fill="#FEFEFE"/>
<path d="M1257.37 89.5239L1351.66 194.283L1404.87 122.696L1257.37 89.5239Z" fill="white"/>
<path d="M1380.64 5.07812L1257.37 89.524L1404.87 122.696L1380.64 5.07812Z" fill="white"/>
<path d="M1310.58 961.339L1329.89 1004.83L1407.24 984.355L1310.58 961.339Z" fill="white"/>
<path d="M1363.7 866.737L1310.58 961.339L1407.24 984.355L1363.7 866.737Z" fill="#FCFEFD"/>
<path d="M1342.01 1390.94L1356.49 1506.02L1407.24 1462.53L1342.01 1390.94Z" fill="white"/>
<path d="M1383.09 1344.91L1342.01 1390.94L1407.24 1462.53L1383.09 1344.91Z" fill="#FEFEFE"/>
<path d="M1296.01 521.582L1291.18 598.329L1409.69 539.52L1296.01 521.582Z" fill="white"/>
<path d="M1407.24 984.355L1329.89 1004.83L1412.07 1055.94L1407.24 984.355Z" fill="white"/>
<path d="M1329.89 1004.83L1346.83 1163.4L1412.07 1055.94L1329.89 1004.83Z" fill="white"/>
<path d="M1356.49 1506.02L1349.21 1554.59L1412.07 1549.43L1356.49 1506.02Z" fill="#FDFDFD"/>
<path d="M1407.24 1462.53L1356.49 1506.02L1412.07 1549.43L1407.24 1462.53Z" fill="#FEFEFE"/>
<path d="M1291.18 598.329L1373.44 690.31L1416.9 598.329H1291.18Z" fill="#FAFEFD"/>
<path d="M1409.69 539.52L1291.18 598.329H1416.9L1409.69 539.52Z" fill="white"/>
<path d="M1400.04 357.932L1271.86 470.472L1419.35 501.105L1400.04 357.932Z" fill="white"/>
<path d="M1271.86 470.472L1296.01 521.582L1419.35 501.105L1271.86 470.472Z" fill="#FCFEFD"/>
<path d="M1296.01 521.582L1409.69 539.52L1419.35 501.105L1296.01 521.582Z" fill="white"/>
<path d="M1346.83 1163.4L1366.15 1171.02L1419.35 1132.69L1346.83 1163.4Z" fill="white"/>
<path d="M1412.07 1055.94L1346.83 1163.4L1419.35 1132.69L1412.07 1055.94Z" fill="#FEFEFE"/>
<path d="M1366.15 1171.02L1375.81 1252.84L1443.5 1148L1366.15 1171.02Z" fill="#FFFDFE"/>
<path d="M1419.35 1132.69L1366.15 1171.02L1443.5 1148L1419.35 1132.69Z" fill="#FEFEFE"/>
<path d="M1412.07 1055.94L1419.35 1132.69L1443.5 1148L1412.07 1055.94Z" fill="white"/>
<path d="M1373.44 690.31V818.166L1465.27 726.103L1373.44 690.31Z" fill="white"/>
<path d="M1416.9 598.329L1373.44 690.31L1465.27 726.103L1416.9 598.329Z" fill="white"/>
<path d="M1375.81 1252.85L1383.09 1344.91L1472.56 1293.8L1375.81 1252.85Z" fill="white"/>
<path d="M1383.09 1344.91L1407.24 1462.53L1479.76 1375.54L1383.09 1344.91Z" fill="white"/>
<path d="M1472.56 1293.8L1383.09 1344.91L1479.76 1375.54L1472.56 1293.8Z" fill="white"/>
<path d="M1465.27 726.103L1373.44 818.166L1482.21 774.756L1465.27 726.103Z" fill="#FDFFFE"/>
<path d="M1407.24 1462.53L1412.07 1549.43L1487.04 1462.53H1407.24Z" fill="#FEFEFE"/>
<path d="M1479.76 1375.54L1407.24 1462.53H1487.04L1479.76 1375.54Z" fill="#FEFEFE"/>
<path d="M1380.64 5.07812L1404.87 122.696L1491.87 30.7149L1380.64 5.07812Z" fill="white"/>
<path d="M1443.5 1148L1375.81 1252.84L1501.53 1258.01L1443.5 1148Z" fill="#FEFEFE"/>
<path d="M1375.81 1252.85L1472.56 1293.8L1501.53 1258.01L1375.81 1252.85Z" fill="white"/>
<path d="M1487.04 1462.53L1412.07 1549.43L1511.27 1574.98L1487.04 1462.53Z" fill="white"/>
<path d="M1349.21 1554.59L1250.09 1590.38L1511.27 1574.98L1349.21 1554.59Z" fill="white"/>
<path d="M1412.07 1549.43L1349.21 1554.59L1511.27 1574.98L1412.07 1549.43Z" fill="white"/>
<path d="M1443.5 1148L1501.53 1258.01L1513.64 1247.77L1443.5 1148Z" fill="#E9FBFB"/>
<path d="M1363.7 866.737L1407.24 984.355L1513.64 899.991L1363.7 866.737Z" fill="#FDFFFE"/>
<path d="M1373.44 818.166L1363.7 866.737L1513.64 899.991L1373.44 818.166Z" fill="white"/>
<path d="M1482.21 774.756L1373.44 818.166L1513.64 899.991L1482.21 774.756Z" fill="#FEFFFF"/>
<path d="M1400.04 357.932L1419.35 501.105L1516.1 409.124L1400.04 357.932Z" fill="white"/>
<path d="M1513.64 1247.77L1501.53 1258.01L1523.3 1347.45L1513.64 1247.77Z" fill="white"/>
<path d="M1479.76 1375.54L1487.04 1462.53L1523.3 1347.45L1479.76 1375.54Z" fill="white"/>
<path d="M1472.56 1293.8L1479.76 1375.54L1523.3 1347.45L1472.56 1293.8Z" fill="white"/>
<path d="M1501.53 1258.01L1472.56 1293.8L1523.3 1347.45L1501.53 1258.01Z" fill="white"/>
<path d="M1516.1 409.124L1419.35 501.105L1525.76 542.059L1516.1 409.124Z" fill="white"/>
<path d="M1409.7 539.52L1416.9 598.329L1525.76 542.059L1409.7 539.52Z" fill="#FEFEFE"/>
<path d="M1419.35 501.105L1409.7 539.52L1525.76 542.059L1419.35 501.105Z" fill="white"/>
<path d="M1412.07 1055.94L1443.5 1148L1528.13 1137.77L1412.07 1055.94Z" fill="#FAFEFD"/>
<path d="M1443.5 1148L1513.64 1247.77L1528.13 1137.77L1443.5 1148Z" fill="#FDFFFE"/>
<path d="M1491.87 30.7148L1404.87 122.696L1537.79 191.743L1491.87 30.7148Z" fill="white"/>
<path d="M1404.87 122.696L1351.66 194.283L1537.79 191.744L1404.87 122.696Z" fill="white"/>
<path d="M1482.21 774.756L1513.64 899.991L1540.25 815.627L1482.21 774.756Z" fill="white"/>
<path d="M1487.04 1462.53L1511.27 1574.98L1540.25 1498.32L1487.04 1462.53Z" fill="white"/>
<path d="M1351.66 194.283L1400.04 357.932L1552.36 248.014L1351.66 194.283Z" fill="white"/>
<path d="M1537.79 191.744L1351.66 194.283L1552.36 248.014L1537.79 191.744Z" fill="white"/>
<path d="M1400.04 357.932L1516.1 409.124L1552.36 248.014L1400.04 357.932Z" fill="white"/>
<path d="M1412.07 1055.94L1528.13 1137.77L1571.68 1078.96L1412.07 1055.94Z" fill="white"/>
<path d="M1465.27 726.103L1482.21 774.756L1578.96 715.947L1465.27 726.103Z" fill="#FEFEFE"/>
<path d="M1482.21 774.756L1540.25 815.627L1578.96 715.947L1482.21 774.756Z" fill="white"/>
<path d="M1523.3 1347.45L1487.04 1462.53L1578.96 1362.76L1523.3 1347.45Z" fill="white"/>
<path d="M1465.27 726.103L1578.96 715.947L1588.62 608.567L1465.27 726.103Z" fill="#FFFFFD"/>
<path d="M1416.9 598.329L1465.27 726.103L1588.62 608.567L1416.9 598.329Z" fill="white"/>
<path d="M1525.76 542.059L1416.9 598.329L1588.62 608.567L1525.76 542.059Z" fill="#F9FDFC"/>
<path d="M1513.64 899.991L1407.24 984.355L1588.62 1007.37L1513.64 899.991Z" fill="#FEFFFF"/>
<path d="M1407.24 984.355L1412.07 1055.94L1588.62 1007.37L1407.24 984.355Z" fill="#FEFFFF"/>
<path d="M1412.07 1055.94L1571.68 1078.96L1588.62 1007.37L1412.07 1055.94Z" fill="white"/>
<path d="M1487.04 1462.53L1540.25 1498.32L1590.99 1459.99L1487.04 1462.53Z" fill="white"/>
<path d="M1578.96 1362.76L1487.04 1462.53L1590.99 1459.99L1578.96 1362.76Z" fill="white"/>
<path d="M1528.13 1137.77L1513.64 1247.77L1593.45 1224.75L1528.13 1137.77Z" fill="#F9FDFC"/>
<path d="M1593.45 1224.75L1513.64 1247.77L1595.82 1288.64L1593.45 1224.75Z" fill="#FEFEFE"/>
<path d="M1513.64 1247.77L1523.3 1347.45L1595.82 1288.64L1513.64 1247.77Z" fill="white"/>
<path d="M1523.3 1347.45L1578.96 1362.76L1595.82 1288.64L1523.3 1347.45Z" fill="white"/>
<path d="M1540.25 815.627L1513.64 899.991L1598.28 848.881L1540.25 815.627Z" fill="#FFFEFF"/>
<path d="M1513.64 899.991L1588.62 1007.37L1598.28 848.881L1513.64 899.991Z" fill="#EAF9FC"/>
<path d="M1578.96 715.947L1540.25 815.627L1598.28 848.881L1578.96 715.947Z" fill="white"/>
<path d="M1516.1 409.124L1525.76 542.059L1600.73 503.726L1516.1 409.124Z" fill="white"/>
<path d="M1525.76 542.058L1588.62 608.567L1600.73 503.726L1525.76 542.058Z" fill="white"/>
<path d="M1552.36 248.014L1516.1 409.124L1603.11 294.045L1552.36 248.014Z" fill="#FEFEFE"/>
<path d="M1540.25 1498.32L1511.27 1574.98L1603.11 1500.86L1540.25 1498.32Z" fill="#FEFEFE"/>
<path d="M1590.99 1459.99L1540.25 1498.32L1603.11 1500.86L1590.99 1459.99Z" fill="white"/>
<path d="M1491.87 30.7148L1537.79 191.743L1605.56 89.5239L1491.87 30.7148Z" fill="white"/>
<path d="M1491.87 30.7149L1605.56 89.524L1610.39 5.07812L1491.87 30.7149Z" fill="white"/>
<path d="M1380.64 5.07812L1491.87 30.7149L1610.39 5.07812H1380.64Z" fill="white"/>
<path d="M1571.68 1078.96L1528.13 1137.77L1624.88 1178.72L1571.68 1078.96Z" fill="#F2FAFC"/>
<path d="M1528.13 1137.77L1593.45 1224.75L1624.88 1178.72L1528.13 1137.77Z" fill="white"/>
<path d="M1588.62 608.567L1578.96 715.947L1636.99 657.138L1588.62 608.567Z" fill="#F9FDFE"/>
<path d="M1603.11 1500.86L1511.27 1574.98L1644.19 1577.6L1603.11 1500.86Z" fill="white"/>
<path d="M1516.1 409.124L1600.73 503.726L1651.48 426.98L1516.1 409.124Z" fill="white"/>
<path d="M1603.11 294.045L1516.1 409.124L1651.48 426.98L1603.11 294.045Z" fill="white"/>
<path d="M1603.11 294.045L1651.48 426.98L1661.14 332.377L1603.11 294.045Z" fill="white"/>
<path d="M1598.28 848.881L1588.62 1007.37L1661.14 966.499L1598.28 848.881Z" fill="#FCFEFD"/>
<path d="M1603.11 294.045L1661.14 332.377L1668.42 214.759L1603.11 294.045Z" fill="white"/>
<path d="M1552.36 248.013L1603.11 294.045L1668.42 214.759L1552.36 248.013Z" fill="white"/>
<path d="M1537.79 191.744L1552.36 248.014L1668.42 214.759L1537.79 191.744Z" fill="white"/>
<path d="M1605.56 89.5239L1537.79 191.744L1668.42 214.759L1605.56 89.5239Z" fill="white"/>
<path d="M1578.96 715.947L1598.28 848.881L1678.08 738.963L1578.96 715.947Z" fill="white"/>
<path d="M1636.99 657.138L1578.96 715.947L1678.08 738.963L1636.99 657.138Z" fill="#EBFDFD"/>
<path d="M1578.96 1362.76L1590.99 1459.99L1680.45 1396.02L1578.96 1362.76Z" fill="#FEFEFE"/>
<path d="M1595.82 1288.64L1578.96 1362.76L1680.45 1396.02L1595.82 1288.64Z" fill="white"/>
<path d="M1605.56 89.5239L1668.42 214.759L1685.36 171.349L1605.56 89.5239Z" fill="white"/>
<path d="M1571.68 1078.96L1624.88 1178.72L1687.74 1091.73L1571.68 1078.96Z" fill="#EDF9F9"/>
<path d="M1588.62 1007.37L1571.68 1078.96L1687.74 1091.73L1588.62 1007.37Z" fill="#FDFFFE"/>
<path d="M1661.14 966.499L1588.62 1007.37L1687.74 1091.73L1661.14 966.499Z" fill="#CAF8F8"/>
<path d="M1651.48 426.979L1600.73 503.726L1702.23 536.898L1651.48 426.979Z" fill="white"/>
<path d="M1600.73 503.726L1588.62 608.567L1702.23 536.898L1600.73 503.726Z" fill="white"/>
<path d="M1588.62 608.567L1636.99 657.137L1702.23 536.898L1588.62 608.567Z" fill="white"/>
<path d="M1595.82 1288.64L1680.45 1396.02L1704.68 1288.64H1595.82Z" fill="#FEFEFE"/>
<path d="M1593.45 1224.75L1595.82 1288.64H1704.68L1593.45 1224.75Z" fill="white"/>
<path d="M1624.88 1178.72L1593.45 1224.75L1704.68 1288.64L1624.88 1178.72Z" fill="white"/>
<path d="M1644.19 1577.61L1511.27 1574.98L1707.05 1590.38L1644.19 1577.61Z" fill="white"/>
<path d="M1511.27 1574.98L1250.09 1590.38H1707.06L1511.27 1574.98Z" fill="#FDFDFD"/>
<path d="M1598.28 848.881L1661.14 966.499L1714.34 874.436L1598.28 848.881Z" fill="#FAFEFF"/>
<path d="M1678.08 738.962L1598.28 848.881L1714.34 795.15L1678.08 738.962Z" fill="white"/>
<path d="M1598.28 848.881L1714.34 874.436V795.15L1598.28 848.881Z" fill="#ECFBF8"/>
<path d="M1603.11 1500.86L1644.19 1577.6L1714.34 1493.16L1603.11 1500.86Z" fill="white"/>
<path d="M1644.19 1577.6L1707.05 1590.38L1714.34 1493.16L1644.19 1577.6Z" fill="white"/>
<path d="M1590.99 1459.99L1603.11 1500.86L1714.34 1493.16L1590.99 1459.99Z" fill="white"/>
<path d="M1680.45 1396.02L1590.99 1459.99L1714.34 1493.16L1680.45 1396.02Z" fill="#FEFEFE"/>
<path d="M1610.39 5.07812L1605.56 89.524L1726.45 5.07812H1610.39Z" fill="white"/>
<path d="M1661.14 966.499L1687.74 1091.73L1736.11 999.753L1661.14 966.499Z" fill="#D8F6F6"/>
<path d="M1714.34 874.436L1661.14 966.499L1736.11 999.753L1714.34 874.436Z" fill="#C2F4F3"/>
<path d="M1687.74 1091.73L1624.88 1178.72L1738.49 1214.51L1687.74 1091.73Z" fill="white"/>
<path d="M1624.88 1178.72L1704.68 1288.64L1738.49 1214.51L1624.88 1178.72Z" fill="white"/>
<path d="M1605.56 89.5239L1685.36 171.349L1750.6 117.618L1605.56 89.5239Z" fill="white"/>
<path d="M1726.45 5.07812L1605.56 89.524L1750.6 117.618L1726.45 5.07812Z" fill="white"/>
<path d="M1678.08 738.962L1714.34 795.15L1753.05 664.755L1678.08 738.962Z" fill="#FFFEFF"/>
<path d="M1636.99 657.138L1678.08 738.963L1753.05 664.755L1636.99 657.138Z" fill="white"/>
<path d="M1702.23 536.898L1636.99 657.137L1753.05 664.755L1702.23 536.898Z" fill="white"/>
<path d="M1714.34 1493.16L1707.05 1590.38L1765.09 1569.91L1714.34 1493.16Z" fill="#FEFEFE"/>
<path d="M1661.14 332.377L1651.48 426.98L1769.91 462.773L1661.14 332.377Z" fill="white"/>
<path d="M1651.48 426.979L1702.23 536.898L1769.91 462.773L1651.48 426.979Z" fill="white"/>
<path d="M1714.34 795.15V874.436L1769.92 820.787L1714.34 795.15Z" fill="#E2FEFF"/>
<path d="M1738.49 1214.51L1704.68 1288.64L1774.83 1311.65L1738.49 1214.51Z" fill="#FDFFFE"/>
<path d="M1704.68 1288.64L1680.45 1396.02L1774.83 1311.65L1704.68 1288.64Z" fill="white"/>
<path d="M1687.74 1091.73L1738.49 1214.51L1784.48 1130.15L1687.74 1091.73Z" fill="#FEFEFE"/>
<path d="M1685.36 171.349L1668.42 214.759L1786.86 189.204L1685.36 171.349Z" fill="white"/>
<path d="M1750.6 117.618L1685.36 171.349L1786.86 189.205L1750.6 117.618Z" fill="#FEFEFE"/>
<path d="M1680.45 1396.02L1714.34 1493.16L1789.31 1439.51L1680.45 1396.02Z" fill="white"/>
<path d="M1774.83 1311.65L1680.45 1396.02L1789.31 1439.51L1774.83 1311.65Z" fill="white"/>
<path d="M1714.34 1493.16L1765.09 1569.91L1789.31 1439.51L1714.34 1493.16Z" fill="#FEFEFE"/>
<path d="M1668.42 214.759L1661.14 332.377L1794.14 273.568L1668.42 214.759Z" fill="white"/>
<path d="M1786.86 189.205L1668.42 214.759L1794.14 273.569L1786.86 189.205Z" fill="white"/>
<path d="M1714.34 874.436L1736.11 999.753L1794.14 948.562L1714.34 874.436Z" fill="#FFFDFE"/>
<path d="M1769.92 820.787L1714.34 874.436L1794.14 948.562L1769.92 820.787Z" fill="#75F2F8"/>
<path d="M1661.14 332.377L1769.91 462.773L1803.8 332.377H1661.14Z" fill="white"/>
<path d="M1794.14 273.568L1661.14 332.377H1803.8L1794.14 273.568Z" fill="white"/>
<path d="M1702.23 536.898L1753.05 664.755L1811.09 634.122L1702.23 536.898Z" fill="white"/>
<path d="M1794.14 948.562L1736.11 999.753L1815.91 1073.88L1794.14 948.562Z" fill="white"/>
<path d="M1736.11 999.753L1687.74 1091.73L1815.91 1073.88L1736.11 999.753Z" fill="#F7FCFF"/>
<path d="M1687.74 1091.73L1784.48 1130.15L1815.91 1073.88L1687.74 1091.73Z" fill="white"/>
<path d="M1811.08 634.122L1753.05 664.755L1818.29 685.232L1811.08 634.122Z" fill="white"/>
<path d="M1753.05 664.755L1714.34 795.15L1818.29 685.232L1753.05 664.755Z" fill="#E5FDFD"/>
<path d="M1714.34 795.15L1769.92 820.787L1818.29 685.231L1714.34 795.15Z" fill="#F7FBFA"/>
<path d="M1726.45 5.07812L1750.6 117.618L1825.57 66.5082L1726.45 5.07812Z" fill="white"/>
<path d="M1750.6 117.618L1786.86 189.205L1825.57 66.5083L1750.6 117.618Z" fill="white"/>
<path d="M1789.31 1439.51L1765.09 1569.91L1844.89 1513.64L1789.31 1439.51Z" fill="white"/>
<path d="M1803.8 332.377L1769.92 462.773L1859.46 426.98L1803.8 332.377Z" fill="white"/>
<path d="M1859.46 426.979L1769.92 462.773L1859.46 519.043V426.979Z" fill="white"/>
<path d="M1769.92 462.773L1702.23 536.899L1859.46 519.043L1769.92 462.773Z" fill="white"/>
<path d="M1702.23 536.899L1811.09 634.122L1859.46 519.043L1702.23 536.899Z" fill="white"/>
<path d="M1769.92 820.787L1794.14 948.562L1859.46 889.753L1769.92 820.787Z" fill="#D6F4F4"/>
<path d="M1794.14 948.562L1815.91 1073.88L1866.66 1009.99L1794.14 948.562Z" fill="#DFFBFC"/>
<path d="M1859.46 889.753L1794.14 948.562L1866.66 1009.99L1859.46 889.753Z" fill="#85E6EC"/>
<path d="M1818.29 685.231L1769.92 820.787L1871.49 736.341L1818.29 685.231Z" fill="#F8FEFC"/>
<path d="M1815.91 1073.88L1784.48 1130.15L1871.49 1140.39L1815.91 1073.88Z" fill="#F4FCFF"/>
<path d="M1784.48 1130.15L1738.48 1214.51L1871.49 1140.39L1784.48 1130.15Z" fill="#EBF9F9"/>
<path d="M1794.14 273.568L1803.8 332.377L1883.6 347.694L1794.14 273.568Z" fill="white"/>
<path d="M1803.8 332.377L1859.46 426.98L1883.6 347.694L1803.8 332.377Z" fill="white"/>
<path d="M1844.89 1513.64L1765.09 1569.91L1883.6 1595.46L1844.89 1513.64Z" fill="white"/>
<path d="M1765.09 1569.91L1707.05 1590.38L1883.6 1595.46L1765.09 1569.91Z" fill="white"/>
<path d="M1738.48 1214.51L1774.83 1311.65L1890.89 1275.86L1738.48 1214.51Z" fill="#FDFDFD"/>
<path d="M1871.49 1140.39L1738.48 1214.51L1890.89 1275.86L1871.49 1140.39Z" fill="#F7FBFC"/>
<path d="M1769.92 820.787L1859.46 889.753L1902.92 828.404L1769.92 820.787Z" fill="#95ECF3"/>
<path d="M1871.49 736.341L1769.92 820.787L1902.92 828.404L1871.49 736.341Z" fill="#FFFEFF"/>
<path d="M1726.45 5.07812L1825.57 66.5082L1905.38 20.4766L1726.45 5.07812Z" fill="white"/>
<path d="M1789.31 1439.51L1844.89 1513.64L1910.21 1413.96L1789.31 1439.51Z" fill="#FEFEFE"/>
<path d="M1774.83 1311.65L1789.31 1439.51L1910.21 1413.96L1774.83 1311.65Z" fill="#FEFEFE"/>
<path d="M1890.89 1275.86L1774.83 1311.65L1910.21 1413.96L1890.89 1275.86Z" fill="white"/>
<path d="M1825.57 66.5083L1786.86 189.205L1915.03 115.079L1825.57 66.5083Z" fill="white"/>
<path d="M1905.38 20.4766L1825.57 66.5081L1915.03 115.079L1905.38 20.4766Z" fill="white"/>
<path d="M1866.66 1009.99L1815.91 1073.88L1917.49 1104.59L1866.66 1009.99Z" fill="#F8FEFE"/>
<path d="M1815.91 1073.88L1871.49 1140.39L1917.49 1104.59L1815.91 1073.88Z" fill="#C9F6F9"/>
<path d="M1859.46 519.043L1811.09 634.122L1931.98 628.962L1859.46 519.043Z" fill="white"/>
<path d="M1811.09 634.122L1818.29 685.232L1931.98 628.962L1811.09 634.122Z" fill="white"/>
<path d="M1818.29 685.232L1871.49 736.342L1931.98 628.962L1818.29 685.232Z" fill="white"/>
<path d="M1905.38 20.4765L1915.03 115.079L1939.18 15.3164L1905.38 20.4765Z" fill="white"/>
<path d="M1726.45 5.07812L1905.38 20.4766L1939.18 15.3165L1726.45 5.07812Z" fill="white"/>
<path d="M1794.14 273.568L1883.6 347.694L1944.01 294.045L1794.14 273.568Z" fill="white"/>
<path d="M1786.86 189.205L1794.14 273.569L1944.01 294.045L1786.86 189.205Z" fill="white"/>
<path d="M1915.03 115.079L1786.86 189.205L1944.01 294.045L1915.03 115.079Z" fill="white"/>
<path d="M1844.89 1513.64L1883.6 1595.46L1944.01 1516.18L1844.89 1513.64Z" fill="#FEFEFE"/>
<path d="M1910.21 1413.96L1844.89 1513.64L1944.01 1516.18L1910.21 1413.96Z" fill="white"/>
<path d="M1859.46 519.043L1931.98 628.962L1946.46 542.059L1859.46 519.043Z" fill="white"/>
<path d="M1944.01 1516.18L1883.6 1595.46L1953.75 1549.43L1944.01 1516.18Z" fill="white"/>
<path d="M1871.49 1140.39L1890.89 1275.86L1956.12 1219.59L1871.49 1140.39Z" fill="#E3F8FB"/>
<path d="M1917.49 1104.59L1871.49 1140.39L1956.12 1219.59L1917.49 1104.59Z" fill="#7EE5EC"/>
<path d="M1859.46 889.753L1866.66 1009.99L1960.95 902.53L1859.46 889.753Z" fill="#3DE5E8"/>
<path d="M1902.92 828.404L1859.46 889.752L1960.95 902.53L1902.92 828.404Z" fill="#FDFDFD"/>
<path d="M1871.49 736.341L1902.92 828.405L1965.78 726.103L1871.49 736.341Z" fill="#FFFEFF"/>
<path d="M1931.98 628.962L1871.49 736.342L1965.78 726.103L1931.98 628.962Z" fill="white"/>
<path d="M1890.89 1275.86L1910.21 1413.96L1975.52 1406.26L1890.89 1275.86Z" fill="white"/>
<path d="M1910.21 1413.96L1944.01 1516.18L1975.52 1406.26L1910.21 1413.96Z" fill="white"/>
<path d="M1859.46 426.979V519.043L1977.89 465.312L1859.46 426.979Z" fill="white"/>
<path d="M1859.46 519.043L1946.46 542.059L1977.89 465.312L1859.46 519.043Z" fill="white"/>
<path d="M1883.6 347.694L1859.46 426.98L1985.18 363.092L1883.6 347.694Z" fill="white"/>
<path d="M1859.46 426.98L1977.89 465.312L1985.18 363.092L1859.46 426.98Z" fill="white"/>
<path d="M1944.01 294.045L1883.6 347.694L1985.18 363.092L1944.01 294.045Z" fill="white"/>
<path d="M1915.03 115.079L1944.01 294.045L1990.01 176.427L1915.03 115.079Z" fill="white"/>
<path d="M1980.35 148.333L1915.03 115.079L1990.01 176.427L1980.35 148.333Z" fill="white"/>
<path d="M1956.12 1219.59L1890.89 1275.86L1990.01 1242.61L1956.12 1219.59Z" fill="#9BEAEF"/>
<path d="M1917.49 1104.59L1956.12 1219.59L2004.5 1109.67L1917.49 1104.59Z" fill="#77F9F9"/>
<path d="M1956.12 1219.59L1990.01 1242.61L2004.5 1109.67L1956.12 1219.59Z" fill="white"/>
<path d="M1939.18 15.3164L1915.03 115.079L2014.15 61.348L1939.18 15.3164Z" fill="#FEFEFE"/>
<path d="M1915.03 115.079L1980.35 148.333L2014.15 61.3481L1915.03 115.079Z" fill="white"/>
<path d="M1890.89 1275.86L1975.52 1406.26L2014.15 1306.58L1890.89 1275.86Z" fill="white"/>
<path d="M1990.01 1242.61L1890.89 1275.86L2014.15 1306.58L1990.01 1242.61Z" fill="#FCFEFD"/>
<path d="M1902.92 828.404L1960.95 902.53L2018.98 833.564L1902.92 828.404Z" fill="#6EEDF3"/>
<path d="M1965.78 726.103L1902.92 828.405L2018.98 833.565L1965.78 726.103Z" fill="white"/>
<path d="M1953.75 1549.43L1883.6 1595.46L2021.44 1590.38L1953.75 1549.43Z" fill="white"/>
<path d="M1946.46 542.059L1931.98 628.962L2023.81 651.977L1946.46 542.059Z" fill="white"/>
<path d="M1931.98 628.962L1965.78 726.103L2023.81 651.978L1931.98 628.962Z" fill="#FEFFFF"/>
<path d="M1960.95 902.53L1866.66 1009.99L2033.47 1030.39L1960.95 902.53Z" fill="#92EAEE"/>
<path d="M1866.66 1009.99L1917.49 1104.59L2033.47 1030.39L1866.66 1009.99Z" fill="#64EFF4"/>
<path d="M1917.49 1104.59L2004.5 1109.67L2033.47 1030.39L1917.49 1104.59Z" fill="#8AFAFC"/>
<path d="M1985.18 363.092L1977.9 465.312L2038.38 452.534L1985.18 363.092Z" fill="white"/>
<path d="M1975.52 1406.26L1944.01 1516.18L2043.21 1442.05L1975.52 1406.26Z" fill="white"/>
<path d="M2014.15 1306.58L1975.52 1406.26L2043.21 1442.05L2014.15 1306.58Z" fill="#FEFEFE"/>
<path d="M1944.01 294.045L1985.18 363.093L2057.7 258.252L1944.01 294.045Z" fill="white"/>
<path d="M1990.01 176.427L1944.01 294.045L2057.7 258.252L1990.01 176.427Z" fill="white"/>
<path d="M1990.01 176.427L2057.7 258.252L2060.07 138.095L1990.01 176.427Z" fill="white"/>
<path d="M1980.35 148.333L1990.01 176.427L2060.07 138.095L1980.35 148.333Z" fill="white"/>
<path d="M2014.15 61.3481L1980.35 148.333L2060.07 138.095L2014.15 61.3481Z" fill="white"/>
<path d="M2018.98 833.564L1960.95 902.53L2060.07 894.913L2018.98 833.564Z" fill="#D0F8F8"/>
<path d="M1960.95 902.53L2033.47 1030.39L2060.07 894.913L1960.95 902.53Z" fill="#B8F2F3"/>
<path d="M1953.75 1549.43L2021.44 1590.38L2062.53 1493.16L1953.75 1549.43Z" fill="white"/>
<path d="M1944.01 1516.17L1953.75 1549.43L2062.53 1493.16L1944.01 1516.17Z" fill="#FEFEFE"/>
<path d="M2043.21 1442.05L1944.01 1516.18L2062.53 1493.16L2043.21 1442.05Z" fill="white"/>
<path d="M1985.18 363.092L2038.38 452.534L2064.98 416.741L1985.18 363.092Z" fill="white"/>
<path d="M2014.15 61.3482L2060.07 138.095L2077.01 51.1099L2014.15 61.3482Z" fill="white"/>
<path d="M1939.18 15.3164L2014.15 61.348L2077.01 51.1096L1939.18 15.3164Z" fill="white"/>
<path d="M1946.46 542.059L2023.81 651.977L2077.01 577.852L1946.46 542.059Z" fill="white"/>
<path d="M1977.89 465.312L1946.46 542.059L2077.01 577.852L1977.89 465.312Z" fill="white"/>
<path d="M2038.38 452.535L1977.9 465.312L2077.01 577.852L2038.38 452.535Z" fill="white"/>
<path d="M2018.98 833.564L2060.07 894.913L2079.47 848.881L2018.98 833.564Z" fill="#61EFF3"/>
<path d="M2033.47 1030.39L2004.5 1109.67L2079.47 1055.94L2033.47 1030.39Z" fill="#8DF5F6"/>
<path d="M1990.01 1242.61L2014.15 1306.58L2086.67 1183.8L1990.01 1242.61Z" fill="#F1F9FB"/>
<path d="M2004.5 1109.67L1990.01 1242.61L2086.67 1183.8L2004.5 1109.67Z" fill="#7DF7F8"/>
<path d="M2079.47 1055.94L2004.5 1109.67L2086.67 1183.8L2079.47 1055.94Z" fill="#54D9E0"/>
<path d="M2057.7 258.252L1985.18 363.093L2096.41 332.378L2057.7 258.252Z" fill="white"/>
<path d="M1985.18 363.092L2064.98 416.741L2096.41 332.377L1985.18 363.092Z" fill="white"/>
<path d="M2062.53 1493.16L2021.44 1590.38L2098.79 1564.83L2062.53 1493.16Z" fill="white"/>
<path d="M2098.79 1564.83L2021.44 1590.38L2103.62 1585.22L2098.79 1564.83Z" fill="white"/>
<path d="M2098.79 1564.83L2103.62 1585.22L2106.07 1551.97L2098.79 1564.83Z" fill="white"/>
<path d="M2062.53 1493.16L2098.79 1564.83L2106.07 1551.97L2062.53 1493.16Z" fill="#FEFEFE"/>
<path d="M2018.98 833.565L2079.47 848.881L2110.9 726.103L2018.98 833.565Z" fill="#8EE3E8"/>
<path d="M2077.01 577.852L2023.81 651.978L2110.9 726.103L2077.01 577.852Z" fill="white"/>
<path d="M1965.78 726.103L2018.98 833.565L2110.9 726.103H1965.78Z" fill="white"/>
<path d="M2023.81 651.978L1965.78 726.103H2110.9L2023.81 651.978Z" fill="white"/>
<path d="M2079.47 848.881L2060.07 894.913L2110.9 951.183L2079.47 848.881Z" fill="#F6FBFF"/>
<path d="M2060.07 894.913L2033.47 1030.39L2110.9 951.183L2060.07 894.913Z" fill="#31EEF2"/>
<path d="M2033.47 1030.39L2079.47 1055.94L2110.9 951.183L2033.47 1030.39Z" fill="#7BE1E5"/>
<path d="M2077.01 51.1099L2060.07 138.095L2113.27 74.1256L2077.01 51.1099Z" fill="white"/>
<path d="M2014.15 1306.58L2043.21 1442.05L2123.01 1326.97L2014.15 1306.58Z" fill="#FDFDFD"/>
<path d="M2086.67 1183.8L2014.15 1306.58L2123.01 1326.97L2086.67 1183.8Z" fill="#5DF2F6"/>
<path d="M2064.98 416.741L2038.38 452.534L2127.84 506.265L2064.98 416.741Z" fill="white"/>
<path d="M2038.38 452.535L2077.01 577.852L2127.84 506.265L2038.38 452.535Z" fill="white"/>
<path d="M2110.9 726.103L2079.47 848.881L2137.5 790.072L2110.9 726.103Z" fill="#ADF9F9"/>
<path d="M2137.5 790.072L2079.47 848.881L2142.33 810.549L2137.5 790.072Z" fill="#FBFCFE"/>
<path d="M2062.53 1493.16L2106.07 1551.97L2147.16 1416.49L2062.53 1493.16Z" fill="white"/>
<path d="M2043.21 1442.05L2062.53 1493.16L2147.16 1416.49L2043.21 1442.05Z" fill="#FDFDFD"/>
<path d="M2123.01 1326.97L2043.21 1442.05L2147.16 1416.49L2123.01 1326.97Z" fill="#FEFFFF"/>
<path d="M2096.41 332.377L2064.98 416.741L2166.48 332.377H2096.41Z" fill="white"/>
<path d="M2079.47 848.881L2110.9 951.183H2166.48L2079.47 848.881Z" fill="#E0F5F6"/>
<path d="M2142.33 810.549L2079.47 848.881L2166.48 951.183L2142.33 810.549Z" fill="#FEFFFF"/>
<path d="M2064.98 416.741L2127.84 506.265L2173.76 455.155L2064.98 416.741Z" fill="white"/>
<path d="M2166.48 332.377L2064.98 416.741L2173.76 455.156L2166.48 332.377Z" fill="#FEFEFE"/>
<path d="M2113.27 74.1255L2060.07 138.095L2176.13 130.395L2113.27 74.1255Z" fill="#FEFEFE"/>
<path d="M2110.9 951.183L2079.47 1055.94L2178.59 1020.15L2110.9 951.183Z" fill="#58E7ED"/>
<path d="M2166.48 951.183H2110.9L2178.59 1020.15L2166.48 951.183Z" fill="#4FE6ED"/>
<path d="M2123.01 1326.97L2147.16 1416.49L2181.05 1303.96L2123.01 1326.97Z" fill="#46DFE7"/>
<path d="M2086.67 1183.8L2123.01 1326.97L2181.05 1303.95L2086.67 1183.8Z" fill="#4AD9E9"/>
<path d="M2113.27 74.1254L2176.13 130.395L2183.42 25.5547L2113.27 74.1254Z" fill="white"/>
<path d="M2077.01 51.1096L2113.27 74.1254L2183.42 25.5547L2077.01 51.1096Z" fill="white"/>
<path d="M1939.18 15.3164L2077.01 51.1096L2183.42 25.5547L1939.18 15.3164Z" fill="white"/>
<path d="M2077.01 577.852L2110.9 726.103L2183.42 628.962L2077.01 577.852Z" fill="white"/>
<path d="M2127.84 506.266L2077.01 577.852L2183.42 628.962L2127.84 506.266Z" fill="#FEFEFE"/>
<path d="M2060.07 138.095L2057.7 258.252L2185.87 222.459L2060.07 138.095Z" fill="#FEFEFE"/>
<path d="M2176.13 130.396L2060.07 138.095L2185.87 222.459L2176.13 130.396Z" fill="white"/>
<path d="M2057.7 258.252L2096.41 332.377L2185.87 222.458L2057.7 258.252Z" fill="white"/>
<path d="M2096.41 332.377H2166.48L2185.87 222.458L2096.41 332.377Z" fill="white"/>
<path d="M2181.05 1303.96L2147.16 1416.49H2195.53L2181.05 1303.96Z" fill="white"/>
<path d="M2185.88 222.458L2166.48 332.377L2197.91 245.474L2185.88 222.458Z" fill="white"/>
<path d="M2197.91 245.475L2166.48 332.378L2200.36 334.917L2197.91 245.475Z" fill="white"/>
<path d="M2086.67 1183.8L2181.05 1303.95L2202.74 1160.78L2086.67 1183.8Z" fill="#BEEEF2"/>
<path d="M2079.47 1055.94L2086.67 1183.8L2202.74 1160.78L2079.47 1055.94Z" fill="#85E2E9"/>
<path d="M2178.59 1020.15L2079.47 1055.94L2202.74 1160.78L2178.59 1020.15Z" fill="#56DFE7"/>
<path d="M2166.48 951.183L2178.59 1020.15L2207.57 956.261L2166.48 951.183Z" fill="#D6F0F1"/>
<path d="M2147.16 1416.49L2106.07 1551.97L2210.02 1500.86L2147.16 1416.49Z" fill="white"/>
<path d="M2195.53 1416.49H2147.16L2210.02 1500.86L2195.53 1416.49Z" fill="white"/>
<path d="M2166.48 332.377L2173.76 455.156L2212.48 411.663L2166.48 332.377Z" fill="white"/>
<path d="M2200.36 334.917L2166.48 332.377L2212.48 411.663L2200.36 334.917Z" fill="white"/>
<path d="M2137.5 790.072L2142.33 810.549L2219.68 772.135L2137.5 790.072Z" fill="#FEFEFE"/>
<path d="M2110.9 726.103L2137.5 790.072L2219.68 772.135L2110.9 726.103Z" fill="#FDFDFF"/>
<path d="M2183.42 628.962L2110.9 726.103L2219.68 772.135L2183.42 628.962Z" fill="#FDFEFF"/>
<path d="M2219.68 772.135L2142.33 810.549L2234.17 830.944L2219.68 772.135Z" fill="#E7F9FB"/>
<path d="M2142.33 810.549L2166.48 951.183L2234.17 830.944L2142.33 810.549Z" fill="#FEFFFF"/>
<path d="M2181.05 1303.96L2195.53 1416.49L2239.08 1329.59L2181.05 1303.96Z" fill="#F7FBFA"/>
<path d="M2106.07 1551.97L2103.62 1585.22L2246.28 1567.37L2106.07 1551.97Z" fill="white"/>
<path d="M2210.02 1500.86L2106.07 1551.97L2246.28 1567.37L2210.02 1500.86Z" fill="white"/>
<path d="M2166.48 951.183L2207.57 956.261L2248.74 887.213L2166.48 951.183Z" fill="#68EAEC"/>
<path d="M2234.17 830.943L2166.48 951.182L2248.74 887.213L2234.17 830.943Z" fill="#E0F8FA"/>
<path d="M2210.02 1500.86L2246.28 1567.37L2251.11 1534.11L2210.02 1500.86Z" fill="white"/>
<path d="M1939.18 15.3165L2183.42 25.5548L2251.11 2.53906L1939.18 15.3165Z" fill="white"/>
<path d="M1726.45 5.07817L1939.18 15.3165L2251.11 2.53906L1726.45 5.07817Z" fill="white"/>
<path d="M2197.91 245.475L2200.36 334.917L2265.6 253.092L2197.91 245.475Z" fill="white"/>
<path d="M2185.88 222.458L2197.91 245.474L2265.6 253.092L2185.88 222.458Z" fill="white"/>
<path d="M2212.48 411.663L2173.76 455.156L2265.6 511.344L2212.48 411.663Z" fill="#FEFEFE"/>
<path d="M2173.76 455.156L2127.84 506.266L2265.6 511.344L2173.76 455.156Z" fill="white"/>
<path d="M2127.84 506.266L2183.42 628.962L2265.6 511.344L2127.84 506.266Z" fill="#FDFDFD"/>
<path d="M2183.42 25.5547L2176.13 130.395L2277.71 79.2855L2183.42 25.5547Z" fill="white"/>
<path d="M2251.11 2.53906L2183.42 25.5549L2277.71 79.2857L2251.11 2.53906Z" fill="#FEFEFE"/>
<path d="M2210.02 1500.86L2251.11 1534.11L2277.71 1503.4L2210.02 1500.86Z" fill="white"/>
<path d="M2178.59 1020.15L2202.74 1160.78L2280.17 1122.45L2178.59 1020.15Z" fill="#37DFE8"/>
<path d="M2248.74 887.213L2207.56 956.261L2280.17 933.245L2248.74 887.213Z" fill="#BAEBEF"/>
<path d="M2277.71 79.2856L2176.13 130.395L2287.37 115.079L2277.71 79.2856Z" fill="white"/>
<path d="M2185.88 222.459L2265.6 253.092L2287.37 194.283L2185.88 222.459Z" fill="white"/>
<path d="M2176.13 130.396L2185.87 222.459L2287.37 194.283L2176.13 130.396Z" fill="white"/>
<path d="M2287.37 115.079L2176.13 130.396L2287.37 194.283V115.079Z" fill="#FEFEFE"/>
<path d="M2183.42 628.962L2219.68 772.135L2292.2 649.439L2183.42 628.962Z" fill="white"/>
<path d="M2265.6 511.344L2183.42 628.962L2292.2 649.439L2265.6 511.344Z" fill="#FEFEFE"/>
<path d="M2195.53 1416.49L2210.02 1500.86L2292.2 1459.99L2195.53 1416.49Z" fill="white"/>
<path d="M2210.02 1500.86L2277.71 1503.4L2292.2 1459.99L2210.02 1500.86Z" fill="#FEFEFE"/>
<path d="M2239.08 1329.59L2195.53 1416.49L2292.2 1459.99L2239.08 1329.59Z" fill="#EBFBFB"/>
<path d="M2200.36 334.917L2212.48 411.663L2294.65 329.838L2200.36 334.917Z" fill="white"/>
<path d="M2265.6 253.092L2200.36 334.917L2294.65 329.838L2265.6 253.092Z" fill="white"/>
<path d="M2292.2 649.438L2219.68 772.135L2294.65 782.373L2292.2 649.438Z" fill="white"/>
<path d="M2294.65 782.373L2280.17 933.245L2294.65 782.373Z" fill="#FDFEFF"/>
<path d="M2292.2 649.438L2294.65 782.373L2292.2 649.438Z" fill="white"/>
<path d="M2219.68 772.135L2234.17 830.944L2294.65 782.373L2219.68 772.135Z" fill="#FDFFFE"/>
<path d="M2294.65 782.373L2219.68 772.135L2294.65 782.373Z" fill="white"/>
<path d="M2178.59 1020.15L2280.17 1122.45L2297.11 1012.53L2178.59 1020.15Z" fill="#3FE5F1"/>
<path d="M2207.56 956.261L2178.59 1020.15L2297.11 1012.53L2207.56 956.261Z" fill="#47DEE7"/>
<path d="M2280.17 933.245L2207.56 956.261L2297.11 1012.53L2280.17 933.245Z" fill="#84DBE4"/>
<path d="M2280.17 1122.45L2202.74 1160.78L2318.8 1217.05L2280.17 1122.45Z" fill="#2BECF5"/>
<path d="M2202.74 1160.78L2181.05 1303.95L2318.8 1217.05L2202.74 1160.78Z" fill="white"/>
<path d="M2181.05 1303.95L2239.08 1329.59L2318.8 1217.05L2181.05 1303.95Z" fill="white"/>
<path d="M2292.2 1459.99L2277.71 1503.4L2318.8 1536.65L2292.2 1459.99Z" fill="white"/>
<path d="M2251.11 1534.11L2246.28 1567.37L2318.8 1536.65L2251.11 1534.11Z" fill="white"/>
<path d="M2277.71 1503.4L2251.11 1534.11L2318.8 1536.65L2277.71 1503.4Z" fill="#FEFFFF"/>
<path d="M2294.65 782.373L2280.17 933.245L2323.63 841.182L2294.65 782.373Z" fill="white"/>
<path d="M2294.65 782.373L2323.63 841.182L2294.65 782.373Z" fill="#F9FDFE"/>
<path d="M2294.65 782.373L2234.17 830.944L2323.63 841.182L2294.65 782.373Z" fill="#EAFAF9"/>
<path d="M2248.74 887.214L2280.17 933.245L2323.63 841.182L2248.74 887.214Z" fill="#EAF8F9"/>
<path d="M2280.17 933.245L2294.65 782.373L2323.63 841.182L2280.17 933.245Z" fill="white"/>
<path d="M2234.17 830.943L2248.74 887.213L2323.63 841.182L2234.17 830.943Z" fill="#FEFFFF"/>
<path d="M2277.71 79.2858L2287.37 115.079L2335.74 58.8091L2277.71 79.2858Z" fill="white"/>
<path d="M2251.11 2.53906L2277.71 79.2857L2335.74 58.809L2251.11 2.53906Z" fill="white"/>
<path d="M2318.8 1217.05L2239.08 1329.59L2335.74 1306.58L2318.8 1217.05Z" fill="#FAFEFD"/>
<path d="M2287.37 115.079V194.283L2347.85 138.095L2287.37 115.079Z" fill="white"/>
<path d="M2335.74 58.8091L2287.37 115.079L2347.85 138.095L2335.74 58.8091Z" fill="white"/>
<path d="M2287.37 194.283L2265.6 253.092L2352.68 268.49L2287.37 194.283Z" fill="#FEFEFE"/>
<path d="M2265.6 253.092L2294.65 329.838L2352.68 268.49L2265.6 253.092Z" fill="white"/>
<path d="M2280.17 933.245L2297.11 1012.53L2359.97 910.229L2280.17 933.245Z" fill="#3CE4F1"/>
<path d="M2323.63 841.182L2280.17 933.245L2359.97 910.23L2323.63 841.182Z" fill="white"/>
<path d="M2297.11 1012.53L2280.17 1122.45L2359.97 1142.93L2297.11 1012.53Z" fill="#80EBF1"/>
<path d="M2280.17 1122.45L2318.8 1217.05L2359.97 1142.93L2280.17 1122.45Z" fill="#FEFEFE"/>
<path d="M2239.08 1329.59L2292.2 1459.99L2359.97 1367.92L2239.08 1329.59Z" fill="white"/>
<path d="M2335.74 1306.58L2239.08 1329.59L2359.97 1367.92L2335.74 1306.58Z" fill="white"/>
<path d="M2352.68 268.49L2294.65 329.838L2362.34 363.092L2352.68 268.49Z" fill="white"/>
<path d="M2212.48 411.663L2265.6 511.343L2362.34 363.092L2212.48 411.663Z" fill="white"/>
<path d="M2294.65 329.838L2212.48 411.663L2362.34 363.092L2294.65 329.838Z" fill="white"/>
<path d="M2323.63 841.182L2359.97 910.23L2362.34 876.975L2323.63 841.182Z" fill="#FFFEFF"/>
<path d="M2265.6 511.344L2292.2 649.439L2364.8 536.899L2265.6 511.344Z" fill="#FDFDFD"/>
<path d="M2292.2 649.438L2340.57 641.739L2364.8 536.898L2292.2 649.438Z" fill="white"/>
<path d="M2318.8 1536.65L2246.28 1567.37L2369.63 1554.59L2318.8 1536.65Z" fill="white"/>
<path d="M2359.97 1367.92L2292.2 1459.99L2381.66 1467.6L2359.97 1367.92Z" fill="#ECFAFD"/>
<path d="M2292.2 1459.99L2318.8 1536.65L2381.66 1467.6L2292.2 1459.99Z" fill="#FEFEFE"/>
<path d="M2318.8 1536.65L2369.63 1554.59L2381.66 1467.6L2318.8 1536.65Z" fill="white"/>
<path d="M2323.63 841.182L2362.34 876.975L2386.57 728.724L2323.63 841.182Z" fill="#FEFFFF"/>
<path d="M2294.65 782.373L2323.63 841.182L2386.57 728.724L2294.65 782.373Z" fill="#F7FDFB"/>
<path d="M2292.2 649.438L2294.65 782.373L2386.57 728.724L2292.2 649.438Z" fill="#FFFFFD"/>
<path d="M2340.57 641.739L2292.2 649.439L2386.57 728.724L2340.57 641.739Z" fill="#DCF2F0"/>
<path d="M2347.85 138.095L2287.37 194.283L2396.23 227.537L2347.85 138.095Z" fill="white"/>
<path d="M2287.37 194.283L2352.68 268.49L2396.23 227.537L2287.37 194.283Z" fill="#FEFEFE"/>
<path d="M2359.97 910.229L2297.11 1012.53L2401.06 956.261L2359.97 910.229Z" fill="#BCEFF3"/>
<path d="M2364.8 536.898L2340.57 641.739L2410.72 567.613L2364.8 536.898Z" fill="white"/>
<path d="M2359.97 1367.92L2381.66 1467.6L2410.72 1465.07L2359.97 1367.92Z" fill="white"/>
<path d="M2381.66 1467.6L2369.63 1554.59L2410.72 1465.07L2381.66 1467.6Z" fill="#FFFEFF"/>
<path d="M2335.74 1306.58L2359.97 1367.92L2413.17 1329.59L2335.74 1306.58Z" fill="#FFFEFF"/>
<path d="M2297.11 1012.53L2359.97 1142.93L2413.17 1022.77L2297.11 1012.53Z" fill="#51DFE9"/>
<path d="M2401.06 956.261L2297.11 1012.53L2413.17 1022.77L2401.06 956.261Z" fill="#FEFFFF"/>
<path d="M2359.97 1367.92L2410.72 1465.07L2413.17 1342.37L2359.97 1367.92Z" fill="white"/>
<path d="M2413.17 1329.59L2359.97 1367.92L2413.17 1342.37V1329.59Z" fill="#F8FCFD"/>
<path d="M2352.68 268.49L2362.34 363.092L2413.17 347.694L2352.68 268.49Z" fill="#FEFEFE"/>
<path d="M2347.85 138.095L2396.23 227.537L2413.17 217.299L2347.85 138.095Z" fill="white"/>
<path d="M2413.17 217.298L2396.23 227.537L2415.54 281.267L2413.17 217.298Z" fill="white"/>
<path d="M2396.23 227.537L2352.68 268.49L2415.54 281.267L2396.23 227.537Z" fill="#FEFEFE"/>
<path d="M2352.68 268.49L2413.17 347.694L2415.54 281.268L2352.68 268.49Z" fill="#FEFEFE"/>
<path d="M2401.06 956.261L2413.17 1022.77L2415.54 930.706L2401.06 956.261Z" fill="#D7EFF1"/>
<path d="M2386.57 728.724L2362.34 876.975L2415.54 930.706L2386.57 728.724Z" fill="#FFFEFF"/>
<path d="M2362.34 876.975L2359.97 910.229L2415.54 930.706L2362.34 876.975Z" fill="#FFFEFF"/>
<path d="M2359.97 910.229L2401.06 956.261L2415.54 930.706L2359.97 910.229Z" fill="#4EE3EA"/>
<path d="M2415.54 930.706L2413.17 1022.77L2415.54 1117.37V930.706Z" fill="#D7F3F6"/>
<path d="M2413.17 1022.77L2359.97 1142.93L2415.54 1117.37L2413.17 1022.77Z" fill="#37EAF1"/>
<path d="M2415.54 1117.37L2359.97 1142.93L2415.54 1219.59V1117.37Z" fill="#6BDDE7"/>
<path d="M2413.17 1329.59V1342.37L2415.54 1219.59L2413.17 1329.59Z" fill="#47EAEF"/>
<path d="M2359.97 1142.93L2318.8 1217.05L2415.54 1219.59L2359.97 1142.93Z" fill="#EAFAFA"/>
<path d="M2318.8 1217.05L2335.74 1306.58L2415.54 1219.59L2318.8 1217.05Z" fill="white"/>
<path d="M2335.74 1306.58L2413.17 1329.59L2415.54 1219.59L2335.74 1306.58Z" fill="#48E2EE"/>
<path d="M2386.57 728.724L2415.54 930.706V669.915L2386.57 728.724Z" fill="#FAFCF9"/>
<path d="M2340.57 641.739L2386.57 728.724L2415.54 669.915L2340.57 641.739Z" fill="#FBFDFC"/>
<path d="M2410.72 567.613L2340.57 641.739L2415.54 669.915L2410.72 567.613Z" fill="#E3F3F3"/>
<path d="M2410.71 567.613L2415.54 669.915V565.074L2410.71 567.613Z" fill="white"/>
<path d="M2364.8 536.898L2410.72 567.613L2415.54 565.074L2364.8 536.898Z" fill="white"/>
<path d="M2364.8 536.899L2415.54 565.075V455.156L2364.8 536.899Z" fill="white"/>
<path d="M2415.54 281.268L2413.17 347.694L2415.54 455.156V281.268Z" fill="white"/>
<path d="M2413.17 347.694L2362.34 363.092L2415.54 455.155L2413.17 347.694Z" fill="#FEFEFE"/>
<path d="M2362.34 363.092L2265.6 511.343L2415.54 455.155L2362.34 363.092Z" fill="#FEFEFE"/>
<path d="M2265.6 511.344L2364.8 536.899L2415.54 455.156L2265.6 511.344Z" fill="white"/>
<path d="M2413.17 217.299L2415.54 281.268L2418 0L2413.17 217.299Z" fill="white"/>
<path d="M2335.74 58.809L2347.85 138.095L2418 0L2335.74 58.809Z" fill="white"/>
<path d="M2347.85 138.095L2413.17 217.299L2418 0L2347.85 138.095Z" fill="white"/>
<path d="M2251.11 2.53911L2335.74 58.809L2418 0L2251.11 2.53911Z" fill="white"/>
<path d="M2413.17 1342.37L2410.72 1465.07L2418 1598L2413.17 1342.37Z" fill="#FCFDFF"/>
<path d="M2410.72 1465.07L2369.63 1554.59L2418 1598L2410.72 1465.07Z" fill="#FEFEFE"/>
<path d="M2369.63 1554.59L2246.28 1567.37L2418 1598L2369.63 1554.59Z" fill="#FFFFFD"/>
<path d="M2246.28 1567.37L2103.62 1585.22L2418 1598L2246.28 1567.37Z" fill="white"/>
<path d="M2103.62 1585.22L2021.44 1590.38L2418 1598L2103.62 1585.22Z" fill="white"/>
</g>
<defs>
<clipPath id="clip0_271_2">
<rect width="2418" height="1598" fill="white"/>
</clipPath>
</defs>
</svg>
