<svg width="1383" height="984" viewBox="0 0 1383 984" fill="none" xmlns="http://www.w3.org/2000/svg">
<g clip-path="url(#clip0_271_913)">
<path d="M7.28461 46.0316L0 0L9.65825 191.744L7.28461 46.0316Z" fill="white"/>
<path d="M7.28418 46.0317L9.65782 191.744L14.4869 86.9032L7.28418 46.0317Z" fill="white"/>
<path d="M4.82872 452.534L2.45508 667.375L14.487 534.359L4.82872 452.534Z" fill="#FEFFFF"/>
<path d="M2.45508 667.376V790.072L16.9425 713.326L2.45508 667.376Z" fill="white"/>
<path d="M2.45508 790.072L7.2842 784.912L16.9425 713.325L2.45508 790.072Z" fill="white"/>
<path d="M14.487 534.359L2.45508 667.376L21.7716 641.739L14.487 534.359Z" fill="white"/>
<path d="M2.45508 667.376L16.9425 713.326L21.7716 641.739L2.45508 667.376Z" fill="#E1F6F9"/>
<path d="M0 0L7.28461 46.0316L29.0566 25.5549L0 0Z" fill="white"/>
<path d="M7.28418 46.0314L14.4869 86.9028L29.0562 25.5547L7.28418 46.0314Z" fill="white"/>
<path d="M9.65823 314.521L4.8291 452.534L31.4302 368.17L9.65823 314.521Z" fill="#FBFCFE"/>
<path d="M2.45508 790.072V925.546L38.7144 828.405L2.45508 790.072Z" fill="white"/>
<path d="M7.2842 784.912L2.45508 790.072L38.7144 828.405L7.2842 784.912Z" fill="#FEFFFF"/>
<path d="M16.9424 713.325L7.28418 784.912L58.0309 777.294L16.9424 713.325Z" fill="white"/>
<path d="M7.28418 784.912L38.7144 828.405L58.0309 777.295L7.28418 784.912Z" fill="white"/>
<path d="M9.6582 191.744V314.522L65.3159 250.553L9.6582 191.744Z" fill="white"/>
<path d="M2.45508 925.546V1035.55L65.3155 935.784L2.45508 925.546Z" fill="white"/>
<path d="M38.7144 828.404L2.45508 925.546L65.3155 935.784L38.7144 828.404Z" fill="#FEFEFE"/>
<path d="M9.6582 191.743L65.3159 250.552L74.9742 163.649L9.6582 191.743Z" fill="#FEFEFE"/>
<path d="M14.4873 86.9028L9.6582 191.743L74.9742 163.649L14.4873 86.9028Z" fill="#FEFEFE"/>
<path d="M67.6895 97.1412L14.4873 86.9028L74.9741 163.649L67.6895 97.1412Z" fill="white"/>
<path d="M29.0565 25.5547L14.4873 86.9028L82.1769 48.5705L29.0565 25.5547Z" fill="white"/>
<path d="M14.4873 86.9031L67.6895 97.1415L82.1769 48.5708L14.4873 86.9031Z" fill="white"/>
<path d="M9.6582 314.521L31.4302 368.17L84.6324 327.299L9.6582 314.521Z" fill="white"/>
<path d="M65.3159 250.553L9.6582 314.522L84.6324 327.299L65.3159 250.553Z" fill="#FCFEFD"/>
<path d="M31.4302 368.171L4.8291 452.535L84.6324 475.551L31.4302 368.171Z" fill="#FBFDFC"/>
<path d="M84.6329 327.299L31.4307 368.17L84.6329 475.55V327.299Z" fill="#FEFEFE"/>
<path d="M4.8291 452.534L14.4874 534.359L84.6324 475.55L4.8291 452.534Z" fill="#FEFEFE"/>
<path d="M21.7715 641.739L16.9424 713.326L108.778 728.724L21.7715 641.739Z" fill="white"/>
<path d="M16.9424 713.325L58.0309 777.294L108.778 728.724L16.9424 713.325Z" fill="#FDFFFE"/>
<path d="M21.7725 641.739L108.779 728.724L116.063 595.707L21.7725 641.739Z" fill="#F3FBFD"/>
<path d="M84.6324 475.551L14.4873 534.36L116.063 595.708L84.6324 475.551Z" fill="#FEFEFE"/>
<path d="M108.778 478.09L84.6328 475.551L116.063 595.708L108.778 478.09Z" fill="#E9FBFB"/>
<path d="M14.4873 534.359L21.7719 641.739L116.063 595.707L14.4873 534.359Z" fill="#B8F4F2"/>
<path d="M65.3156 935.784L2.45508 1035.55L135.379 992.054L65.3156 935.784Z" fill="white"/>
<path d="M67.6897 97.1416L74.9743 163.65L149.949 104.841L67.6897 97.1416Z" fill="#FEFEFE"/>
<path d="M82.1771 48.5708L67.6897 97.1415L149.949 104.841L82.1771 48.5708Z" fill="white"/>
<path d="M84.6328 327.299V475.55L164.436 416.741L84.6328 327.299Z" fill="white"/>
<path d="M84.6328 475.55L108.778 478.089L164.436 416.741L84.6328 475.55Z" fill="#FAFEFF"/>
<path d="M164.436 416.741L108.778 478.089L169.265 424.44L164.436 416.741Z" fill="#DAF6F9"/>
<path d="M65.3164 250.553L84.6329 327.299L171.639 191.744L65.3164 250.553Z" fill="#FAFEFF"/>
<path d="M74.9747 163.649L65.3164 250.552L171.639 191.743L74.9747 163.649Z" fill="white"/>
<path d="M149.949 104.841L74.9746 163.65L171.639 191.744L149.949 104.841Z" fill="white"/>
<path d="M149.948 104.841L171.639 191.744L178.923 120.157L149.948 104.841Z" fill="white"/>
<path d="M116.063 595.707L108.778 728.724L186.208 736.341L116.063 595.707Z" fill="#FFFEFF"/>
<path d="M38.7148 828.404L65.316 935.784L191.037 833.564L38.7148 828.404Z" fill="#FEFEFE"/>
<path d="M58.0313 777.295L38.7148 828.405L191.037 833.565L58.0313 777.295Z" fill="white"/>
<path d="M108.778 728.724L58.0312 777.294L191.037 833.564L108.778 728.724Z" fill="white"/>
<path d="M186.208 736.341L108.778 728.724L191.037 833.564L186.208 736.341Z" fill="white"/>
<path d="M65.3164 935.784L135.38 992.054L191.037 833.564L65.3164 935.784Z" fill="white"/>
<path d="M82.177 48.5706L149.948 104.84L203.069 12.7773L82.177 48.5706Z" fill="white"/>
<path d="M0 0L29.0566 25.5549L203.069 12.7774L0 0Z" fill="white"/>
<path d="M29.0566 25.5548L82.177 48.5706L203.069 12.7773L29.0566 25.5548Z" fill="#FEFEFE"/>
<path d="M116.062 595.707L186.208 736.341L210.353 575.312L116.062 595.707Z" fill="#FEFFFF"/>
<path d="M108.778 478.09L116.063 595.708L210.354 575.313L108.778 478.09Z" fill="#FAFEFF"/>
<path d="M149.948 104.841L178.923 120.157L217.638 58.8091L149.948 104.841Z" fill="white"/>
<path d="M203.069 12.7773L149.948 104.84L217.638 58.8089L203.069 12.7773Z" fill="white"/>
<path d="M178.923 120.157L171.639 191.744L220.012 230.076L178.923 120.157Z" fill="white"/>
<path d="M84.6328 327.299L164.436 416.742L220.012 230.076L84.6328 327.299Z" fill="white"/>
<path d="M171.639 191.744L84.6328 327.299L220.012 230.076L171.639 191.744Z" fill="#FCFEFD"/>
<path d="M169.265 424.44L108.778 478.089L239.41 511.343L169.265 424.44Z" fill="#F9FDFE"/>
<path d="M108.778 478.09L210.354 575.313L239.41 511.344L108.778 478.09Z" fill="#D4F7F9"/>
<path d="M186.208 736.342L191.037 833.565L251.442 813.088L186.208 736.342Z" fill="#FFFDFE"/>
<path d="M251.442 813.088L191.037 833.565L251.442 884.674V813.088Z" fill="#FAFEFD"/>
<path d="M191.037 833.564L135.379 992.054L251.442 884.674L191.037 833.564Z" fill="white"/>
<path d="M164.436 416.741L169.265 424.44L275.669 306.822L164.436 416.741Z" fill="#FEFFFF"/>
<path d="M220.012 230.076L164.436 416.742L275.669 306.823L220.012 230.076Z" fill="#FDFDFD"/>
<path d="M217.638 58.8091L178.923 120.157L280.498 97.1414L217.638 58.8091Z" fill="white"/>
<path d="M178.923 120.157L220.011 230.076L280.498 97.1416L178.923 120.157Z" fill="white"/>
<path d="M239.41 511.344L210.354 575.313L280.499 603.407L239.41 511.344Z" fill="#FAFEFD"/>
<path d="M210.354 575.312L186.208 736.341L280.499 603.406L210.354 575.312Z" fill="#FDFDFD"/>
<path d="M186.208 736.341L251.442 813.087L280.499 603.406L186.208 736.341Z" fill="#FDFFFE"/>
<path d="M251.442 884.675L135.379 992.054L302.27 989.515L251.442 884.675Z" fill="#FEFEFE"/>
<path d="M220.012 230.076L275.669 306.823L309.473 176.427L220.012 230.076Z" fill="#FDFDFD"/>
<path d="M280.499 97.1416L220.012 230.076L309.473 176.427L280.499 97.1416Z" fill="white"/>
<path d="M280.498 603.406L251.441 813.087L316.757 833.564L280.498 603.406Z" fill="#E1F5F4"/>
<path d="M251.441 813.088V884.674L316.757 833.565L251.441 813.088Z" fill="white"/>
<path d="M251.441 884.674L302.27 989.515L316.757 833.564L251.441 884.674Z" fill="#FEFEFE"/>
<path d="M203.068 12.7773L217.638 58.8089L319.131 12.7773H203.068Z" fill="#FEFEFE"/>
<path d="M217.638 58.8089L280.498 97.1413L319.131 12.7773L217.638 58.8089Z" fill="#FEFEFE"/>
<path d="M275.669 306.822L169.265 424.44L357.846 426.979L275.669 306.822Z" fill="#FEFEFE"/>
<path d="M326.416 327.299L275.669 306.822L357.846 426.979L326.416 327.299Z" fill="#F9FAFC"/>
<path d="M169.265 424.44L239.41 511.343L357.846 426.98L169.265 424.44Z" fill="#F9FAFE"/>
<path d="M239.41 511.343L280.498 603.407L357.846 426.979L239.41 511.343Z" fill="#9DE8EB"/>
<path d="M280.498 97.1412L309.473 176.427L357.846 92.063L280.498 97.1412Z" fill="white"/>
<path d="M319.131 12.7773L280.498 97.1413L357.846 92.063L319.131 12.7773Z" fill="#FEFEFE"/>
<path d="M309.473 176.427L275.669 306.823L362.675 235.236L309.473 176.427Z" fill="white"/>
<path d="M275.669 306.823L326.416 327.299L362.675 235.236L275.669 306.823Z" fill="white"/>
<path d="M316.758 833.564L302.271 989.515L413.504 923.007L316.758 833.564Z" fill="white"/>
<path d="M302.271 989.515L360.302 1045.79L413.504 923.007L302.271 989.515Z" fill="white"/>
<path d="M326.416 327.299L357.846 426.979L425.536 373.33L326.416 327.299Z" fill="white"/>
<path d="M362.675 235.236L326.416 327.299L425.536 373.331L362.675 235.236Z" fill="#FEFEFE"/>
<path d="M357.847 92.063L309.474 176.427L427.992 148.333L357.847 92.063Z" fill="white"/>
<path d="M309.474 176.427L362.676 235.236L427.992 148.333L309.474 176.427Z" fill="white"/>
<path d="M280.498 603.406L316.757 833.564L430.365 662.215L280.498 603.406Z" fill="#FBFFFF"/>
<path d="M316.758 833.565L413.504 923.007L444.934 761.979L316.758 833.565Z" fill="white"/>
<path d="M430.365 662.216L316.758 833.565L444.934 761.978L430.365 662.216Z" fill="#FEFEFE"/>
<path d="M357.847 92.063L427.992 148.333L471.536 81.8247L357.847 92.063Z" fill="white"/>
<path d="M444.934 761.979L413.504 923.007L481.194 876.976L444.934 761.979Z" fill="#FEFEFE"/>
<path d="M319.132 12.7774L357.847 92.0631L486.023 2.53906L319.132 12.7774Z" fill="white"/>
<path d="M357.847 92.0631L471.536 81.8248L486.023 2.53906L357.847 92.0631Z" fill="#FEFEFE"/>
<path d="M0 0L203.069 12.7774L486.023 2.53911L0 0Z" fill="white"/>
<path d="M203.068 12.7774H319.131L486.022 2.53906L203.068 12.7774Z" fill="#FEFEFE"/>
<path d="M357.846 426.979L280.498 603.407L486.022 562.535L357.846 426.979Z" fill="#FDFFFE"/>
<path d="M280.498 603.407L430.365 662.216L486.022 562.535L280.498 603.407Z" fill="#EAFAFA"/>
<path d="M425.536 373.331L357.847 426.98L486.023 485.789L425.536 373.331Z" fill="#E1F9F9"/>
<path d="M357.847 426.979L486.023 562.535V485.789L357.847 426.979Z" fill="#BCF3F0"/>
<path d="M362.676 235.236L425.536 373.331L495.681 322.139L362.676 235.236Z" fill="white"/>
<path d="M427.992 148.333L362.676 235.236L500.51 214.759L427.992 148.333Z" fill="white"/>
<path d="M362.676 235.236L495.681 322.139L500.51 214.76L362.676 235.236Z" fill="#DCF4F4"/>
<path d="M471.535 81.8247L427.991 148.333L500.51 214.759L471.535 81.8247Z" fill="white"/>
<path d="M495.681 322.139L425.536 373.33L527.111 432.139L495.681 322.139Z" fill="#FFFEFF"/>
<path d="M425.536 373.331L486.023 485.789L527.111 432.14L425.536 373.331Z" fill="#A5EFF0"/>
<path d="M486.022 485.789L527.111 457.695V432.14L486.022 485.789Z" fill="#FDFFFE"/>
<path d="M413.504 923.007L360.302 1045.79L531.94 1066.18L413.504 923.007Z" fill="white"/>
<path d="M486.022 485.789V562.536L544.054 577.852L486.022 485.789Z" fill="white"/>
<path d="M527.111 457.694L486.022 485.788L544.054 577.851L527.111 457.694Z" fill="#DBFAFC"/>
<path d="M481.194 876.976L413.504 923.007L544.054 920.468L481.194 876.976Z" fill="white"/>
<path d="M413.504 923.007L531.94 1066.18L544.054 920.468L413.504 923.007Z" fill="white"/>
<path d="M486.023 562.535L430.365 662.216L553.712 680.153L486.023 562.535Z" fill="#F8FCFD"/>
<path d="M544.054 577.852L486.022 562.535L553.712 680.153L544.054 577.852Z" fill="#EAFAFA"/>
<path d="M430.365 662.216L444.934 761.978L553.712 680.153L430.365 662.216Z" fill="white"/>
<path d="M495.681 322.139L527.111 432.139L558.541 342.615L495.681 322.139Z" fill="#F3FEFF"/>
<path d="M481.193 876.975L544.054 920.468L589.971 800.311L481.193 876.975Z" fill="white"/>
<path d="M444.935 761.979L481.194 876.976L589.972 800.311L444.935 761.979Z" fill="#F8FCFD"/>
<path d="M553.713 680.153L444.935 761.978L589.972 800.31L553.713 680.153Z" fill="#FAFCFB"/>
<path d="M500.51 214.76L495.681 322.139L592.427 235.236L500.51 214.76Z" fill="#FEFEFE"/>
<path d="M495.681 322.139L558.541 342.616L592.427 235.236L495.681 322.139Z" fill="white"/>
<path d="M486.023 2.53906L471.535 81.8248L614.199 17.9375L486.023 2.53906Z" fill="white"/>
<path d="M614.199 17.9375L471.535 81.8247L616.573 132.935L614.199 17.9375Z" fill="#FEFEFE"/>
<path d="M471.535 81.8247L500.51 214.759L616.573 132.935L471.535 81.8247Z" fill="white"/>
<path d="M500.51 214.759L592.427 235.236L616.572 132.935L500.51 214.759Z" fill="#FDFFFE"/>
<path d="M544.054 920.468L531.94 1066.18L626.231 966.499L544.054 920.468Z" fill="white"/>
<path d="M531.94 1066.18L606.915 1109.67L626.231 966.499L531.94 1066.18Z" fill="white"/>
<path d="M589.971 800.311L544.054 920.468L635.889 851.42L589.971 800.311Z" fill="white"/>
<path d="M544.054 920.467L626.231 966.499L635.889 851.42L544.054 920.467Z" fill="white"/>
<path d="M527.111 457.694L544.054 577.851L638.345 513.964L527.111 457.694Z" fill="#EAF8FB"/>
<path d="M527.111 432.14V457.695L638.345 513.964L527.111 432.14Z" fill="white"/>
<path d="M589.972 800.311L635.889 851.421L662.49 741.502L589.972 800.311Z" fill="white"/>
<path d="M553.712 680.153L589.971 800.31L662.49 741.501L553.712 680.153Z" fill="white"/>
<path d="M558.542 342.616L527.111 432.14L672.231 352.855L558.542 342.616Z" fill="#F2FCFB"/>
<path d="M527.111 432.14L638.345 513.965L672.231 352.854L527.111 432.14Z" fill="#F7FCFF"/>
<path d="M592.427 235.236L558.541 342.616L672.23 352.854L592.427 235.236Z" fill="white"/>
<path d="M635.89 851.42L626.231 966.499L684.263 882.135L635.89 851.42Z" fill="white"/>
<path d="M662.491 741.502L635.89 851.421L684.263 882.136L662.491 741.502Z" fill="white"/>
<path d="M614.199 17.9375L616.573 132.935L693.921 17.9375H614.199Z" fill="white"/>
<path d="M486.022 2.53906L614.199 17.9375H693.92L486.022 2.53906Z" fill="white"/>
<path d="M553.712 680.153L662.49 741.501L693.92 565.074L553.712 680.153Z" fill="white"/>
<path d="M544.054 577.852L553.712 680.153L693.92 565.074L544.054 577.852Z" fill="#FFFEFF"/>
<path d="M638.344 513.965L544.054 577.852L693.92 565.075L638.344 513.965Z" fill="white"/>
<path d="M626.231 966.499L606.914 1109.67L708.489 963.96L626.231 966.499Z" fill="white"/>
<path d="M684.263 882.136L626.231 966.5L708.49 963.961L684.263 882.136Z" fill="white"/>
<path d="M592.427 235.236L672.23 352.854L727.806 263.33L592.427 235.236Z" fill="#FEFEFE"/>
<path d="M672.23 352.854L638.345 513.965L735.091 437.218L672.23 352.854Z" fill="#F4FDFC"/>
<path d="M638.345 513.964L693.921 565.074L735.091 437.218L638.345 513.964Z" fill="#FCFEFD"/>
<path d="M727.806 263.33L672.23 352.854L744.749 314.522L727.806 263.33Z" fill="#D9F6F4"/>
<path d="M672.23 352.854L735.091 437.218L744.749 314.521L672.23 352.854Z" fill="#F8FCFD"/>
<path d="M693.921 17.9375L616.573 132.935L747.123 125.317L693.921 17.9375Z" fill="white"/>
<path d="M747.123 125.317L616.573 132.935L747.123 212.22V125.317Z" fill="white"/>
<path d="M727.807 263.33L744.75 314.522L747.123 212.221L727.807 263.33Z" fill="#FDFDFD"/>
<path d="M616.572 132.935L592.427 235.236L747.122 212.22L616.572 132.935Z" fill="white"/>
<path d="M592.427 235.236L727.806 263.33L747.122 212.221L592.427 235.236Z" fill="white"/>
<path d="M693.92 565.074L662.49 741.501L761.692 667.376L693.92 565.074Z" fill="#FCFEFD"/>
<path d="M708.489 963.96L606.914 1109.67L761.692 1045.78L708.489 963.96Z" fill="white"/>
<path d="M735.091 437.218L693.921 565.074L764.066 536.898L735.091 437.218Z" fill="#E9F7F8"/>
<path d="M693.921 565.074L761.692 667.376L764.066 536.898L693.921 565.074Z" fill="#FCFEFD"/>
<path d="M662.49 741.502L684.262 882.136L790.667 836.104L662.49 741.502Z" fill="#FDFDFD"/>
<path d="M684.263 882.135L708.49 963.96L790.667 836.104L684.263 882.135Z" fill="white"/>
<path d="M744.749 314.521L735.091 437.218L797.951 432.14L744.749 314.521Z" fill="white"/>
<path d="M735.091 437.218L764.066 536.898L797.952 432.14L735.091 437.218Z" fill="#DFF5F3"/>
<path d="M761.692 667.376L662.49 741.502L805.154 761.978L761.692 667.376Z" fill="#FEFEFE"/>
<path d="M662.49 741.502L790.667 836.104L805.154 761.979L662.49 741.502Z" fill="#FCFCFC"/>
<path d="M693.921 17.9375L747.123 125.317L848.698 63.8872L693.921 17.9375Z" fill="white"/>
<path d="M797.951 432.14L764.065 536.898L858.356 593.168L797.951 432.14Z" fill="#AFEDEA"/>
<path d="M764.066 536.898L761.692 667.376L858.357 593.168L764.066 536.898Z" fill="white"/>
<path d="M805.154 761.979L790.667 836.104L865.641 866.737L805.154 761.979Z" fill="white"/>
<path d="M790.667 836.104L708.49 963.96L865.641 866.737L790.667 836.104Z" fill="white"/>
<path d="M708.49 963.96L761.692 1045.78L875.3 1012.53L708.49 963.96Z" fill="white"/>
<path d="M865.641 866.736L708.49 963.96L875.3 1012.53L865.641 866.736Z" fill="white"/>
<path d="M744.749 314.521L797.951 432.14L877.755 329.838L744.749 314.521Z" fill="#C5ECEB"/>
<path d="M747.123 212.221L744.749 314.522L877.755 329.839L747.123 212.221Z" fill="#FDFDFD"/>
<path d="M805.154 761.979L865.641 866.737L884.958 746.58L805.154 761.979Z" fill="#FEFEFE"/>
<path d="M761.692 667.376L805.155 761.978L884.958 746.58L761.692 667.376Z" fill="white"/>
<path d="M858.357 593.168L761.692 667.375L884.958 746.579L858.357 593.168Z" fill="white"/>
<path d="M797.951 432.14L858.356 593.168L887.413 432.14H797.951Z" fill="#CAECED"/>
<path d="M877.755 329.838L797.951 432.139H887.413L877.755 329.838Z" fill="white"/>
<path d="M747.123 212.22L877.755 329.839L889.787 176.427L747.123 212.22Z" fill="#FDFFFE"/>
<path d="M747.123 125.317V212.22L889.787 176.427L747.123 125.317Z" fill="#F9FDFE"/>
<path d="M848.698 63.8872L747.123 125.317L889.787 176.427L848.698 63.8872Z" fill="white"/>
<path d="M486.022 2.53911L693.92 17.9376L899.445 0L486.022 2.53911Z" fill="#FEFEFE"/>
<path d="M693.921 17.9376L848.698 63.8872L899.445 0L693.921 17.9376Z" fill="#FEFEFE"/>
<path d="M848.698 63.8872L899.445 5.07822V0L848.698 63.8872Z" fill="white"/>
<path d="M884.957 746.58L865.641 866.737L918.843 874.436L884.957 746.58Z" fill="white"/>
<path d="M865.641 866.736L875.299 1012.53L921.217 897.451L865.641 866.736Z" fill="white"/>
<path d="M918.843 874.436L865.641 866.736L921.217 897.451L918.843 874.436Z" fill="#FEFEFE"/>
<path d="M858.356 593.168L884.958 746.579L923.672 674.993L858.356 593.168Z" fill="#FCFEFD"/>
<path d="M887.413 432.14L858.356 593.168L926.046 501.105L887.413 432.14Z" fill="#FDFFFE"/>
<path d="M858.356 593.169L923.672 674.993L926.046 501.105L858.356 593.169Z" fill="#F6F7F9"/>
<path d="M899.445 0V5.07822L933.331 23.0158L899.445 0Z" fill="white"/>
<path d="M899.445 5.07812L848.698 63.8872L933.331 23.0157L899.445 5.07812Z" fill="#FEFEFE"/>
<path d="M918.844 874.436L921.217 897.451L940.616 917.928L918.844 874.436Z" fill="white"/>
<path d="M921.217 897.452L875.3 1012.53L940.616 917.929L921.217 897.452Z" fill="white"/>
<path d="M848.698 63.8874L889.787 176.427L950.274 38.3325L848.698 63.8874Z" fill="white"/>
<path d="M933.331 23.0156L848.698 63.8871L950.274 38.3322L933.331 23.0156Z" fill="white"/>
<path d="M877.755 329.838L887.413 432.139L981.704 334.916L877.755 329.838Z" fill="#FBFDFC"/>
<path d="M887.413 432.14L926.046 501.105L988.988 506.265L887.413 432.14Z" fill="#F4FAFA"/>
<path d="M981.704 334.917L887.413 432.14L988.988 506.266L981.704 334.917Z" fill="#E2F5F3"/>
<path d="M926.047 501.105L923.673 674.993L988.989 506.266L926.047 501.105Z" fill="#F6FCFC"/>
<path d="M889.787 176.427L877.755 329.839L991.362 230.076L889.787 176.427Z" fill="#F5FBFB"/>
<path d="M877.755 329.839L981.704 334.917L991.362 230.076L877.755 329.839Z" fill="white"/>
<path d="M950.274 38.3325L889.787 176.427L1008.31 76.6649L950.274 38.3325Z" fill="#FEFEFE"/>
<path d="M988.989 506.266L923.673 674.993L1013.13 664.755L988.989 506.266Z" fill="#F4FAF8"/>
<path d="M991.362 230.076L981.704 334.917L1013.13 304.284L991.362 230.076Z" fill="white"/>
<path d="M923.672 674.993L884.957 746.58L1022.79 759.357L923.672 674.993Z" fill="white"/>
<path d="M1013.13 664.755L923.673 674.993L1022.79 759.357L1013.13 664.755Z" fill="#F0F4F5"/>
<path d="M884.957 746.58L918.843 874.436L1022.79 759.358L884.957 746.58Z" fill="white"/>
<path d="M918.844 874.436L940.616 917.929L1022.79 759.357L918.844 874.436Z" fill="#FCFEFD"/>
<path d="M940.616 917.929L875.3 1012.53L1027.62 961.339L940.616 917.929Z" fill="white"/>
<path d="M875.3 1012.53L996.192 1086.66L1027.62 961.339L875.3 1012.53Z" fill="white"/>
<path d="M889.787 176.427L991.362 230.076L1030.08 122.696L889.787 176.427Z" fill="white"/>
<path d="M1008.31 76.6646L889.787 176.427L1030.08 122.696L1008.31 76.6646Z" fill="#FEFEFE"/>
<path d="M991.362 230.076L1013.13 304.284L1042.11 186.666L991.362 230.076Z" fill="#FEFEFE"/>
<path d="M1030.08 122.696L991.362 230.076L1042.11 186.665L1030.08 122.696Z" fill="#F9FDFE"/>
<path d="M1030.08 122.696L1042.11 186.665L1083.28 171.349L1030.08 122.696Z" fill="white"/>
<path d="M1027.62 961.339L996.191 1086.66H1088.11L1027.62 961.339Z" fill="white"/>
<path d="M981.704 334.917L988.989 506.266L1090.48 434.679L981.704 334.917Z" fill="#F7FBFA"/>
<path d="M1013.13 304.283L981.704 334.916L1090.48 434.679L1013.13 304.283Z" fill="#FEFEFE"/>
<path d="M940.615 917.928L1027.62 961.339L1102.6 851.42L940.615 917.928Z" fill="white"/>
<path d="M1022.79 759.357L940.615 917.929L1102.6 851.421L1022.79 759.357Z" fill="#FEFEFE"/>
<path d="M1097.77 807.928L1022.79 759.357L1102.6 851.421L1097.77 807.928Z" fill="#FCFEFD"/>
<path d="M933.331 23.0157L950.274 38.3323L1102.6 2.53906L933.331 23.0157Z" fill="white"/>
<path d="M950.273 38.3323L1008.3 76.6646L1102.6 2.53906L950.273 38.3323Z" fill="white"/>
<path d="M899.445 0L933.331 23.0158L1102.6 2.53911L899.445 0Z" fill="#FEFEFE"/>
<path d="M1030.08 122.696L1083.28 171.349L1107.42 112.54L1030.08 122.696Z" fill="#FEFEFE"/>
<path d="M1008.3 76.6646L1030.08 122.696L1107.42 112.54L1008.3 76.6646Z" fill="white"/>
<path d="M1102.6 2.53906L1008.3 76.6646L1107.42 112.54L1102.6 2.53906Z" fill="white"/>
<path d="M1013.13 304.283L1090.48 434.679L1117.08 288.885L1013.13 304.283Z" fill="#FEFEFE"/>
<path d="M1042.11 186.666L1013.13 304.284L1117.08 288.885L1042.11 186.666Z" fill="white"/>
<path d="M1083.28 171.349L1042.11 186.665L1117.08 288.885L1083.28 171.349Z" fill="white"/>
<path d="M1102.6 2.53906L1107.42 112.54L1136.48 46.0315L1102.6 2.53906Z" fill="white"/>
<path d="M1013.13 664.755L1022.79 759.357L1138.85 692.931L1013.13 664.755Z" fill="#FCFEFD"/>
<path d="M1022.79 759.357L1097.77 807.928L1138.85 692.931L1022.79 759.357Z" fill="#FBFDFC"/>
<path d="M1027.62 961.339L1088.11 1086.66L1143.68 953.722L1027.62 961.339Z" fill="white"/>
<path d="M1102.6 851.42L1027.62 961.339L1143.68 953.721L1102.6 851.42Z" fill="#FEFEFE"/>
<path d="M1090.48 434.679L988.988 506.265L1146.14 567.613L1090.48 434.679Z" fill="#F9FBFA"/>
<path d="M988.988 506.266L1013.13 664.755L1146.14 567.614L988.988 506.266Z" fill="#FDFFFE"/>
<path d="M1013.13 664.755L1138.85 692.931L1146.14 567.613L1013.13 664.755Z" fill="#F1FAF9"/>
<path d="M1090.48 434.679L1146.14 567.613L1153.34 457.694L1090.48 434.679Z" fill="#F2FBF8"/>
<path d="M1102.6 851.42L1143.68 953.721L1155.8 902.53L1102.6 851.42Z" fill="white"/>
<path d="M1143.68 953.722L1088.11 1086.66L1165.46 1043.16L1143.68 953.722Z" fill="white"/>
<path d="M1117.08 288.885L1090.48 434.679L1182.4 368.17L1117.08 288.885Z" fill="#FCFCFC"/>
<path d="M1090.48 434.679L1153.34 457.695L1182.4 368.171L1090.48 434.679Z" fill="#EDF6F5"/>
<path d="M1107.42 112.54L1083.28 171.349L1204.17 227.537L1107.42 112.54Z" fill="white"/>
<path d="M1083.28 171.349L1117.08 288.885L1204.17 227.537L1083.28 171.349Z" fill="white"/>
<path d="M1102.6 2.53906L1136.48 46.0315L1206.54 2.53906H1102.6Z" fill="#FEFEFE"/>
<path d="M1117.08 288.885L1182.4 368.17L1209 329.838L1117.08 288.885Z" fill="white"/>
<path d="M1204.17 227.537L1117.08 288.885L1209 329.839L1204.17 227.537Z" fill="#FEFEFE"/>
<path d="M1206.54 2.53906L1136.48 46.0315L1211.37 7.69919L1206.54 2.53906Z" fill="white"/>
<path d="M1097.77 807.928L1102.6 851.42L1230.77 853.959L1097.77 807.928Z" fill="white"/>
<path d="M1102.6 851.42L1155.8 902.53L1230.77 853.959L1102.6 851.42Z" fill="#FCFEFD"/>
<path d="M1138.85 692.931L1097.77 807.928L1250.09 761.978L1138.85 692.931Z" fill="#F5F9F8"/>
<path d="M1097.77 807.928L1230.77 853.96L1250.09 761.979L1097.77 807.928Z" fill="#F5FBF9"/>
<path d="M1211.37 7.69922L1136.48 46.0316L1257.37 89.524L1211.37 7.69922Z" fill="white"/>
<path d="M1136.48 46.0317L1107.42 112.54L1257.37 89.5242L1136.48 46.0317Z" fill="white"/>
<path d="M1107.42 112.54L1204.17 227.537L1257.37 89.5239L1107.42 112.54Z" fill="white"/>
<path d="M1153.34 457.694L1146.14 567.613L1271.86 470.472L1153.34 457.694Z" fill="#F9FBFA"/>
<path d="M1182.4 368.171L1153.34 457.695L1271.86 470.472L1182.4 368.171Z" fill="#FEFEFE"/>
<path d="M1209 329.838L1182.4 368.17L1271.86 470.472L1209 329.838Z" fill="white"/>
<path d="M1143.68 953.722L1165.46 1043.16L1279.14 1015.07L1143.68 953.722Z" fill="white"/>
<path d="M1155.8 902.53L1143.68 953.722L1279.14 1015.07L1155.8 902.53Z" fill="white"/>
<path d="M1209 329.838L1271.86 470.472L1281.52 281.268L1209 329.838Z" fill="white"/>
<path d="M1204.17 227.537L1209 329.839L1281.52 281.268L1204.17 227.537Z" fill="white"/>
<path d="M1146.14 567.613L1138.86 692.931L1291.18 598.328L1146.14 567.613Z" fill="#FEFFFF"/>
<path d="M1138.86 692.93L1250.09 761.978L1291.18 598.328L1138.86 692.93Z" fill="#FCFEFD"/>
<path d="M1257.37 89.5239L1204.17 227.537L1291.18 217.298L1257.37 89.5239Z" fill="white"/>
<path d="M1204.17 227.537L1281.52 281.268L1291.18 217.299L1204.17 227.537Z" fill="white"/>
<path d="M1271.86 470.473L1146.14 567.614L1296.01 521.582L1271.86 470.473Z" fill="white"/>
<path d="M1146.14 567.614L1291.18 598.329L1296.01 521.582L1146.14 567.614Z" fill="#F9FDFC"/>
<path d="M1230.77 853.959L1155.8 902.53L1310.58 961.339L1230.77 853.959Z" fill="white"/>
<path d="M1155.8 902.53L1279.15 1015.07L1310.58 961.339L1155.8 902.53Z" fill="white"/>
<path d="M1310.58 961.339L1279.15 1015.07L1329.89 1004.83L1310.58 961.339Z" fill="white"/>
<path d="M1291.18 598.328L1250.09 761.978L1342.01 705.708L1291.18 598.328Z" fill="#FEFEFE"/>
<path d="M1291.18 217.298L1281.52 281.268L1351.66 194.283L1291.18 217.298Z" fill="#FEFEFE"/>
<path d="M1257.37 89.5239L1291.18 217.298L1351.66 194.283L1257.37 89.5239Z" fill="white"/>
<path d="M1230.77 853.959L1310.57 961.339L1363.7 866.736L1230.77 853.959Z" fill="white"/>
<path d="M1291.18 598.328L1342.01 705.708L1373.44 690.309L1291.18 598.328Z" fill="#F3FCF9"/>
<path d="M1373.44 690.31L1342.01 705.708L1373.44 818.166V690.31Z" fill="#FEFEFE"/>
<path d="M1342.01 705.708L1250.09 761.978L1373.44 818.166L1342.01 705.708Z" fill="#FEFEFE"/>
<path d="M1250.09 761.979L1230.77 853.96L1373.44 818.167L1250.09 761.979Z" fill="white"/>
<path d="M1230.77 853.959L1363.7 866.737L1373.44 818.166L1230.77 853.959Z" fill="white"/>
<path d="M1211.37 7.69914L1257.37 89.524L1380.64 5.07812L1211.37 7.69914Z" fill="white"/>
<path d="M1206.54 2.53906L1211.37 7.69918L1380.64 5.07817L1206.54 2.53906Z" fill="white"/>
<path d="M1281.52 281.268L1271.86 470.472L1400.04 357.932L1281.52 281.268Z" fill="white"/>
<path d="M1351.66 194.283L1281.52 281.268L1400.04 357.932L1351.66 194.283Z" fill="#FEFEFE"/>
<path d="M1257.37 89.5239L1351.66 194.283L1404.87 122.696L1257.37 89.5239Z" fill="white"/>
<path d="M1380.64 5.07812L1257.37 89.524L1404.87 122.696L1380.64 5.07812Z" fill="white"/>
<path d="M1310.58 961.339L1329.89 1004.83L1407.24 984.355L1310.58 961.339Z" fill="white"/>
<path d="M1363.7 866.736L1310.58 961.339L1407.24 984.354L1363.7 866.736Z" fill="#FCFEFD"/>
<path d="M1296.01 521.582L1291.18 598.329L1409.7 539.52L1296.01 521.582Z" fill="white"/>
<path d="M1291.18 598.328L1373.44 690.309L1416.9 598.328H1291.18Z" fill="#FAFEFD"/>
<path d="M1409.7 539.52L1291.18 598.329H1416.9L1409.7 539.52Z" fill="white"/>
<path d="M1400.04 357.933L1271.86 470.472L1419.35 501.106L1400.04 357.933Z" fill="white"/>
<path d="M1271.86 470.473L1296.01 521.582L1419.35 501.106L1271.86 470.473Z" fill="#FCFEFD"/>
<path d="M1296.01 521.582L1409.7 539.52L1419.35 501.105L1296.01 521.582Z" fill="white"/>
<path d="M1373.44 690.31V818.166L1465.27 726.103L1373.44 690.31Z" fill="white"/>
<path d="M1416.9 598.328L1373.44 690.309L1465.27 726.103L1416.9 598.328Z" fill="white"/>
<path d="M1465.27 726.104L1373.44 818.167L1482.21 774.756L1465.27 726.104Z" fill="#FDFFFE"/>
<path d="M1380.64 5.07812L1404.87 122.696L1491.87 30.7149L1380.64 5.07812Z" fill="white"/>
<path d="M1363.7 866.736L1407.24 984.354L1513.64 899.991L1363.7 866.736Z" fill="#FDFFFE"/>
<path d="M1373.44 818.166L1363.7 866.737L1513.64 899.991L1373.44 818.166Z" fill="white"/>
<path d="M1482.21 774.756L1373.44 818.166L1513.64 899.991L1482.21 774.756Z" fill="#FEFFFF"/>
<path d="M1404.87 122.696L1351.66 194.283L1537.79 191.744L1404.87 122.696Z" fill="white"/>
<path d="M1351.66 194.283L1400.04 357.932L1552.36 248.014L1351.66 194.283Z" fill="white"/>
<path d="M1537.79 191.744L1351.66 194.283L1552.36 248.014L1537.79 191.744Z" fill="white"/>
<path d="M1380.64 5.07812L1491.87 30.7149L1610.39 5.07812H1380.64Z" fill="white"/>
</g>
<defs>
<clipPath id="clip0_271_913">
<rect width="1383" height="984" fill="white"/>
</clipPath>
</defs>
</svg>
