<svg width="125" height="77" viewBox="0 0 125 77" fill="none" xmlns="http://www.w3.org/2000/svg">
<path d="M0.000225536 70.9284C0.000225536 66.6929 0.000226032 62.4574 0.0083473 58.2218C0.0083473 57.8169 0.0164683 57.4039 0.105802 57.0151C0.349441 55.9623 1.30775 55.274 2.56655 55.2497C3.91469 55.2254 5.27094 55.2335 6.61907 55.2335C9.3722 55.2335 12.1172 55.2254 14.8703 55.2416C16.2591 55.2497 17.2011 55.8895 17.4772 56.9989C17.5666 57.3553 17.5828 57.7359 17.5828 58.1084C17.5909 62.6679 17.5909 67.2274 17.5828 71.7868C17.5828 72.5481 17.396 72.7344 16.6245 72.7344C15.3576 72.7344 14.0825 72.7344 12.8156 72.7344C12.1253 72.7344 11.9142 72.5319 11.9142 71.8273C11.9142 68.2235 11.9142 60.9186 11.9142 60.87C11.9223 59.5824 11.7355 59.3961 10.4605 59.3961C9.27475 59.3961 8.0809 59.3961 6.8952 59.3961C5.92876 59.3961 5.66076 59.6391 5.66076 60.5947C5.65264 64.2309 5.65264 67.8672 5.65264 71.5034C5.65264 71.6978 5.66076 71.8921 5.64452 72.0865C5.62016 72.4914 5.37652 72.7182 4.9867 72.7263C3.55735 72.7344 2.11988 72.7344 0.690535 72.7263C0.365684 72.7263 0.187016 72.5724 0.0733178 72.3456C-0.007895 72.1756 0.000225536 71.1066 0.000225536 70.9284Z" fill="white"/>
<path d="M19.9865 76.9938C19.8078 76.9938 19.6291 76.9533 19.4748 76.8561C19.2068 76.6941 19.1094 76.435 19.1094 76.0382C19.1256 71.3977 19.1175 66.7572 19.1175 62.1168C19.1175 60.3999 19.9134 59.5334 21.627 59.5091C23.8847 59.4686 26.1505 59.4929 28.4164 59.501C29.3422 59.5091 30.2274 59.7115 31.0314 60.1731C32.2496 60.8777 32.8668 61.9953 33.1186 63.3154C33.5084 65.3967 33.4516 67.4861 32.8831 69.535C32.4039 71.2762 31.2263 72.329 29.4559 72.5639C28.2215 72.7259 24.64 72.734 24.0228 72.734C24.0228 72.9931 24.0228 73.2118 24.0228 73.4304C24.0228 74.3051 24.0228 75.0015 24.0228 75.8762C24.0228 76.6132 23.6817 76.9776 22.9507 76.9857C22.2686 77.0019 20.5874 77.0019 19.9865 76.9938ZM24.0471 68.628C24.0552 68.9438 24.307 69.1868 24.6237 69.1949C25.1841 69.2111 25.9394 69.203 26.4673 69.1949C27.5636 69.1706 28.124 68.5794 28.2296 67.5104C28.327 66.5386 28.3108 65.5344 28.1971 64.5625C28.0915 63.5907 27.4012 63.0724 26.4104 63.04C25.9069 63.0238 25.4034 63.0319 24.8998 63.0319C24.2095 63.0319 24.0228 63.2101 24.0228 63.8904C24.0146 65.1456 24.0309 67.5266 24.0471 68.628Z" fill="white"/>
<path d="M49.3943 63.623C48.9071 61.2016 47.6808 59.9544 45.2687 59.5657C42.9623 59.1931 40.6315 59.1931 38.325 59.6223C36.3759 59.9868 35.1334 61.1611 34.638 63.0723C34.1182 65.0727 34.1182 67.0892 34.6217 69.0895C35.109 71.0251 36.3353 72.2398 38.3169 72.58C39.5107 72.7824 43.815 72.8391 44.7327 72.742C47.3397 72.4585 48.8096 71.2194 49.3456 68.8466C49.7354 67.1135 49.7436 65.3642 49.3943 63.623ZM44.7084 67.1621C44.7084 68.4254 43.6851 69.4459 42.4182 69.4459H41.4761C40.2092 69.4459 39.1859 68.4254 39.1859 67.1621V64.9269C39.1859 63.6635 40.2092 62.6431 41.4761 62.6431H42.3694C43.6607 62.6431 44.7084 63.6878 44.7084 64.9755V67.1621Z" fill="white"/>
<path d="M55.0142 72.6771C52.4317 72.4666 50.9942 71.0493 50.6856 68.4821C50.4826 66.8138 50.4826 65.1455 50.7749 63.4853C51.1729 61.161 52.7646 59.6466 55.1198 59.5494C57.5724 59.4522 60.0332 59.4927 62.4939 59.4927C62.9812 59.4927 63.1924 59.7276 63.2005 60.2297C63.2167 60.829 63.2086 61.4283 63.2005 62.0357C63.1924 62.6026 62.965 62.8212 62.3884 62.8212C61.0565 62.8293 59.7165 62.8212 58.3846 62.8293C56.6141 62.8374 55.7695 63.5744 55.6315 65.348C55.5746 66.1335 55.5908 66.9434 55.7127 67.7208C55.8832 68.8222 56.5492 69.3486 57.678 69.381C59.1886 69.4134 60.7073 69.4053 62.2178 69.4053C63.4116 69.4053 63.4766 69.4701 63.4766 70.6768C63.4766 71.0979 63.4766 71.5191 63.4766 71.9402C63.4685 72.5233 63.2655 72.7419 62.6807 72.7419C61.4544 72.75 56.338 72.7905 55.0142 72.6771Z" fill="white"/>
<path d="M64.7106 66.8061C64.7106 65.2188 64.7025 63.6234 64.7106 62.0361C64.7187 60.4245 65.5389 59.5336 67.1551 59.5174C70.2818 59.4769 73.4085 59.4769 76.527 59.5174C78.1757 59.5336 78.9878 60.4164 78.9878 62.0685C78.9959 65.3322 78.9959 68.5959 78.9878 71.8596C78.9878 72.5561 78.7929 72.7423 78.0782 72.7423C77.0712 72.7423 76.056 72.7423 75.049 72.7423C74.2775 72.7423 74.0907 72.556 74.0907 71.8029C74.0907 69.1709 74.0907 66.5469 74.0907 63.9149C74.0907 63.0322 73.8876 62.8297 72.9943 62.8216C72.1822 62.8216 71.37 62.8135 70.5498 62.8216C69.8189 62.8297 69.5833 63.0646 69.5833 63.7934C69.5833 66.4417 69.5833 69.0818 69.5833 71.73C69.5833 72.5803 69.4209 72.7423 68.5519 72.7423C67.5611 72.7423 66.5622 72.7423 65.5714 72.7423C64.8974 72.7423 64.6943 72.5399 64.6943 71.8758C64.7106 70.1832 64.7106 68.4987 64.7106 66.8061Z" fill="white"/>
<path d="M92.3715 67.4781C93.5897 67.47 94.3124 66.9355 94.4261 65.7288C94.5236 64.7408 94.4992 63.7122 94.3449 62.7323C94.012 60.6348 93.1267 59.7521 91.0477 59.501C88.6194 59.2176 86.1668 59.1933 83.7467 59.5739C81.4971 59.9302 80.5065 60.8859 80.3603 63.121C80.2223 65.2024 80.2547 67.308 80.4415 69.3893C80.6364 71.5192 81.8382 72.5963 83.9903 72.6692C87.1089 72.7745 90.2356 72.734 93.3623 72.7421C93.8089 72.7421 94.0444 72.4748 94.0444 72.0294C94.0444 71.4625 94.0444 70.8956 94.0444 70.3287C94.0444 69.3326 93.9226 69.2111 92.9237 69.2111C90.8528 69.2111 88.79 69.2192 86.719 69.1949C85.6308 69.1787 85.1192 68.6199 85.176 67.5024C85.3953 67.4862 90.1706 67.4861 92.3715 67.4781ZM86.4023 62.7242C87.0764 62.6837 87.7667 62.708 88.4408 62.7323C88.6763 62.7404 88.9199 62.8214 89.1392 62.9267C89.5128 63.113 89.6833 63.4288 89.5859 63.8499C89.4884 64.2548 89.1148 64.3682 88.7412 64.3682C87.5393 64.3763 86.4104 64.3682 85.1841 64.3682C85.0217 63.283 85.3872 62.789 86.4023 62.7242Z" fill="white"/>
<path d="M100.655 60.4007C100.655 59.6961 100.46 59.4937 99.7696 59.4856C98.7138 59.4775 97.6581 59.4775 96.5942 59.4856C95.9526 59.4856 95.7414 59.688 95.7414 60.3359C95.7333 64.1989 95.7333 68.0619 95.7414 71.9168C95.7414 72.5161 95.9688 72.7348 96.5779 72.7348C97.6175 72.7429 98.657 72.7348 99.7046 72.7348C100.46 72.7348 100.655 72.5323 100.655 71.7872C100.655 69.8922 100.655 67.989 100.655 66.094C100.655 64.1989 100.655 62.3039 100.655 60.4007Z" fill="white"/>
<path d="M110.506 72.3211C109.735 71.3169 107.582 68.531 106.486 67.1948C105.601 66.1096 105.593 65.7937 106.413 64.6842C106.502 64.5709 109.369 60.8212 110.059 59.9061C110.173 59.7522 110.067 59.5417 109.881 59.5336C108.922 59.5174 106.697 59.4769 105.625 59.5093C105.333 59.5174 104.943 59.7198 104.772 59.9547C103.652 61.5096 102.58 63.0969 101.483 64.668C100.866 65.5589 100.89 66.3849 101.54 67.2596C102.766 68.8955 103.952 70.5638 105.162 72.2159C105.43 72.5884 105.779 72.7504 106.25 72.7423C107.274 72.7261 109.385 72.7018 110.327 72.6856C110.514 72.6937 110.62 72.475 110.506 72.3211Z" fill="white"/>
<path d="M124.995 60.3519C124.987 59.6878 124.783 59.4854 124.044 59.4854C122.778 59.4854 121.519 59.4854 120.252 59.4854C119.886 59.4854 114.201 59.4854 111.724 59.4854C111.042 59.4854 110.847 59.6878 110.847 60.3519C110.847 60.9836 110.839 61.6153 110.847 62.2469C110.855 62.6924 111.075 62.9434 111.538 62.9515C112.139 62.9596 114.729 62.9515 115.476 62.9515C115.476 63.1945 115.476 63.3645 115.476 63.5427C115.476 66.2881 115.476 69.0254 115.476 71.7708C115.476 72.5726 115.647 72.7345 116.459 72.7345C117.417 72.7345 118.376 72.7345 119.342 72.7345C120.219 72.7345 120.374 72.5807 120.374 71.7222C120.374 69.0092 120.374 66.3043 120.374 63.5913C120.374 63.3969 120.374 63.2107 120.374 62.9515C121.446 62.9515 123.679 62.9515 124.247 62.9515C124.743 62.9434 124.987 62.6924 124.987 62.2469C125.003 61.6234 125.003 60.9917 124.995 60.3519Z" fill="white"/>
<path fill-rule="evenodd" clip-rule="evenodd" d="M52.8936 0L39.4854 5.25594V9.79379L42.3116 8.66504V11.9125L39.4854 13.0062V16.1112L42.3116 14.9824V18.2299L39.4854 19.3236V22.3955C39.4854 22.8409 43.9909 23.6086 43.9909 23.6086C44.4375 23.6086 43.9909 29.3327 43.9909 29.3327C43.9909 29.3327 52.8936 32.5278 52.8936 32.0824V2.2271L62.8016 5.39362V54.2358C62.8016 54.6084 63.102 54.908 63.4756 54.908H64.2877C64.6613 54.908 64.9618 54.6084 64.9618 54.2358V3.91969L52.8936 0Z" fill="white"/>
<path fill-rule="evenodd" clip-rule="evenodd" d="M20.0596 21.6228L29.5696 17.7031L45.5929 23.1453V54.357C45.5929 54.6744 45.3352 54.6706 45.0263 54.6659C44.9884 54.6654 44.9497 54.6648 44.9107 54.6648H44.0174C43.9786 54.6648 43.9399 54.6654 43.9016 54.6659C43.5867 54.6706 43.3027 54.6748 43.3027 54.357V24.6031L29.5777 20.0031L29.7158 54.268C29.7158 54.681 29.3828 55.013 28.9767 55.013H20.7986C20.3925 55.013 20.0596 54.681 20.0596 54.268V28.943L23.4304 27.6967V24.3682L20.0596 25.7278V21.6228Z" fill="white"/>
<path fill-rule="evenodd" clip-rule="evenodd" d="M34.71 32.0057L47.5172 28.3047L55.606 31.9247V54.39C55.606 54.7302 55.3299 55.0136 54.9807 55.0136H54.1036C53.7625 55.0136 53.4782 54.7383 53.4782 54.39V33.3339L47.5172 30.9934V54.4548C47.5172 54.7626 47.2655 55.0136 46.9569 55.0136H35.2703C34.9617 55.0136 34.71 54.7626 34.71 54.4548V43.0342L37.8691 41.9426V38.8733L34.71 39.9576V32.0057Z" fill="white"/>
<path d="M81.7572 10.7148L70.0869 14.6588V54.3659C70.0869 54.7222 70.4199 54.9328 70.8422 54.9328H81.01C81.4242 54.9328 81.7653 54.7222 81.7653 54.3659V13.0553L91.5109 16.1975L91.6652 54.4793C91.6652 54.7708 91.9413 54.7708 92.2905 54.7708H93.0377C93.3788 54.7708 93.663 54.7789 93.663 54.4793V14.6426L81.7572 10.7148Z" fill="white"/>
<path d="M88.6847 19.5667V22.2311L91.8033 23.2272V20.5385L88.6847 19.5667Z" fill="white"/>
<path d="M88.6846 24.4258V27.0902L91.8031 28.0863V25.3976L88.6846 24.4258Z" fill="white"/>
<path d="M73.5375 39.5527L80.2944 42.12V55.1991H72.6279L73.5375 39.5527Z" fill="#EDF0F5"/>
<path d="M73.5379 39.5527L67.9424 41.7474V54.8023C67.9424 54.9723 68.1129 55.11 68.3241 55.11H73.1481C73.3593 55.11 73.5298 54.9723 73.5298 54.8023L73.5136 40.8809" fill="white"/>
<path d="M95.661 29.8672L86.5732 33.5196V54.5029C86.5732 54.7863 86.8169 55.0212 87.1174 55.0212H95.125C95.4254 55.0212 95.6691 54.7944 95.6691 54.5029V32.2563L104.797 35.2203V54.4381C104.797 54.754 105.065 55.0131 105.536 55.0131H106.284C106.487 55.0131 106.893 54.754 106.893 54.4381L106.917 33.6816L95.661 29.8672Z" fill="white"/>
<path d="M101.874 38.3623V41.8447L105.066 42.7355V39.2936L101.874 38.3623Z" fill="white"/>
</svg>
