<?xml version="1.0" encoding="utf-8"?><svg viewBox="0 0 244 180" xmlns="http://www.w3.org/2000/svg" xmlns:xlink="http://www.w3.org/1999/xlink"><style>:root>svg{display:none}:root>svg:target{display:block}</style><svg viewBox="0 0 14 8" id="icon-arow-down" xmlns="http://www.w3.org/2000/svg"><path fill-rule="evenodd" clip-rule="evenodd" d="M13.768.86a1 1 0 01-.128 1.408l-6 5a1 1 0 01-1.28 0l-6-5A1 1 0 011.64.732L7 5.198 12.36.732a1 1 0 011.408.128z"/></svg><svg viewBox="0 0 14 8" id="icon-arrow-down" xmlns="http://www.w3.org/2000/svg"><path fill-rule="evenodd" clip-rule="evenodd" d="M13.768.86a1 1 0 01-.128 1.408l-6 5a1 1 0 01-1.28 0l-6-5A1 1 0 011.64.732L7 5.198 12.36.732a1 1 0 011.408.128z"/></svg><svg viewBox="0 0 20 20" id="icon-btn-arrow" xmlns="http://www.w3.org/2000/svg"><path fill-rule="evenodd" clip-rule="evenodd" d="M9.293.293a1 1 0 011.414 0l9 9a1 1 0 010 1.414l-9 9a1 1 0 01-1.414-1.414L16.586 11H1a1 1 0 110-2h15.586L9.293 1.707a1 1 0 010-1.414z"/></svg><svg viewBox="0 0 244 151" id="icon-callback-logo" xmlns="http://www.w3.org/2000/svg"><path d="M0 138.824c0-8.29 0-16.58.016-24.87 0-.792.016-1.601.19-2.361.476-2.061 2.347-3.408 4.804-3.456 2.631-.047 5.279-.031 7.91-.031 5.374 0 10.733-.016 16.107.015 2.71.016 4.55 1.268 5.089 3.44.174.697.206 1.442.206 2.171.015 8.924.015 17.848 0 26.772 0 1.49-.365 1.855-1.871 1.855h-7.435c-1.347 0-1.76-.397-1.76-1.776v-21.445c.016-2.521-.348-2.885-2.837-2.885h-6.96c-1.886 0-2.41.475-2.41 2.346-.015 7.117-.015 14.233-.015 21.35 0 .381.016.761-.016 1.142-.048.792-.523 1.236-1.284 1.252-2.79.016-5.596.016-8.386 0-.634 0-.983-.301-1.205-.745-.158-.333-.143-2.425-.143-2.774zm39.013 11.873c-.349 0-.698-.08-.999-.27-.523-.317-.713-.824-.713-1.601.032-9.082.016-18.165.016-27.247 0-3.36 1.553-5.056 4.898-5.104 4.407-.079 8.83-.032 13.253-.016 1.807.016 3.535.412 5.105 1.316 2.377 1.379 3.582 3.566 4.074 6.15.76 4.074.65 8.163-.46 12.173-.935 3.408-3.234 5.469-6.69 5.928-2.41.317-9.4.333-10.605.333v6.15c0 1.443-.666 2.156-2.093 2.172-1.331.031-4.613.031-5.786.016zm7.926-16.374a1.136 1.136 0 001.126 1.109c1.094.032 2.568.016 3.598 0 2.14-.047 3.234-1.204 3.44-3.296a27.01 27.01 0 00-.063-5.77c-.206-1.902-1.554-2.917-3.488-2.98-.983-.032-1.965-.016-2.948-.016-1.348 0-1.712.349-1.712 1.68-.016 2.457.015 7.117.047 9.273zm49.478-9.796c-.951-4.74-3.345-7.181-8.053-7.942-4.502-.729-9.052-.729-13.554.111-3.805.714-6.23 3.012-7.197 6.753-1.015 3.915-1.015 7.862-.032 11.777.951 3.788 3.345 6.166 7.213 6.831 2.33.397 10.732.508 12.523.317 5.09-.554 7.959-2.98 9.005-7.624.76-3.392.777-6.815.095-10.223zm-9.147 6.926a4.465 4.465 0 01-4.47 4.47h-1.84a4.465 4.465 0 01-4.47-4.47v-4.374a4.465 4.465 0 014.47-4.47h1.744a4.566 4.566 0 014.566 4.565v4.279zm20.117 10.795c-5.041-.412-7.847-3.186-8.45-8.211-.396-3.265-.396-6.53.175-9.78.777-4.549 3.884-7.513 8.481-7.703 4.788-.19 9.591-.111 14.394-.111.952 0 1.364.46 1.38 1.443.031 1.172.015 2.345 0 3.534-.016 1.11-.46 1.538-1.586 1.538-2.599.016-5.215 0-7.815.016-3.456.015-5.105 1.458-5.374 4.929-.111 1.538-.079 3.123.158 4.644.333 2.156 1.633 3.186 3.837 3.25 2.948.063 5.913.047 8.861.047 2.331 0 2.458.127 2.458 2.489v2.473c-.016 1.141-.413 1.569-1.554 1.569-2.394.016-12.381.095-14.965-.127zm18.927-11.492c0-3.107-.016-6.23 0-9.336.016-3.155 1.617-4.898 4.772-4.93a706.085 706.085 0 0118.294 0c3.218.032 4.803 1.76 4.803 4.993.016 6.388.016 12.776 0 19.163 0 1.364-.38 1.728-1.775 1.728h-5.914c-1.506 0-1.87-.364-1.87-1.839v-15.438c0-1.728-.396-2.124-2.14-2.14-1.586 0-3.171-.016-4.772 0-1.427.016-1.886.476-1.886 1.902v15.534c0 1.664-.317 1.981-2.014 1.981h-5.818c-1.315 0-1.712-.396-1.712-1.696.032-3.313.032-6.61.032-9.922zm53.996 1.316c2.378-.016 3.788-1.062 4.01-3.424a23.402 23.402 0 00-.158-5.865c-.65-4.105-2.378-5.833-6.436-6.324-4.74-.555-9.528-.603-14.252.142-4.391.698-6.325 2.568-6.61 6.943a79.266 79.266 0 00.158 12.268c.381 4.169 2.727 6.277 6.928 6.42 6.087.206 12.19.127 18.294.142.872 0 1.331-.523 1.331-1.394v-3.329c0-1.95-.237-2.187-2.187-2.187-4.043 0-8.069.015-12.112-.032-2.124-.032-3.123-1.125-3.012-3.313.428-.032 9.75-.032 14.046-.047zm-11.652-9.305c1.316-.079 2.663-.031 3.979.016.46.016.935.174 1.363.381.73.364 1.062.982.872 1.807-.19.792-.919 1.014-1.648 1.014-2.347.016-4.55 0-6.944 0-.317-2.124.396-3.091 2.378-3.218zm27.821-4.549c0-1.379-.381-1.775-1.728-1.791a400.163 400.163 0 00-6.198 0c-1.253 0-1.665.396-1.665 1.664-.016 7.561-.016 15.122 0 22.667 0 1.173.444 1.601 1.633 1.601 2.029.016 4.058 0 6.103 0 1.474 0 1.855-.397 1.855-1.855v-22.286zm19.229 23.332c-1.506-1.966-5.707-7.418-7.847-10.034-1.728-2.124-1.744-2.742-.143-4.913.175-.222 5.771-7.561 7.118-9.352a.456.456 0 00-.349-.729c-1.87-.032-6.214-.111-8.307-.048-.57.016-1.331.412-1.664.872-2.188 3.043-4.28 6.15-6.42 9.225-1.205 1.744-1.158 3.36.11 5.072 2.394 3.202 4.709 6.467 7.071 9.701.523.729 1.205 1.046 2.124 1.03 1.998-.032 6.119-.079 7.958-.111.365.016.571-.412.349-.713zm28.282-23.427c-.016-1.3-.412-1.696-1.855-1.696h-24.049c-1.331 0-1.712.396-1.712 1.696 0 1.236-.016 2.472 0 3.709.016.872.444 1.363 1.348 1.379 1.173.016 6.23 0 7.688 0v17.261c0 1.569.333 1.886 1.918 1.886h5.628c1.712 0 2.013-.301 2.013-1.981v-17.166h7.562c.967-.016 1.443-.507 1.443-1.379.032-1.221.032-2.457.016-3.709z"/><path fill-rule="evenodd" clip-rule="evenodd" d="M103.249 0L77.077 10.287v8.882l5.516-2.209v6.356l-5.517 2.14v6.076l5.517-2.209v6.356l-5.517 2.14v6.014c0 .872 8.795 2.374 8.795 2.374.872 0 0 11.204 0 11.204s17.378 6.253 17.378 5.381V4.36l19.341 6.197v95.596c0 .729.586 1.315 1.315 1.315h1.586c.729 0 1.315-.586 1.315-1.315V7.672L103.249 0z"/><path fill-rule="evenodd" clip-rule="evenodd" d="M39.156 42.321L57.72 34.65l31.277 10.652v61.088c0 .621-.503.614-1.106.605l-.225-.002h-1.744l-.226.002c-.615.009-1.17.017-1.17-.605V48.154l-26.79-9.003.27 67.064c0 .808-.65 1.458-1.443 1.458H40.599c-.793 0-1.443-.65-1.443-1.458V56.648l6.578-2.44v-6.514l-6.578 2.66v-8.033z"/><path fill-rule="evenodd" clip-rule="evenodd" d="M67.755 62.642l25-7.244 15.789 7.086v43.969c0 .666-.539 1.221-1.221 1.221h-1.712c-.665 0-1.22-.539-1.22-1.221V65.242L92.755 60.66v45.919c0 .602-.492 1.094-1.094 1.094H68.849a1.096 1.096 0 01-1.094-1.094V84.228l6.167-2.137v-6.007l-6.167 2.122V62.642z"/><path d="M159.772 20.946l-22.781 7.72v77.715c0 .697.65 1.11 1.475 1.11h19.847c.809 0 1.475-.413 1.475-1.11V25.527l19.023 6.15.301 74.926c0 .571.539.571 1.221.571h1.458c.666 0 1.221.015 1.221-.571v-77.97l-23.24-7.687z"/><path d="M173.113 38.295v5.215l6.088 1.95v-5.263l-6.088-1.902zm0 9.511v5.215l6.088 1.95v-5.263l-6.088-1.902zm13.617 10.651l-17.74 7.149v41.069c0 .554.476 1.014 1.062 1.014h15.631c.587 0 1.062-.444 1.062-1.014V63.133l17.819 5.801v37.614c0 .618.523 1.125 1.442 1.125h1.459c.396 0 1.189-.507 1.189-1.125l.047-40.625-21.971-7.466z"/><path d="M198.857 75.084V81.9l6.23 1.743v-6.736l-6.23-1.823z"/></svg><svg viewBox="0 0 46 46" id="icon-close" xmlns="http://www.w3.org/2000/svg"><path fill-rule="evenodd" clip-rule="evenodd" d="M33.113 34.526L11.9 13.313l1.414-1.414 21.213 21.213-1.414 1.414z"/><path fill-rule="evenodd" clip-rule="evenodd" d="M34.527 13.315L13.314 34.528 11.9 33.114 33.113 11.9l1.414 1.415z"/></svg><svg viewBox="0 0 100 100" id="icon-error" xmlns="http://www.w3.org/2000/svg"><path d="M50 .001a49.996 49.996 0 00-50 50 49.998 49.998 0 0085.354 35.355A50.005 50.005 0 00100 50 50.059 50.059 0 0049.998 0l.001.001zm0 95.708a45.71 45.71 0 01-32.32-78.027 45.706 45.706 0 0178.026 32.32 45.76 45.76 0 01-45.707 45.707z"/><path fill-rule="evenodd" clip-rule="evenodd" d="M64.213 67.212l-30-29.999 2-2 30 30-2 2z"/><path fill-rule="evenodd" clip-rule="evenodd" d="M66.213 37.215l-30 30-2-2 30-30 2 2z"/></svg><svg viewBox="0 0 220 180" id="icon-feature-1" xmlns="http://www.w3.org/2000/svg"><g clip-path="url(#ga)"><path d="M130.034 86.017v-.037c0-.038 0-.113-.037-.15-.038-.114-.076-.189-.114-.301l-8.836-17.998-.038-.15-.075-.076c-.038-.075-.114-.188-.189-.225-.076-.075-.151-.15-.227-.188l-1.51-.902-.227.79c-.34.187-.604.525-.755.939l-8.723 28.142c-.114.301-.114.64 0 .94l-.114.45.869.49c.076.037.151.074.189.074.038.038.075.038.151.075.151.038.302.076.491.076h.189c.075 0 .151-.038.264-.038.151-.038.264-.075.378-.15l17.559-10.108.114-.075c.037 0 .037-.037.037-.037.038 0 .038-.038.076-.038l.189-.15v-.038a.638.638 0 01.151-.188l.075-.112c.038-.113.113-.226.113-.301l.038-.113v-.451c-.038-.112-.038-.112-.038-.15zm-4.833.188l-11.593 6.65 3.512-11.347 8.081 4.697zm-7.1-7.853l1.813-5.824 4.72 9.581-6.533-3.757z"/><path d="M165.758 106.645l-36.705-74.884-.038-.076c0-.037-.038-.037-.038-.075-.037-.075-.113-.15-.151-.188l-.113-.112a.793.793 0 00-.189-.15l-.038-.038-18.881-10.934c-.491-.3-1.133-.3-1.624 0L91.932 29.43l-.113.075a.532.532 0 01-.151.113l-.113.075a1.594 1.594 0 00-.378.639L55.076 147.037a1.622 1.622 0 00.717 1.879L74.6 159.775c.076.037.151.075.189.075.038.037.113.037.151.075.151.037.34.075.49.075.114 0 .227 0 .379-.038.037 0 .075 0 .113-.037l.113-.038c.038 0 .076-.037.113-.037h.038l20.316-11.648c.34-.188.605-.526.756-.94l7.968-25.85 19.938-11.46 18.013 10.408.076.075.075.037a.534.534 0 00.227.075l.113.038c.076 0 .113.038.189.038h.378c.075 0 .113-.038.188-.038.038 0 .114-.038.151-.038a.28.28 0 00.151-.075l.076-.037 20.392-11.723c.642-.414.944-1.315.566-2.067zm-30.852-2.367l5.249 10.671-11.857-6.876 6.608-3.795zm1.926-3.306l-.075-.076c-.076-.075-.152-.112-.189-.187l-1.171-.714-.227.45c-.113.038-.226.076-.339.151l-31.834 18.298c-.34.188-.605.526-.756.94l-7.968 25.85-16.086 9.244L112.928 42.77l14.01-8.041 35.271 71.954-17.522 10.07-7.591-15.406a1.334 1.334 0 00-.264-.375zM58.55 146.774L93.707 33.226l15.936 9.206L74.486 155.98l-15.936-9.206zm53.019-106.935L96.011 30.82l12.839-7.364 15.558 9.017-12.839 7.365z"/></g><defs><clipPath id="ga"><path transform="translate(55 20)" d="M0 0h110.909v140H0z"/></clipPath></defs></svg><svg viewBox="0 0 220 180" id="icon-feature-2" xmlns="http://www.w3.org/2000/svg"><path d="M177.027 76.027h5.946c1.149 0 2.027-.878 2.027-2.027V40.554c0-4.054-3.311-7.365-7.365-7.365h-5.203c-3.513 0-6.486 2.5-7.162 5.743v-7.905c0-1.149-.878-2.027-2.027-2.027h-38.784c-1.148 0-2.027.878-2.027 2.027v8.446H54.865a7.356 7.356 0 00-7.297-6.284h-5.203C38.31 33.19 35 36.5 35 40.554V74c0 1.149.878 2.027 2.027 2.027h5.946v60.743l-4.46-4.459c-.81-.811-2.094-.811-2.837 0-.811.811-.811 2.094 0 2.838l15.202 15.202a2.06 2.06 0 001.42.608c.472 0 1.013-.202 1.418-.608.811-.81.811-2.094 0-2.837l-6.621-6.622v-28.514H74.73v9.865c0 5.879 4.73 10.608 10.608 10.608h71.284a10.583 10.583 0 0010.608-10.608 1.992 1.992 0 00-2.027-2.027H149.73v-7.838h23.378v24.054l-4.122-4.121c-.81-.811-2.094-.811-2.837 0-.811.811-.811 2.094 0 2.838l15.202 15.202c.406.406.946.608 1.419.608.473 0 1.014-.202 1.419-.608.811-.81.811-2.094 0-2.837l-7.162-7.028V76.027zm-4.054 20.27h-23.378V72.04H165V74c0 1.149.878 2.027 2.027 2.027h5.946v20.27zm-46.554-40.473v-6.621h11.689v6.621h-11.689zm-60.068 0H54.932v-4.121h67.433v4.121H66.351zm98.717-12.297v4.122h-22.906v-.473c0-1.149-.878-2.027-2.027-2.027h-15.743c-1.149 0-2.027.878-2.027 2.027v.473H54.932v-4.122h110.136zM150 39.473v-6.419h3.784v6.419H150zm-4.054 0h-3.784v-6.419h3.784v6.419zm-7.838 0h-3.784v-6.419h3.784v6.419zm11.487 28.514c-.136-3.109-1.419-5.946-3.379-8.109h18.852v8.109h-15.473zm-7.433-16.284h22.906v4.121h-22.906v-4.121zm-87.23 8.175h11.014c4.594 0 8.378 3.581 8.649 8.109H54.932v-8.109zm114.19-19.324a3.316 3.316 0 013.31-3.31h5.203a3.317 3.317 0 013.311 3.31v31.419h-11.824V40.554zm-7.973-1.081h-3.311v-6.419h3.311v6.419zm-34.73-6.419h3.784v6.419h-3.784v-6.419zm-87.365 7.5a3.316 3.316 0 013.31-3.31h5.204a3.316 3.316 0 013.31 3.31v31.419H39.054V40.554zm13.851 35.473c1.15 0 2.027-.878 2.027-2.027v-1.96h19.663v24.257H47.027v-20.27h5.878zm-5.878 32.23v-7.906h27.635v7.906H47.027zm109.527 20.473H93.919a10.733 10.733 0 002.094-4.527h66.757c-.878 2.635-3.311 4.527-6.216 4.527zm-62.365-8.581c-1.148 0-2.027.878-2.027 2.027 0 3.513-2.77 6.419-6.284 6.554h-.675c-3.581-.068-6.487-2.973-6.487-6.554V68.527c0-3.378-1.284-6.419-3.446-8.649h61.622c4.797 0 8.649 3.92 8.649 8.649v51.554H94.189v.068zm55.473-11.892v-7.906h23.379v7.906h-23.379z"/></svg><svg viewBox="0 0 220 180" id="icon-feature-3" xmlns="http://www.w3.org/2000/svg"><path d="M185 112.568c0-1.149-.878-2.027-2.027-2.027h-7.432V74.865h3.175c1.149 0 2.027-.878 2.027-2.027V49.122c0-1.149-.878-2.027-2.027-2.027H73.108v-3.92A8.16 8.16 0 0064.932 35H43.176A8.16 8.16 0 0035 43.176v29.662c0 1.149.878 2.027 2.027 2.027h3.176v55.878h-1.825a1.992 1.992 0 00-2.027 2.027v9.46c0 1.148.879 2.027 2.027 2.027h140.406a1.992 1.992 0 002.027-2.027v-9.46a1.992 1.992 0 00-2.027-2.027h-3.243v-7.365c5.337-.743 9.459-5.337 9.459-10.81zm-10.878 6.824h-64.46a11.204 11.204 0 002.23-4.797h68.784c-.879 2.77-3.514 4.797-6.554 4.797zM55.405 130.743v-21.554h34.46v3.379a10.871 10.871 0 0010.878 10.878h59.527v7.297H55.405zm15.676-55.878h18.851v18.648H55.473V74.865h15.608zM151.42 63.04h2.365c5 0 9.054 4.054 9.054 9.054v38.446H110c-1.149 0-2.027.878-2.027 2.027 0 3.716-2.973 6.756-6.689 6.824h-.608c-3.784 0-6.825-3.108-6.825-6.824v-40.54c0-3.514-1.419-6.69-3.648-9.054h61.216v.068zM55.405 97.567h34.46v7.567h-34.46v-7.567zm116.081 12.973h-4.594V74.865h4.594v35.676zm5.203-59.392V70.81h-9.865c-.27-3.04-1.621-5.743-3.581-7.77h4.798a1.992 1.992 0 002.027-2.027c0-1.15-.879-2.028-2.027-2.028H78.513c-1.148 0-2.026.879-2.026 2.028 0 1.148.878 2.026 2.026 2.026h2.365c4.595 0 8.311 3.379 8.92 7.77h-16.69V51.15H176.69zM39.054 43.176a4.095 4.095 0 014.122-4.122h21.689a4.095 4.095 0 014.122 4.122V70.81H39.054V43.176zm5.203 31.689h7.162v55.811h-7.162V74.865zm132.432 65.338H40.405v-5.406h136.352v5.406h-.068zm-12.365-9.46v-7.297h7.162v7.297h-7.162z"/></svg><svg viewBox="0 0 220 180" id="icon-feature-4" xmlns="http://www.w3.org/2000/svg"><path d="M134.882 28.46h.244l24.172-2.57a2.287 2.287 0 002.045-2.51c-.122-1.24-1.252-2.148-2.533-2.027l-24.172 2.57a2.287 2.287 0 00-2.045 2.51 2.299 2.299 0 002.289 2.027zm-37.448 4.022h.244l27.712-2.963a2.287 2.287 0 002.045-2.51c-.122-1.24-1.251-2.148-2.533-2.027L97.22 27.946a2.287 2.287 0 00-2.045 2.51 2.272 2.272 0 002.259 2.026z"/><path d="M49.822 129.68c.122 0 .214 0 .336-.03l129.619-19.355c1.129-.182 1.953-1.119 1.953-2.238l.061-86.674c0-.635-.274-1.24-.763-1.693a2.37 2.37 0 00-1.77-.575l-10.377 1.029a2.276 2.276 0 00-2.045 2.48c.123 1.24 1.252 2.146 2.503 2.026l7.874-.756-.061 82.197-125.04 18.69v-87.43l34.792-3.72a2.287 2.287 0 002.045-2.51c-.122-1.24-1.251-2.147-2.533-2.026l-36.838 3.931a2.274 2.274 0 00-2.045 2.269v92.117c0 .665.305 1.3.794 1.723.427.363.946.545 1.495.545z"/><path d="M160.58 29.518c1.251 0 2.289-1.028 2.289-2.268v-5.443c0-.968-.611-1.815-1.526-2.147l-13.124-4.537a2.308 2.308 0 00-2.075.303 2.26 2.26 0 00-.977 1.844v7.53c0 1.24 1.038 2.269 2.289 2.269 1.251 0 2.289-1.028 2.289-2.268v-4.325l8.546 2.964v3.84c0 1.21 1.037 2.238 2.289 2.238zm-35.098 3.63c1.251 0 2.289-1.029 2.289-2.269v-5.443c0-.968-.611-1.815-1.526-2.147l-13.124-4.537a2.308 2.308 0 00-2.075.303 2.259 2.259 0 00-.977 1.845v7.53c0 1.24 1.038 2.268 2.289 2.268 1.251 0 2.289-1.028 2.289-2.268v-4.325l8.546 2.964v3.84c0 1.21 1.037 2.239 2.289 2.239zm-37.845 4.233c1.25 0 2.289-1.028 2.289-2.268V29.67c0-.968-.61-1.815-1.526-2.148l-13.124-4.536a2.31 2.31 0 00-2.075.303 2.26 2.26 0 00-.977 1.844v7.53c0 1.24 1.038 2.269 2.289 2.269 1.251 0 2.289-1.028 2.289-2.268v-4.325l8.546 2.964v3.84c0 1.21 1.037 2.238 2.289 2.238zm-37.845 92.238c.671 0 1.342-.302 1.77-.847a2.243 2.243 0 00-.336-3.175l-8.607-6.865V35.385l6.47 2.057c1.19.393 2.503-.272 2.87-1.452a2.245 2.245 0 00-1.466-2.843l-9.46-3.024a2.334 2.334 0 00-2.046.333 2.313 2.313 0 00-.946 1.845v87.52c0 .695.306 1.331.855 1.754l9.461 7.56a2.28 2.28 0 001.435.484z"/><path d="M49.822 142.079c.122 0 .244 0 .336-.03l125.407-18.811c.916-.151 1.648-.786 1.862-1.693.214-.877-.092-1.815-.824-2.359l-13.276-10.041c-.947-.725-2.32-.574-3.113.303l-10.774 12.036-11.628-8.589a2.31 2.31 0 00-3.052.273l-11.415 12.187-10.804-8.861c-.977-.786-2.411-.665-3.205.272L98.99 128.954l-11.231-8.8c-.947-.726-2.29-.636-3.083.241l-11.69 12.49-10.895-8.86a2.348 2.348 0 00-1.709-.515c-.61.061-1.19.394-1.556.877l-9.37 12.006-7.63-6.834c-.946-.847-2.38-.756-3.235.151-.855.937-.763 2.359.152 3.206l9.248 8.286c.488.575 1.13.877 1.831.877zm18.251-7.288l-13.062 1.965 6.012-7.711 7.05 5.746zm26.003-3.902L79 133.158l7.6-8.105 7.477 5.836zm24.386-3.659l-13.734 2.057 6.653-7.863 7.081 5.806zm25.851-3.871l-14.864 2.238 7.325-7.802 7.539 5.564zm25.24-3.81l-14.101 2.117 6.806-7.621 7.295 5.504z"/><path d="M124.566 165.002c1.251 0 2.289-1.028 2.289-2.268v-33.568c0-1.24-1.038-2.269-2.289-2.269-1.251 0-2.289 1.029-2.289 2.269v33.568c0 1.24 1.038 2.268 2.289 2.268zm-21.364 0c1.251 0 2.289-1.028 2.289-2.268v-29.939c0-1.24-1.038-2.268-2.289-2.268-1.251 0-2.289 1.028-2.289 2.268v29.939c0 1.24 1.038 2.268 2.289 2.268z"/></svg><svg viewBox="0 0 220 180" id="icon-feature-5" xmlns="http://www.w3.org/2000/svg"><path d="M139.13 106.692c-.117 0-.204 0-.321-.029L44.864 92.796A2.167 2.167 0 0143 90.641V22.185A2.2 2.2 0 0145.185 20h93.945a2.2 2.2 0 012.185 2.185v82.322c0 .641-.263 1.252-.758 1.66-.408.321-.903.525-1.427.525zM47.37 88.747l89.575 13.226V24.37H47.37v64.377z"/><path d="M139.13 160c-.146 0-.291-.029-.437-.058L44.748 140.25A2.18 2.18 0 0143 138.123V90.641c0-.641.262-1.253.757-1.66.496-.408 1.107-.612 1.748-.496l93.945 13.866a2.168 2.168 0 011.865 2.156v53.308c0 .67-.292 1.282-.816 1.69a2.14 2.14 0 01-1.369.495zm-91.76-23.654l89.575 18.76V106.4L47.37 93.175v43.171z"/><path d="M139.13 160c-.466 0-.961-.146-1.34-.466a2.194 2.194 0 01-.845-1.719v-53.308a2.19 2.19 0 011.835-2.156l34.811-5.534c.641-.088 1.282.087 1.748.495.495.407.757 1.02.757 1.66v49.813c0 .99-.67 1.864-1.631 2.126l-34.811 9.031a2.886 2.886 0 01-.524.058zm2.185-53.629v48.619l30.441-7.895v-45.559l-30.441 4.835z"/><path d="M139.13 106.692a2.16 2.16 0 01-1.428-.525c-.495-.408-.757-1.019-.757-1.66V22.185A2.2 2.2 0 01139.13 20h34.81a2.2 2.2 0 012.185 2.185v76.787a2.19 2.19 0 01-1.835 2.156l-34.811 5.535c-.116.029-.233.029-.349.029zm2.185-82.322v77.573l30.441-4.835V24.369h-30.441zm-96.13 68.456a2.15 2.15 0 01-2.127-1.748 2.215 2.215 0 011.69-2.593l22.139-4.602V22.185A2.2 2.2 0 0169.072 20a2.2 2.2 0 012.184 2.185v63.504a2.156 2.156 0 01-1.748 2.126l-23.886 4.952c-.146.059-.292.059-.437.059z"/><path d="M173.94 101.273c-.087 0-.174 0-.291-.029l-45.734-5.826c-1.195-.145-2.039-1.252-1.894-2.447.146-1.194 1.253-2.039 2.447-1.893l45.735 5.826c1.194.145 2.039 1.252 1.893 2.447-.116 1.107-1.078 1.922-2.156 1.922zM86.987 90.175c-.088 0-.175 0-.292-.03l-17.915-2.3c-1.194-.146-2.039-1.253-1.893-2.448.145-1.194 1.252-2.039 2.447-1.893l17.915 2.301c1.194.146 2.039 1.253 1.893 2.447-.116 1.107-1.078 1.923-2.155 1.923zm20.682-25.693c-4.981 0-9.03-4.05-9.03-9.03v-3.06c0-4.98 4.049-9.03 9.03-9.03 4.981 0 9.031 4.05 9.031 9.03v3.06c0 4.98-4.05 9.03-9.031 9.03zm0-16.75a4.675 4.675 0 00-4.661 4.66v3.06a4.675 4.675 0 004.661 4.66 4.674 4.674 0 004.661-4.66v-3.06a4.674 4.674 0 00-4.661-4.66z"/><path d="M102.222 95.593a5.876 5.876 0 01-3.904-1.486C97.066 93 96.367 91.37 96.367 89.71c.029-2.884 2.184-5.36 5.039-5.768.088 0 .146-.03.233-.03l11.274-.349V78.99a2.2 2.2 0 012.184-2.185 2.2 2.2 0 012.185 2.185v6.7a2.17 2.17 0 01-2.126 2.185l-13.255.407c-.67.146-1.194.758-1.194 1.457 0 .582.32.961.495 1.107.175.175.583.437 1.165.379h.204l12.643-.35a5.372 5.372 0 005.098-5.36v-8.098c0-5.943-4.836-10.75-10.749-10.75h-2.651c-5.943 0-10.75 4.836-10.75 10.75v7.748a2.2 2.2 0 01-2.184 2.185 2.2 2.2 0 01-2.185-2.185v-7.748c0-8.331 6.787-15.119 15.119-15.119h2.651c8.331 0 15.118 6.788 15.118 15.119v8.098a9.719 9.719 0 01-9.292 9.73h-.029l-12.585.349h-.553z"/><path d="M101.115 87.874a2.2 2.2 0 01-2.185-2.185v-6.7a2.2 2.2 0 012.185-2.185 2.2 2.2 0 012.185 2.185v6.7a2.201 2.201 0 01-2.185 2.185z"/></svg><svg viewBox="0 0 220 180" id="icon-feature-6" xmlns="http://www.w3.org/2000/svg"><g clip-path="url(#la)"><path d="M76.698 136.54a2.29 2.29 0 01-2.273-2.273V17.273A2.29 2.29 0 0176.698 15a2.29 2.29 0 012.273 2.273v116.994c0 1.242-1 2.273-2.273 2.273zm56.224 8.183a2.29 2.29 0 01-2.274-2.273V17.273A2.29 2.29 0 01132.922 15a2.29 2.29 0 012.273 2.273V142.45c0 1.243-1 2.273-2.273 2.273z"/><path d="M147.137 144.723h-14.185c-.121 0-.212 0-.333-.03l-59.649-8.487c-1.243-.182-2.121-1.333-1.94-2.576.182-1.243 1.334-2.091 2.577-1.94l59.496 8.487h11.76V19.547h-71.59A2.29 2.29 0 0171 17.272 2.29 2.29 0 0173.273 15h73.864a2.29 2.29 0 012.273 2.273V142.45a2.29 2.29 0 01-2.273 2.273z"/><path d="M137.529 165h-14.851c-.152 0-.304-.03-.485-.061l-31.552-6.668c-1.061-.212-1.788-1.151-1.788-2.212v-19.58a2.29 2.29 0 012.273-2.273 2.29 2.29 0 012.273 2.273v17.731l29.521 6.244h12.336V142.42a2.29 2.29 0 012.273-2.274 2.29 2.29 0 012.273 2.274v20.307a2.27 2.27 0 01-2.273 2.273z"/><path d="M122.677 165a2.29 2.29 0 01-2.273-2.273V141.51a2.29 2.29 0 012.273-2.273 2.29 2.29 0 012.274 2.273v21.217a2.27 2.27 0 01-2.274 2.273zm-35.31-38.705a2.29 2.29 0 01-2.273-2.273V27.639a2.29 2.29 0 012.273-2.273h34.552a2.29 2.29 0 012.274 2.273 2.29 2.29 0 01-2.274 2.273H89.64v94.14c0 1.243-1 2.243-2.273 2.243z"/></g><defs><clipPath id="la"><path transform="translate(71 15)" d="M0 0h78.41v150H0z"/></clipPath></defs></svg><svg viewBox="0 0 220 180" id="icon-feature-7" xmlns="http://www.w3.org/2000/svg"><path d="M158.334 72.827c.902-.901.849-2.28 0-3.084-.787-.81-2.275-.81-3.085 0-.732.694-.944 1.904 0 3.084.902.901 2.282.848 3.085 0zm-10.39 0c.931-.933.765-2.36 0-3.084-.915-.916-2.281-.804-3.085 0-.969.918-.761 2.399 0 3.084.745.785 2.177.907 3.085 0z"/><path d="M42.187 160h134.851a2.187 2.187 0 002.188-2.188 2.187 2.187 0 00-2.188-2.188h-10.129v-7.116a2.187 2.187 0 00-2.188-2.188h-8.06V95.904h7.58c4.125 0 7.482-3.357 7.482-7.482v-21.59c0-4.127-3.357-7.483-7.482-7.483l-28.493.003V48.427h15.695a2.187 2.187 0 002.188-2.188l-.001-24.051A2.187 2.187 0 00151.442 20l-35.762.001c-1.208 0-2.187.98-2.187 2.188v24.05c0 1.208.978 2.188 2.187 2.188h15.694v10.925h-76.4c-4.125 0-7.482 3.356-7.482 7.483v21.59c0 4.125 3.357 7.482 7.482 7.482h7.592v50.416l-8.06-.001a2.187 2.187 0 00-2.188 2.188v7.116l-10.13-.001a2.187 2.187 0 100 4.375zm75.68-135.625h31.388v19.676h-31.388V24.375zm44.668 131.25h-16.121v-4.928h16.121v4.928zm-10.248-39.203h-11.688V95.903h11.688v20.519zM83.944 87.274h52.279v6.411c0 .012-.007.021-.007.032s.007.02.007.031v49.845h-52.28V87.274zm-32.078 1.149v-21.59a3.11 3.11 0 013.106-3.107H164.24a3.11 3.11 0 013.106 3.106v21.59a3.109 3.109 0 01-3.106 3.107h-23.642v-4.256h10.843a2.187 2.187 0 002.188-2.188 2.187 2.187 0 00-2.188-2.188c.225 0-17.673-.01-82.715 0a2.187 2.187 0 00-2.188 2.188c0 1.209.978 2.188 2.188 2.188h10.842v4.256H54.972a3.109 3.109 0 01-3.106-3.106zm27.7 7.481v20.519H66.94V95.904h12.628zM66.94 120.797h12.628v24.982c0 1.209.978 2.188 2.187 2.188h56.657a2.186 2.186 0 002.187-2.188l-.001-24.982h11.688v25.524h-8.059a2.187 2.187 0 00-2.188 2.188v7.116h-64.85v-7.116A2.187 2.187 0 0075 146.321h-8.06v-25.524zm-10.247 29.9h16.12v4.928h-16.12v-4.928z"/><path d="M75.186 73.469a2.187 2.187 0 100-4.376H62.428a2.187 2.187 0 100 4.377l12.758-.001zM126.92 32.66h13.279a2.187 2.187 0 100-4.375H126.92a2.187 2.187 0 100 4.376zm15.466 5.29a2.187 2.187 0 00-2.188-2.188h-13.279a2.187 2.187 0 100 4.375h13.279a2.187 2.187 0 002.188-2.188zm-16.625 58.71H94.409a2.187 2.187 0 00-2.188 2.187c0 1.209.978 2.188 2.188 2.188h31.352a2.187 2.187 0 002.188-2.188c0-1.21-.979-2.188-2.188-2.188zm0 16.586H94.409a2.187 2.187 0 100 4.376h31.352a2.187 2.187 0 100-4.376zm0 16.59H94.409a2.187 2.187 0 00-2.188 2.188c0 1.209.978 2.188 2.188 2.188h31.352a2.187 2.187 0 002.188-2.188c0-1.21-.979-2.188-2.188-2.188z"/></svg><svg viewBox="0 0 220 180" id="icon-feature-8" xmlns="http://www.w3.org/2000/svg"><g clip-path="url(#na)"><path d="M119.808 123.077h-19.693c-4.923 0-9-3.615-9.73-8.346H36.808c-1 0-1.808-.808-1.808-1.808s.808-1.808 1.808-1.808h55.23c.924 0 1.808.616 1.808 2.077a6.27 6.27 0 006.269 6.27h19.693a6.27 6.27 0 006.269-6.27c0-1.423.808-2.077 1.808-2.077h55.192c1 0 1.808.808 1.808 1.808s-.808 1.808-1.808 1.808h-53.539c-.73 4.731-4.807 8.346-9.73 8.346zm63.423 12.846H36.923c-1 0-1.808-.73-1.808-1.73s.808-1.731 1.808-1.731H183.23c1 0 1.807.731 1.807 1.731-.038 1-.846 1.73-1.807 1.73z"/><path d="M141.692 44H78.423c-1 0-1.808.73-1.808 1.73s.808 1.732 1.808 1.732h17.923v9.076c0 1 .808 1.693 1.77 1.693h.538v11.923H95.73c-1 0-1.692.923-1.692 1.885v9.346c0 .346.038.692.23.961L99 89.692c.346.5.885.808 1.5.808h2.769v20.577c0 .461.308.885.616 1.231l4.884 5.038a1.802 1.802 0 002.616 0l4.807-5.038c.308-.346.539-.77.539-1.231V90.539H119c.577 0 1.038-.27 1.385-.731l5.346-7.347c.231-.307.231-.692.231-1.076v-9.347c0-1-.577-1.884-1.577-1.884h-3.039V58.23h1.846c1 0 1.616-.693 1.616-1.693v-9.076h16.884c1 0 1.808-.731 1.808-1.731s-.808-1.73-1.808-1.73zm-28.807 66.385L110 113.538l-2.846-3.115 5.731-3.846v3.808zm0-8.116l-5.77 3.846v-3.538l5.77-3.846v3.538zm0-7.846l-5.77 3.846v-7.73h5.77v3.884zM122.5 74v6.808l-4.423 6.269h-16.615l-3.193-5h18.346c1 0 1.808-.73 1.808-1.73s-.808-1.732-1.808-1.732H97.462V74H122.5zm-20.385-15.77h15.77v11.924h-15.77V58.23zm19.231-3.46H99.808v-7.31h21.538v7.308z"/></g><defs><clipPath id="na"><path transform="translate(35 44)" d="M0 0h150v91.923H0z"/></clipPath></defs></svg><svg viewBox="0 0 220 180" id="icon-feature-9" xmlns="http://www.w3.org/2000/svg"><g clip-path="url(#oa)"><path d="M104.919 113.073c-4.182 0-5.576 6.568-5.824 7.9-.278 1.518-1.115 6.103 1.735 8.178a3.86 3.86 0 002.324.682 21.25 21.25 0 005.886-1.239l.619-.248v.031c3.842-1.239 5.855-1.952 7.59-3.346a13.515 13.515 0 003.656-4.678l.557-1.146.31 1.239c.248.991.496 2.138.743 3.47.093.526.403.991.837 1.301.434.31.991.434 1.518.31a2.05 2.05 0 001.301-.837c.279-.433.403-.96.341-1.456v-.062c-1.146-6.103-2.324-9.665-5.05-9.696-1.828-.062-2.602 1.456-3.377 3.284a11.943 11.943 0 01-3.376 5.142c-1.239 1.022-3.129 1.611-6.909 2.85-1.394.496-2.85.868-4.337 1.053l-.433.062-.093-.433c-.248-1.208-.186-2.479.124-3.687a10.964 10.964 0 011.704-4.337l.185-.248.31.062c.651.124 1.27.403 1.766.837l.155.124v.217c.031 1.115.96 1.951 2.044 1.951 1.116 0 1.983-.867 2.014-1.982a4.437 4.437 0 00-1.27-3.098c-1.332-1.363-3.129-2.138-5.05-2.2zm-5.545 26.952c.372.371.898.588 1.425.588h23.73c.526 0 1.053-.217 1.425-.588.371-.372.588-.899.588-1.425 0-.527-.217-1.054-.588-1.425a2.044 2.044 0 00-1.425-.589h-23.73c-.527 0-1.053.217-1.425.589a2.04 2.04 0 00-.589 1.425c0 .526.217 1.053.589 1.425z"/><path d="M80.725 155.855c.372.372.898.589 1.425.589h85.037c.527 0 1.053-.217 1.425-.589.372-.372.589-.898.589-1.425v-26.611c0-.527-.217-1.053-.589-1.425a2.042 2.042 0 00-1.425-.589c-.527 0-1.053.217-1.425.589a2.042 2.042 0 00-.589 1.425v24.597H84.195V39.034c0-3.377-1.209-6.661-3.44-9.201l-.68-.775h75.123c2.664 0 5.174 1.053 7.063 2.912a9.908 9.908 0 012.912 7.063v14.282c0 .557.217 1.053.589 1.425.372.371.898.588 1.425.588s1.053-.217 1.425-.588c.372-.372.589-.899.589-1.425V39.033c0-3.748-1.456-7.249-4.12-9.913-2.634-2.664-6.134-4.12-9.883-4.12H70.161c-3.78 0-7.342 1.487-10.006 4.151a14.086 14.086 0 00-4.151 10.006v32.466a8.495 8.495 0 01-4.244 7.342c-2.603 1.518-5.855 1.518-8.489 0-2.602-1.518-4.244-4.306-4.244-7.342v-4.46H47.3a2.01 2.01 0 002.013-2.014 2.01 2.01 0 00-2.013-2.014H37.014A2.01 2.01 0 0035 65.15v6.474c0 3.346 1.301 6.475 3.687 8.86 2.354 2.355 5.514 3.656 8.86 3.687h32.62v70.26c-.03.527.186 1.022.558 1.425zM56.778 80.112l.589-.744a12.492 12.492 0 002.695-7.714V39.157c0-2.695 1.053-5.235 2.974-7.156a10.055 10.055 0 017.156-2.974c2.664 0 5.174 1.053 7.063 2.912 1.89 1.859 2.912 4.4 2.912 7.063V80.08H56.778v.032z"/><path d="M184.194 80.204l-1.611-.805h1.24a10.802 10.802 0 00-3.532-4.12l-.31-.217 2.54-6.134a2.028 2.028 0 00-.805-2.478l-.341-.217 2.355-5.731c.557-1.425.526-2.943-.062-4.369-.589-1.425-1.735-2.54-3.16-3.16a5.856 5.856 0 00-4.461 0 5.85 5.85 0 00-3.16 3.16l-2.323 5.639-.372-.093a2.393 2.393 0 00-.465-.062c-.805 0-1.549.465-1.859 1.239l-25.402 61.772a7.668 7.668 0 00-.341 4.926 7.724 7.724 0 002.633 4.182l.248.217-1.58 3.872a1.994 1.994 0 001.115 2.633 1.995 1.995 0 002.634-1.115l1.579-3.872.341.031c.279.031.496.031.682.031 1.58 0 3.098-.465 4.399-1.333a7.81 7.81 0 002.912-3.562l21.344-51.735.496.496a6.914 6.914 0 011.89 3.531c.278 1.332.124 2.695-.372 3.966l-5.359 13.042-.248.65a1.924 1.924 0 000 1.549c.217.496.619.899 1.084 1.085.496.216 1.053.185 1.549 0 .496-.217.898-.62 1.084-1.085l5.36-13.042.278-.65a11.133 11.133 0 000-8.24zm-30.793 48.947a3.854 3.854 0 01-3.562 2.385c-.496 0-.992-.093-1.456-.279-1.952-.805-2.912-3.066-2.107-5.018l1.394-3.346 7.125 2.943-1.394 3.315zm2.912-7.094l-7.125-2.943 21.716-52.788 7.126 2.943-21.717 52.788zm21.345-57.311l-3.284-1.363 2.323-5.67a1.79 1.79 0 012.324-.96 1.79 1.79 0 01.96 2.324l-2.323 5.669zm-63.692-19.765h24.349a2.01 2.01 0 002.014-2.013 2.01 2.01 0 00-2.014-2.014h-24.349a2.01 2.01 0 00-2.014 2.014 2.01 2.01 0 002.014 2.013zm42.317 10.471a2.044 2.044 0 00-1.425-.589H97.423a2.01 2.01 0 00-2.014 2.014 2.01 2.01 0 002.014 2.014h57.435a2.04 2.04 0 001.425-.59c.372-.37.588-.897.588-1.424 0-.527-.185-1.053-.588-1.425zm-11.586 43.185a2.01 2.01 0 00-2.014-2.014h-45.26a2.01 2.01 0 00-2.014 2.014 2.01 2.01 0 002.014 2.013h45.26c1.115.031 2.014-.898 2.014-2.013zM97.423 72.832h57.435a2.01 2.01 0 002.013-2.014 2.01 2.01 0 00-2.013-2.013H97.423a2.01 2.01 0 00-2.014 2.013 2.01 2.01 0 002.014 2.014zm0 13.909H150.8c.526 0 1.053-.217 1.425-.589.371-.371.588-.898.588-1.425 0-.526-.217-1.053-.588-1.425a2.045 2.045 0 00-1.425-.588H97.423a2.01 2.01 0 00-2.014 2.013 2.01 2.01 0 002.014 2.014z"/></g><defs><clipPath id="oa"><path transform="translate(35 25)" d="M0 0h150v131.444H0z"/></clipPath></defs></svg><svg viewBox="0 0 25 24" id="icon-filter" xmlns="http://www.w3.org/2000/svg"><path fill-rule="evenodd" clip-rule="evenodd" d="M16.674 6.597a3.304 3.304 0 003.22-2.578h3.87a.72.72 0 100-1.44h-3.87A3.304 3.304 0 0016.673 0a3.302 3.302 0 00-3.298 3.299 3.302 3.302 0 003.298 3.298h.001zm0-5.157a1.86 1.86 0 010 3.718 1.86 1.86 0 01-1.314-3.172 1.86 1.86 0 011.314-.545V1.44zm-5.19 2.579H.722a.72.72 0 010-1.44h10.762a.72.72 0 110 1.44zm-4.478 11.28a3.302 3.302 0 003.299-3.298 3.302 3.302 0 00-3.299-3.298 3.304 3.304 0 00-3.219 2.578H.722a.72.72 0 000 1.44h3.065a3.304 3.304 0 003.22 2.579l-.001-.001zm0-5.156a1.86 1.86 0 00-1.858 1.842v.033a1.86 1.86 0 003.172 1.297A1.86 1.86 0 008.865 12a1.86 1.86 0 00-1.859-1.858zm16.758 2.578H12.196a.72.72 0 010-1.44h11.568a.72.72 0 010 1.44zm-3.065 8.7A3.304 3.304 0 0117.479 24a3.302 3.302 0 01-3.297-3.299 3.302 3.302 0 013.298-3.298 3.304 3.304 0 013.219 2.578h3.065a.72.72 0 010 1.44h-3.065zm-1.361-.72a1.86 1.86 0 00-1.858-1.858 1.86 1.86 0 00-1.314 3.172 1.86 1.86 0 003.172-1.313v-.001zm-18.618.72h11.568a.72.72 0 000-1.44H.72a.72.72 0 000 1.44z"/></svg><svg viewBox="0 0 21 25" id="icon-hand" xmlns="http://www.w3.org/2000/svg"><path d="M20.335 11.267v6.153c0 .927-.175 2.025-.408 3.077a34.982 34.982 0 01-.794 2.92 1.538 1.538 0 01-.565.781 1.579 1.579 0 01-.926.3H8.488c-.29 0-.574-.08-.821-.23a1.543 1.543 0 01-.576-.62l-1.6-3.15-.156-.309C4.65 18.845.747 13.345.747 13.345a1.826 1.826 0 01.29-2.595 1.895 1.895 0 012.636.286l2.287 2.81V2.342c0-.66.357-1.269.937-1.599a1.9 1.9 0 011.875 0c.58.33.938.94.938 1.6v6.153c0-.66.357-1.269.937-1.599a1.9 1.9 0 011.875 0c.58.33.938.94.938 1.6v1.23c0-.66.357-1.27.937-1.599a1.9 1.9 0 011.875 0c.58.33.938.94.938 1.599v1.539c0-.55.297-1.058.781-1.333a1.584 1.584 0 011.563 0c.483.275.78.783.78 1.333h.001z"/></svg><svg viewBox="0 0 25 25" id="icon-help" xmlns="http://www.w3.org/2000/svg"><path d="M10.02 20h3.013v3H10.02v-3zm2.009-17c5.375.22 7.716 5.62 4.521 9.67-.834 1-2.18 1.66-2.843 2.5-.674.83-.674 1.83-.674 2.83H10.02c0-1.67 0-3.08.673-4.08.663-1 2.01-1.59 2.844-2.25C15.968 9.43 15.365 6.26 12.03 6c-.8 0-1.566.316-2.132.879A2.993 2.993 0 009.014 9H6c0-1.591.635-3.117 1.766-4.243A6.043 6.043 0 0112.029 3z"/></svg><svg viewBox="0 0 42 16" id="icon-hero-arrow" xmlns="http://www.w3.org/2000/svg"><path fill-rule="evenodd" clip-rule="evenodd" d="M.732 1.199A1.5 1.5 0 012.8.732L21 12.226 39.199.732a1.5 1.5 0 111.602 2.536L21 15.774 1.199 3.268A1.5 1.5 0 01.732 1.2z"/></svg><svg viewBox="0 0 24 24" id="icon-mail" xmlns="http://www.w3.org/2000/svg"><path fill-rule="evenodd" clip-rule="evenodd" d="M4 5c-.548 0-1 .452-1 1v12c0 .548.452 1 1 1h16c.548 0 1-.452 1-1V6c0-.548-.452-1-1-1H4zM1 6c0-1.652 1.348-3 3-3h16c1.652 0 3 1.348 3 3v12c0 1.652-1.348 3-3 3H4c-1.652 0-3-1.348-3-3V6z"/><path fill-rule="evenodd" clip-rule="evenodd" d="M1.18 5.427a1 1 0 011.393-.246L12 11.779l9.427-6.598a1 1 0 011.146 1.638l-10 7a1 1 0 01-1.146 0l-10-7a1 1 0 01-.246-1.392z"/></svg><svg viewBox="0 0 22 22" id="icon-phone" xmlns="http://www.w3.org/2000/svg"><path d="M18.1 21.9h-.3c-3.1-.3-6.1-1.4-8.7-3.1-2.4-1.5-4.5-3.6-6-6C1.4 10.2.4 7.2 0 4.1c0-.4 0-.8.1-1.2.1-.4.3-.7.6-1 .3-.3.6-.5 1-.7.5-.1.9-.2 1.3-.2h2.9c.7 0 1.4.2 1.9.7.5.5.9 1.1 1 1.8 0 .8.2 1.7.5 2.5.2.5.2 1.1.1 1.6S9 8.6 8.6 9l-.6.7c1.1 1.8 2.6 3.3 4.4 4.4l.7-.7c.4-.4.9-.7 1.4-.8.5-.1 1.1-.1 1.6.1.8.3 1.6.5 2.5.6.7.1 1.3.4 1.8 1 .5.5.7 1.2.7 1.9V19c0 .4-.1.8-.2 1.2-.2.4-.4.7-.7 1-.3.3-.6.5-1 .6-.5.1-.8.1-1.1.1zM5.8 2.9H3c-.2 0-.3.1-.4.1-.1.1-.2.1-.3.2-.1.1-.2.2-.2.4-.1.1-.1.2-.1.4.3 2.8 1.3 5.5 2.8 7.8 1.4 2.2 3.3 4.1 5.4 5.4 2.3 1.5 5 2.5 7.8 2.8h.4c.1 0 .2-.1.3-.2.1-.1.2-.2.2-.3.1-.1.1-.3.1-.4v-2.9c0-.2-.1-.5-.2-.6-.2-.2-.4-.3-.6-.3-1-.1-2-.4-2.9-.7-.2-.1-.4-.1-.5 0-.2 0-.3.1-.5.3l-1.2 1.2c-.3.3-.8.4-1.1.2-2.5-1.4-4.6-3.5-6.1-6.1-.2-.4-.1-.8.2-1.1l1.2-1.2c.1-.1.2-.3.3-.5v-.5c-.4-1.2-.7-2.2-.8-3.2 0-.2-.1-.4-.3-.6-.2-.1-.4-.2-.7-.2zm11.4 6.7c-.2 0-.5-.1-.7-.3l-3.8-3.8c-.3-.3-.4-.8-.2-1.1.2-.4.6-.6 1-.5 1 .2 1.8.6 2.6 1.2l-3.4-3.4c-.3-.3-.4-.7-.2-1.1.2-.4.6-.6 1-.5 2.1.2 4.2 1.2 5.7 2.7 1.5 1.5 2.5 3.5 2.7 5.7 0 .4-.2.8-.5 1-.4.2-.8.1-1.1-.2l-3.4-3.4c.6.7 1.1 1.6 1.2 2.6.1.4-.1.8-.5 1-.1 0-.3.1-.4.1z"/></svg><svg viewBox="0 0 100 100" id="icon-success" xmlns="http://www.w3.org/2000/svg"><path d="M50 .001a49.996 49.996 0 00-50 50 49.998 49.998 0 0085.354 35.355A50.005 50.005 0 00100 50 50.059 50.059 0 0049.998 0l.001.001zm0 95.708a45.708 45.708 0 01-32.32-78.027 45.706 45.706 0 0178.026 32.32 45.76 45.76 0 01-45.707 45.707zm23.022-59.128a2.148 2.148 0 01-.151 3.031L42.428 67.206a2.15 2.15 0 01-1.443.557h-.173a2.15 2.15 0 01-1.503-.803L26.89 51.344a2.147 2.147 0 113.356-2.681l10.99 13.824 28.75-26.058a2.147 2.147 0 013.034.15v.002z"/></svg><svg viewBox="0 0 12 21" id="icon-swiper-arrow" xmlns="http://www.w3.org/2000/svg"><path fill-rule="evenodd" clip-rule="evenodd" d="M.972.908a1.5 1.5 0 012.12.064l8 8.5a1.5 1.5 0 01.092 1.949l-7 9a1.5 1.5 0 01-2.368-1.842l6.212-7.986-7.12-7.565A1.5 1.5 0 01.972.908z"/></svg><svg viewBox="0 0 14 14" id="icon-zoom-in" xmlns="http://www.w3.org/2000/svg"><path d="M14 8H8v6H6V8H0V6h6V0h2v6h6v2z"/></svg><svg viewBox="0 0 14 2" id="icon-zoom-out" xmlns="http://www.w3.org/2000/svg"><path d="M14 2H0V0h14v2z"/></svg></svg>