<svg xmlns="http://www.w3.org/2000/svg" version="1.1" xmlns:xlink="http://www.w3.org/1999/xlink" xmlns:svgjs="http://svgjs.com/svgjs" width="51" height="51"><svg width="51" height="51" viewBox="0 0 51 51" fill="none" xmlns="http://www.w3.org/2000/svg">
<circle cx="25.5" cy="25.5" r="25" fill="#EDF0F5" stroke="#488A99"></circle>
<path d="M7.00007 34.9947C7.00007 33.741 7.00007 32.4873 7.00247 31.2335C7.00247 31.1137 7.00487 30.9914 7.03132 30.8764C7.10343 30.5647 7.3871 30.361 7.7597 30.3538C8.15875 30.3466 8.5602 30.349 8.95925 30.349C9.77417 30.349 10.5867 30.3466 11.4016 30.3514C11.8127 30.3538 12.0915 30.5432 12.1733 30.8716C12.1997 30.977 12.2045 31.0897 12.2045 31.2C12.2069 32.5496 12.2069 33.8992 12.2045 35.2488C12.2045 35.4741 12.1492 35.5293 11.9209 35.5293C11.5458 35.5293 11.1684 35.5293 10.7934 35.5293C10.5891 35.5293 10.5266 35.4693 10.5266 35.2608C10.5266 34.194 10.5266 32.0318 10.5266 32.0174C10.529 31.6363 10.4737 31.5811 10.0963 31.5811C9.74533 31.5811 9.39195 31.5811 9.04098 31.5811C8.75491 31.5811 8.67559 31.653 8.67559 31.9359C8.67318 33.0122 8.67318 34.0886 8.67318 35.1649C8.67318 35.2224 8.67559 35.28 8.67078 35.3375C8.66357 35.4573 8.59145 35.5245 8.47606 35.5269C8.05298 35.5293 7.62749 35.5293 7.2044 35.5269C7.10824 35.5269 7.05536 35.4813 7.0217 35.4142C6.99766 35.3639 7.00007 35.0474 7.00007 34.9947Z" fill="#488A99"></path>
<path d="M12.9159 36.7901C12.863 36.7901 12.8101 36.7781 12.7644 36.7494C12.6851 36.7014 12.6562 36.6247 12.6562 36.5073C12.6611 35.1337 12.6587 33.7601 12.6587 32.3865C12.6587 31.8783 12.8942 31.6218 13.4015 31.6146C14.0697 31.6027 14.7404 31.6098 15.4111 31.6122C15.6852 31.6146 15.9472 31.6746 16.1852 31.8112C16.5458 32.0198 16.7285 32.3506 16.803 32.7413C16.9184 33.3574 16.9015 33.9758 16.7333 34.5823C16.5914 35.0977 16.2429 35.4094 15.7188 35.4789C15.3534 35.5268 14.2933 35.5292 14.1106 35.5292C14.1106 35.6059 14.1106 35.6706 14.1106 35.7354C14.1106 35.9943 14.1106 36.2004 14.1106 36.4593C14.1106 36.6775 14.0096 36.7853 13.7933 36.7877C13.5914 36.7925 13.0938 36.7925 12.9159 36.7901ZM14.1178 34.3138C14.1202 34.4073 14.1947 34.4793 14.2885 34.4816C14.4544 34.4864 14.6779 34.484 14.8342 34.4816C15.1587 34.4745 15.3246 34.2995 15.3558 33.983C15.3847 33.6954 15.3799 33.3981 15.3462 33.1105C15.315 32.8228 15.1106 32.6694 14.8174 32.6598C14.6683 32.655 14.5193 32.6574 14.3702 32.6574C14.1659 32.6574 14.1106 32.7101 14.1106 32.9115C14.1082 33.2831 14.113 33.9878 14.1178 34.3138Z" fill="#488A99"></path>
<path d="M21.6206 32.8325C21.4764 32.1157 21.1134 31.7466 20.3994 31.6315C19.7167 31.5212 19.0268 31.5212 18.3441 31.6483C17.7671 31.7561 17.3994 32.1037 17.2527 32.6695C17.0989 33.2616 17.0989 33.8585 17.2479 34.4506C17.3921 35.0235 17.7551 35.3831 18.3417 35.4837C18.6951 35.5437 19.9691 35.5604 20.2408 35.5317C21.0124 35.4478 21.4475 35.081 21.6062 34.3786C21.7216 33.8657 21.724 33.3479 21.6206 32.8325ZM20.2336 33.88C20.2336 34.254 19.9307 34.556 19.5557 34.556H19.2768C18.9018 34.556 18.5989 34.254 18.5989 33.88V33.2184C18.5989 32.8445 18.9018 32.5424 19.2768 32.5424H19.5412C19.9234 32.5424 20.2336 32.8517 20.2336 33.2328V33.88Z" fill="#488A99"></path>
<path d="M23.2844 35.5125C22.52 35.4502 22.0945 35.0307 22.0032 34.2708C21.9431 33.7769 21.9431 33.2831 22.0296 32.7917C22.1474 32.1037 22.6186 31.6554 23.3157 31.6267C24.0417 31.5979 24.77 31.6099 25.4984 31.6099C25.6427 31.6099 25.7052 31.6794 25.7076 31.828C25.7124 32.0054 25.71 32.1828 25.7076 32.3626C25.7052 32.5304 25.6379 32.5951 25.4672 32.5951C25.0729 32.5975 24.6763 32.5951 24.2821 32.5975C23.758 32.5999 23.508 32.8181 23.4671 33.343C23.4503 33.5756 23.4551 33.8153 23.4912 34.0454C23.5417 34.3714 23.7388 34.5272 24.0729 34.5368C24.52 34.5464 24.9696 34.544 25.4167 34.544C25.7701 34.544 25.7893 34.5632 25.7893 34.9204C25.7893 35.045 25.7893 35.1697 25.7893 35.2943C25.7869 35.4669 25.7268 35.5317 25.5537 35.5317C25.1907 35.5341 23.6763 35.546 23.2844 35.5125Z" fill="#488A99"></path>
<path d="M26.1547 33.7748C26.1547 33.305 26.1523 32.8327 26.1547 32.3629C26.1571 31.8859 26.3999 31.6222 26.8783 31.6174C27.8038 31.6054 28.7293 31.6054 29.6524 31.6174C30.1404 31.6222 30.3808 31.8835 30.3808 32.3725C30.3832 33.3386 30.3832 34.3046 30.3808 35.2707C30.3808 35.4768 30.3231 35.532 30.1115 35.532C29.8134 35.532 29.513 35.532 29.2149 35.532C28.9865 35.532 28.9312 35.4768 28.9312 35.2539C28.9312 34.4748 28.9312 33.6981 28.9312 32.919C28.9312 32.6578 28.8711 32.5978 28.6067 32.5954C28.3663 32.5954 28.1259 32.593 27.8831 32.5954C27.6668 32.5978 27.597 32.6673 27.597 32.8831C27.597 33.667 27.597 34.4484 27.597 35.2323C27.597 35.484 27.549 35.532 27.2918 35.532C26.9985 35.532 26.7028 35.532 26.4095 35.532C26.21 35.532 26.1499 35.472 26.1499 35.2755C26.1547 34.7745 26.1547 34.2758 26.1547 33.7748Z" fill="#488A99"></path>
<path d="M34.3426 33.9733C34.7032 33.9709 34.9172 33.8127 34.9508 33.4555C34.9797 33.1631 34.9725 32.8586 34.9268 32.5686C34.8282 31.9477 34.5662 31.6864 33.9508 31.6121C33.232 31.5282 32.5061 31.521 31.7897 31.6337C31.1238 31.7391 30.8306 32.022 30.7873 32.6836C30.7465 33.2997 30.7561 33.923 30.8114 34.539C30.8691 35.1695 31.2248 35.4883 31.8618 35.5099C32.7849 35.541 33.7104 35.5291 34.6359 35.5315C34.7681 35.5315 34.8378 35.4524 34.8378 35.3205C34.8378 35.1527 34.8378 34.9849 34.8378 34.8171C34.8378 34.5223 34.8018 34.4863 34.5061 34.4863C33.8931 34.4863 33.2825 34.4887 32.6695 34.4815C32.3474 34.4767 32.196 34.3113 32.2128 33.9805C32.2777 33.9757 33.6912 33.9757 34.3426 33.9733ZM32.5758 32.5662C32.7753 32.5542 32.9796 32.5614 33.1792 32.5686C33.2489 32.571 33.321 32.5949 33.3859 32.6261C33.4965 32.6812 33.547 32.7747 33.5181 32.8994C33.4893 33.0192 33.3787 33.0528 33.2681 33.0528C32.9123 33.0552 32.5782 33.0528 32.2152 33.0528C32.1671 32.7316 32.2753 32.5853 32.5758 32.5662Z" fill="#488A99"></path>
<path d="M36.7936 31.8786C36.7936 31.6701 36.7359 31.6102 36.5315 31.6078C36.219 31.6054 35.9065 31.6054 35.5916 31.6078C35.4017 31.6078 35.3392 31.6677 35.3392 31.8595C35.3368 33.0029 35.3368 34.1464 35.3392 35.2874C35.3392 35.4648 35.4065 35.5295 35.5868 35.5295C35.8945 35.5319 36.2022 35.5295 36.5123 35.5295C36.7359 35.5295 36.7936 35.4696 36.7936 35.249C36.7936 34.6881 36.7936 34.1248 36.7936 33.5638C36.7936 33.0029 36.7936 32.442 36.7936 31.8786Z" fill="#488A99"></path>
<path d="M39.7103 35.407C39.4819 35.1098 38.8449 34.2851 38.5204 33.8896C38.2584 33.5684 38.256 33.4749 38.4988 33.1465C38.5252 33.1129 39.3738 32.003 39.5781 31.7322C39.6118 31.6866 39.5805 31.6243 39.5252 31.6219C39.2416 31.6171 38.5829 31.6051 38.2656 31.6147C38.179 31.6171 38.0636 31.677 38.0132 31.7465C37.6814 32.2068 37.3641 32.6766 37.0396 33.1417C36.8569 33.4054 36.8641 33.6499 37.0564 33.9088C37.4194 34.393 37.7704 34.8868 38.1286 35.3758C38.2079 35.4861 38.3112 35.5341 38.4507 35.5317C38.7536 35.5269 39.3786 35.5197 39.6574 35.5149C39.7127 35.5173 39.744 35.4526 39.7103 35.407Z" fill="#488A99"></path>
<path d="M43.9987 31.8642C43.9963 31.6676 43.9362 31.6077 43.7175 31.6077C43.3425 31.6077 42.9699 31.6077 42.5948 31.6077C42.4867 31.6077 40.8039 31.6077 40.0707 31.6077C39.8688 31.6077 39.8111 31.6676 39.8111 31.8642C39.8111 32.0511 39.8087 32.2381 39.8111 32.4251C39.8135 32.5569 39.8784 32.6313 40.0155 32.6337C40.1933 32.636 40.9602 32.6337 41.1814 32.6337C41.1814 32.7056 41.1814 32.7559 41.1814 32.8086C41.1814 33.6213 41.1814 34.4315 41.1814 35.2442C41.1814 35.4815 41.2318 35.5294 41.4722 35.5294C41.7559 35.5294 42.0395 35.5294 42.3256 35.5294C42.5852 35.5294 42.6309 35.4839 42.6309 35.2298C42.6309 34.4267 42.6309 33.6261 42.6309 32.823C42.6309 32.7655 42.6309 32.7104 42.6309 32.6337C42.9482 32.6337 43.6093 32.6337 43.7776 32.6337C43.9242 32.6313 43.9963 32.5569 43.9963 32.4251C44.0011 32.2405 44.0011 32.0535 43.9987 31.8642Z" fill="#488A99"></path>
<path fill-rule="evenodd" clip-rule="evenodd" d="M22.6563 14L18.6875 15.5558V16.8993L19.5241 16.5652V17.5265L18.6875 17.8502V18.7692L19.5241 18.4351V19.3963L18.6875 19.7201V20.6291C18.6875 20.7609 20.0211 20.9882 20.0211 20.9882C20.1533 20.9882 20.0211 22.6825 20.0211 22.6825C20.0211 22.6825 22.6563 23.6282 22.6563 23.4964V14.6592L25.5891 15.5965V30.0538C25.5891 30.1641 25.678 30.2528 25.7886 30.2528H26.029C26.1396 30.2528 26.2285 30.1641 26.2285 30.0538V15.1602L22.6563 14Z" fill="#488A99"></path>
<path fill-rule="evenodd" clip-rule="evenodd" d="M12.937 20.4005L15.752 19.2402L20.4949 20.8511V30.0898C20.4949 30.1837 20.4186 30.1826 20.3272 30.1812C20.3159 30.1811 20.3045 30.1809 20.2929 30.1809H20.0285C20.0171 30.1809 20.0056 30.1811 19.9943 30.1812C19.9011 30.1826 19.817 30.1838 19.817 30.0898V21.2826L15.7544 19.921L15.7952 30.0634C15.7952 30.1857 15.6967 30.284 15.5765 30.284H13.1558C13.0356 30.284 12.937 30.1857 12.937 30.0634V22.5675L13.9356 22.1982V21.213L12.937 21.6158V20.4005Z" fill="#488A99"></path>
<path fill-rule="evenodd" clip-rule="evenodd" d="M17.2739 23.4739L21.0649 22.3784L23.4592 23.45V30.0997C23.4592 30.2004 23.3774 30.2843 23.2741 30.2843H23.0144C22.9135 30.2843 22.8293 30.2028 22.8293 30.0997V23.8671L21.0649 23.1743V30.1189C21.0649 30.21 20.9904 30.2843 20.899 30.2843H17.4398C17.3484 30.2843 17.2739 30.21 17.2739 30.1189V26.7382L18.2089 26.4152V25.5066L17.2739 25.8275V23.4739Z" fill="#488A99"></path>
<path d="M31.2005 17.1716L27.7461 18.339V30.0923C27.7461 30.1978 27.8447 30.2601 27.9697 30.2601H30.9793C31.1019 30.2601 31.2029 30.1978 31.2029 30.0923V17.8644L34.0876 18.7945L34.1333 30.1259C34.1333 30.2122 34.215 30.2122 34.3184 30.2122H34.5395C34.6405 30.2122 34.7246 30.2146 34.7246 30.1259V18.3343L31.2005 17.1716Z" fill="#488A99"></path>
<path d="M33.2505 19.792V20.5807L34.1736 20.8755V20.0797L33.2505 19.792Z" fill="#488A99"></path>
<path d="M33.2505 21.2302V22.0189L34.1736 22.3137V21.5179L33.2505 21.2302Z" fill="#488A99"></path>
<path d="M28.7668 25.7078L30.7668 26.4677V30.3391H28.4976L28.7668 25.7078Z" fill="#EDF0F5"></path>
<path d="M28.7676 25.7078L27.1113 26.3574V30.2216C27.1113 30.272 27.1618 30.3127 27.2243 30.3127H28.6522C28.7147 30.3127 28.7652 30.272 28.7652 30.2216L28.7604 26.1009" fill="#488A99"></path>
<path d="M35.3159 22.8408L32.626 23.9219V30.133C32.626 30.2169 32.6981 30.2864 32.787 30.2864H35.1573C35.2462 30.2864 35.3183 30.2193 35.3183 30.133V23.548L38.0203 24.4253V30.1138C38.0203 30.2073 38.0997 30.284 38.2391 30.284H38.4602C38.5203 30.284 38.6405 30.2073 38.6405 30.1138L38.6477 23.9699L35.3159 22.8408Z" fill="#488A99"></path>
<path d="M37.1548 25.3555V26.3862L38.0995 26.6499V25.6311L37.1548 25.3555Z" fill="#488A99"></path>
</svg><style>@media (prefers-color-scheme: light) { :root { filter: none; } }
</style></svg>